<svg xmlns="http://www.w3.org/2000/svg" width="30" height="30" viewBox="0 0 30 30"><title>custhom-simplified-patterns</title><path d="M7,0A1,1,0,0,0,7,2h3V0Z" fill="#515151"/><path d="M4,1A1,1,0,0,0,3,0H0V2H3A1,1,0,0,0,4,1Z" fill="#515151"/><path d="M1,5A1,1,0,0,0,2,6H8A1,1,0,0,0,8,4H2A1,1,0,0,0,1,5Z" fill="#515151"/><path d="M4,9A1,1,0,0,0,3,8H0v2H3A1,1,0,0,0,4,9Z" fill="#515151"/><path d="M7,8a1,1,0,0,0,0,2h3V8Z" fill="#515151"/><path d="M1,13a1,1,0,0,0,1,1H8a1,1,0,0,0,0-2H2A1,1,0,0,0,1,13Z" fill="#515151"/><path d="M4,17a1,1,0,0,0-1-1H0v2H3A1,1,0,0,0,4,17Z" fill="#515151"/><path d="M7,16a1,1,0,0,0,0,2h3V16Z" fill="#515151"/><path d="M1,21a1,1,0,0,0,1,1H8a1,1,0,0,0,0-2H2A1,1,0,0,0,1,21Z" fill="#515151"/><path d="M7,24a1,1,0,0,0,0,2h3V24Z" fill="#515151"/><path d="M4,25a1,1,0,0,0-1-1H0v2H3A1,1,0,0,0,4,25Z" fill="#515151"/><path d="M8,28H2a1,1,0,0,0,0,2H8a1,1,0,0,0,0-2Z" fill="#515151"/></svg>