<svg xmlns="http://www.w3.org/2000/svg" width="30" height="30" viewBox="0 0 30 30"><title>custhom-simplified-patterns</title><g style="isolation:isolate"><path d="M15,30H30V15A15,15,0,0,0,15,30Z" fill="#bbbcb3"/><path d="M0,15V30H15A15,15,0,0,0,0,15Z" fill="#b59e9a"/><path d="M0,0V15A15,15,0,0,0,15,0Z" fill="#bbbcb3"/><path d="M15,0V15A15,15,0,0,0,30,0Z" fill="#f3d1c8"/><path d="M15,30h3A12,12,0,0,1,30,18V15A15,15,0,0,0,15,30Z" fill="#2d2b27"/><rect y="1" width="15" height="2" fill="#2d2b27" style="mix-blend-mode:overlay"/><rect y="5" width="15" height="2" fill="#2d2b27" style="mix-blend-mode:overlay"/><rect y="9" width="15" height="2" fill="#2d2b27" style="mix-blend-mode:overlay"/><rect y="13" width="15" height="2" fill="#2d2b27" style="mix-blend-mode:overlay"/></g></svg>