<svg xmlns="http://www.w3.org/2000/svg" viewBox="0 0 1420 800">
  <g fill="#ececec" fill-rule="evenodd">
    <path d="M353,88.63a13,13,0,0,0-.17-1.53,9.88,9.88,0,0,0-.19-1.11c-.08-.38-.16-.75-.25-1.12-.12-.54-.25-1.09-.38-1.63s-.28-1.18-.45-1.77a11.76,11.76,0,0,0-.49-1.32c-.13-.31-.28-.61-.43-.91s-.41-.72-.62-1.1c-.51-.91-.93-1.87-1.38-2.82s-.95-1.83-1.47-2.72c-.3-.51-.59-1-.88-1.54s-.45-.87-.69-1.29-.55-.94-.84-1.4c-.12-.19-.24-.38-.37-.56-.27-.37-.53-.74-.82-1.1L343,66c-.17-.21-.36-.41-.54-.6a12.64,12.64,0,0,0-1-1,29.1,29.1,0,0,0-2.76-2.31,16.54,16.54,0,0,0-1.44-1c-.49-.31-1-.61-1.48-.94s-.93-.66-1.41-1a7.46,7.46,0,0,0-1.27-.62l-.77-.33a5.44,5.44,0,0,1-.5-.22l-1.38-.61c-.49-.22-1-.48-1.44-.72s-.82-.45-1.24-.64-1-.46-1.53-.67c-.75-.36-1.43-.87-2.18-1.24a17.89,17.89,0,0,0-1.86-.79c-.36-.13-.74-.23-1.12-.35a8.07,8.07,0,0,0-1.24-.55,6.65,6.65,0,0,0-1.26-.22l-.22-.06c-.34-.09-.69-.15-1-.22a3.26,3.26,0,0,0-.48-.2l-.08-.17c-.2-.37-.41-.72-.62-1.09-.51-.92-.93-1.88-1.38-2.83s-.95-1.83-1.47-2.72l-.88-1.54c-.23-.42-.45-.87-.69-1.29s-.55-.94-.84-1.4c-.12-.19-.24-.38-.37-.56-.27-.36-.53-.74-.82-1.1l-.56-.7c-.17-.21-.36-.4-.54-.6a12.52,12.52,0,0,0-1-1,27.67,27.67,0,0,0-2.76-2.31,14.65,14.65,0,0,0-1.44-1c-.48-.31-1-.6-1.48-.93s-.93-.66-1.41-1a6.74,6.74,0,0,0-1.27-.61l-.77-.33-.5-.22-1.38-.62c-.49-.22-.95-.48-1.44-.72s-.82-.45-1.24-.64-1-.45-1.53-.67c-.74-.36-1.43-.86-2.18-1.23a18,18,0,0,0-1.86-.8c-.36-.13-.74-.23-1.12-.35a8.35,8.35,0,0,0-1.23-.54,6.16,6.16,0,0,0-1.27-.23l-.21-.05c-.35-.1-.7-.16-1.05-.23l-.51-.21c-.18-.07-.36-.12-.53-.17l-.73-.2-.06,0c-.46-.21-.92-.4-1.39-.59a5.07,5.07,0,0,0-.65-.24A10.16,10.16,0,0,0,278,22.4c-.71-.12-1.43-.21-2.15-.3-.49-.05-1-.06-1.49-.07h-.44c-.87,0-1.74,0-2.61.07l-1.67,0c-.5,0-1,.05-1.5.07-.22,0-.46.05-.68.07l-.71.07c-.69.08-1.37.16-2,.26l-1.21.17c-.27-.47-.55-1-.81-1.43s-.45-.87-.7-1.29-.54-.94-.84-1.4c-.11-.19-.24-.38-.37-.56-.27-.36-.53-.74-.81-1.1l-.56-.7c-.18-.21-.36-.4-.54-.6-.33-.36-.67-.71-1-1a30.41,30.41,0,0,0-2.76-2.31,17.38,17.38,0,0,0-1.44-1c-.49-.32-1-.61-1.49-.94s-.92-.66-1.4-1a6.83,6.83,0,0,0-1.28-.61l-.76-.33-.5-.22-1.38-.61c-.49-.23-1-.49-1.44-.73s-.83-.45-1.25-.64l-1.52-.67c-.75-.36-1.44-.86-2.19-1.23a15.82,15.82,0,0,0-1.85-.79c-.37-.13-.74-.24-1.12-.35a7.21,7.21,0,0,0-1.24-.55A6.07,6.07,0,0,0,235,2.5l-.22,0c-.34-.1-.7-.16-1-.23-.17-.08-.35-.15-.52-.21a3.45,3.45,0,0,0-.52-.16L232,1.64l-.06,0c-.46-.21-.92-.4-1.39-.59a5.21,5.21,0,0,0-.66-.24,10.16,10.16,0,0,0-1.53-.41c-.71-.12-1.42-.21-2.15-.3A14.65,14.65,0,0,0,224.68,0h-.45c-.87,0-1.74,0-2.61.07L220,.11c-.5,0-1,.05-1.5.07-.23,0-.46.05-.69.07l-.71.07c-.68.08-1.36.16-2,.26-1,.14-2.06.28-3.08.45s-2,.35-3,.58-2,.46-3.06.74l-1.5.42c-.53.16-1.07.31-1.59.48l-1.63.53c-.51.17-1,.36-1.52.54s-.93.36-1.38.54-1.16.49-1.73.74-.88.38-1.31.59L193.6,7c-.53.25-1,.54-1.55.81a27,27,0,0,0-2.82,1.7,46.42,46.42,0,0,0-4.66,3.87c-.41.37-.8.77-1.19,1.17-.55.57-1.06,1.17-1.56,1.77A31.53,31.53,0,0,0,179,20.43c-.37.67-.72,1.35-1.06,2-.23.47-.48.93-.69,1.4-.43.95-.86,1.9-1.27,2.86-.25.57-.5,1.13-.75,1.71s-.55,1.36-.82,2c-.16.4-.31.79-.45,1.2-.21.58-.41,1.17-.62,1.77-.05.15-.08.29-.12.44L172.9,35c-.11.39-.23.77-.32,1.17-.23,1.07-.48,2.12-.68,3.2s-.41,2.25-.6,3.38-.38,2.29-.56,3.44c-.09.58-.16,1.17-.24,1.75,0,.37-.09.74-.13,1.11,0,.19-.06.39-.08.58-.08,1-.17,2.07-.21,3.11L170,54.66c0,.08,0,.16,0,.24l-.53-.22a5.21,5.21,0,0,0-.66-.24,10.16,10.16,0,0,0-1.53-.41c-.71-.12-1.43-.21-2.15-.3-.49,0-1-.06-1.48-.07h-.45c-.87,0-1.74,0-2.61.07l-1.66,0c-.51,0-1,0-1.5.07-.23,0-.46,0-.69.07l-.71.07c-.68.08-1.36.16-2.05.26-1,.14-2,.28-3.07.45s-2,.35-3,.58-2,.46-3.05.74l-1.5.42c-.53.16-1.07.31-1.59.48l-1.63.52c-.51.17-1,.37-1.52.55s-.93.36-1.38.54l-1.73.73c-.44.2-.88.39-1.31.6l-1.6.78c-.52.25-1,.53-1.54.81a28.8,28.8,0,0,0-2.82,1.69A47.91,47.91,0,0,0,123.57,67c-.41.37-.8.77-1.19,1.17-.55.57-1.07,1.17-1.56,1.77A31.53,31.53,0,0,0,118,74.09c-.38.67-.72,1.34-1.06,2-.23.47-.48.93-.69,1.4-.43.95-.86,1.9-1.27,2.86q-.37.84-.75,1.71c-.29.67-.55,1.36-.82,2-.16.4-.31.79-.45,1.19l-.62,1.77a3.74,3.74,0,0,0-.12.45l-.31,1.14c-.11.39-.23.78-.32,1.18-.23,1.06-.48,2.12-.68,3.19s-.42,2.26-.6,3.39-.38,2.29-.56,3.44c-.09.58-.17,1.16-.24,1.75,0,.37-.09.74-.13,1.1,0,.2-.06.4-.08.59-.08,1-.17,2.07-.21,3.11l-.06,1.89c0,.13,0,.27,0,.4,0,.4,0,.79,0,1.19s0,.87,0,1.31c0,.7.07,1.39.11,2.09.06,1.16.2,2.32.36,3.47a30.4,30.4,0,0,0,1,4.43c.2.69.43,1.37.65,2l.42,1.26c.4,1.13.8,2.25,1.21,3.38a33,33,0,0,0,1.31,3.14,17.87,17.87,0,0,0,1,1.87,24.66,24.66,0,0,0,1.56,2.09c.53.63,1.11,1.22,1.68,1.81.32.33.64.66,1,1s.78.76,1.19,1.12l1.41,1.23c.4.35.82.68,1.23,1a22.17,22.17,0,0,0,3,2.12c1,.62,2.13,1.18,3.21,1.74s1.91,1,2.87,1.48,2,1,3,1.42c.59.27,1.19.5,1.79.75l1.25.5c1.06.4,2.12.78,3.19,1.16s1.91.62,2.88.91c.45.13.9.26,1.36.36s1,.25,1.44.35l1.73.35.62.1,1.1.17c.62.1,1.25.17,1.88.23.45.05.89.11,1.34.14l1.06.07c.2,0,.41,0,.62,0l1.79,0c.43,0,.86,0,1.28,0s.8-.06,1.21-.09l1.8-.22,1.29-.18,3.4-.47c.95-.15,1.88-.31,2.81-.54.48-.12,1-.22,1.44-.37s1-.28,1.48-.45l3.22-1.1c.52-.18,1-.39,1.54-.59s1.18-.49,1.76-.75l.75-.32c.2-.09.38-.2.56-.3.46-.24.91-.47,1.36-.73s.9-.54,1.34-.82l1.25-.83,1.24-.89c.57-.43,1.15-.85,1.69-1.31l1.36-1.14c.14-.12.27-.26.4-.39l.8-.78c.1-.09.19-.2.29-.31l.74-.84c.33-.38.64-.78.95-1.17l.72-.88a23.22,23.22,0,0,0,2.55,1.77c1.05.62,2.13,1.18,3.22,1.73l2.87,1.48c1,.51,2,1,3,1.43.58.27,1.19.5,1.78.74.42.18.83.35,1.26.51,1.06.4,2.12.78,3.18,1.16s1.92.62,2.88.9c.45.13.9.26,1.36.37s1,.24,1.44.34l1.73.36.62.1,1.1.17c.63.09,1.25.16,1.88.23.45,0,.9.1,1.34.13l1.06.07c.21,0,.42,0,.62,0l1.79,0c.43,0,.86,0,1.28-.05s.81-.05,1.21-.09l1.81-.22,1.28-.17,3.41-.48c.94-.14,1.88-.31,2.8-.53.49-.12,1-.23,1.44-.37s1-.28,1.48-.45l3.22-1.1,1.55-.59c.59-.22,1.17-.49,1.76-.75l.75-.33c.19-.09.37-.19.55-.29.47-.24.92-.48,1.36-.74s.9-.53,1.34-.81.84-.55,1.25-.84.84-.58,1.24-.88c.57-.44,1.16-.85,1.7-1.32L256.4,138c.14-.12.26-.26.39-.38l.8-.79a2.06,2.06,0,0,0,.29-.3l.74-.84c.33-.38.64-.78,1-1.17.62-.78,1.26-1.54,1.88-2.32l.39-.5c.37.4.74.8,1.11,1.18s.64.66,1,1,.78.76,1.19,1.12l1.4,1.24c.41.35.83.68,1.23,1a23.59,23.59,0,0,0,3,2.13c1.05.62,2.14,1.18,3.22,1.73l2.87,1.48c1,.51,2,1,3,1.43.58.27,1.19.5,1.78.74.42.18.83.35,1.26.51,1.06.4,2.12.78,3.18,1.16s1.92.62,2.88.9c.46.13.9.26,1.36.37s1,.24,1.45.34,1.15.24,1.72.36l.62.1,1.1.17c.63.09,1.25.16,1.88.23.45,0,.9.1,1.35.13l1.06.07c.2,0,.41,0,.61,0l1.79,0c.43,0,.86,0,1.28-.05s.81-.05,1.22-.09l1.8-.22,1.28-.17,3.41-.48c.94-.14,1.88-.31,2.8-.53.49-.12,1-.23,1.44-.37s1-.28,1.48-.45l3.23-1.1,1.54-.59c.59-.22,1.17-.49,1.76-.75l.75-.33.56-.29c.46-.24.91-.48,1.35-.74s.91-.53,1.34-.81.84-.55,1.25-.84.84-.58,1.25-.88,1.15-.85,1.69-1.32l1.36-1.14c.14-.12.26-.26.39-.38l.8-.79a2.06,2.06,0,0,0,.29-.3l.74-.84c.33-.38.64-.78,1-1.17.62-.78,1.26-1.54,1.88-2.32.43-.53.85-1.06,1.26-1.6s.64-.82.92-1.26l.56-.84c.12-.18.24-.35.35-.53.29-.51.6-1,.89-1.53s.52-1,.77-1.45.51-.91.76-1.38c.49-.9,1-1.81,1.46-2.72.24-.45.44-.92.67-1.37s.44-1,.66-1.49c.28-.65.53-1.32.8-2l.41-1,1.2-2.77c.49-1.13,1-2.25,1.36-3.42.17-.51.34-1,.5-1.53l.45-1.6c.31-1.07.63-2.15.93-3.22a41.36,41.36,0,0,0,1.22-6.72c.09-1,.12-2,.13-3.08,0-.53,0-1,0-1.58C353,90.26,353,89.44,353,88.63Z" />
    <path d="M321,318.57c0-.51-.1-1-.17-1.53s-.12-.74-.2-1.11-.16-.74-.24-1.11c-.12-.54-.26-1.09-.38-1.64s-.28-1.17-.45-1.76a12.29,12.29,0,0,0-.49-1.32c-.14-.32-.28-.61-.43-.92s-.42-.72-.62-1.09c-.52-.92-.94-1.88-1.38-2.83s-1-1.83-1.47-2.72c-.3-.51-.59-1-.88-1.54s-.45-.87-.7-1.29-.54-.94-.84-1.4a6.65,6.65,0,0,0-.36-.56c-.28-.36-.54-.74-.82-1.1L311,296l-.54-.6c-.32-.36-.67-.71-1-1a28.86,28.86,0,0,0-2.76-2.31,15.22,15.22,0,0,0-1.44-1c-.49-.32-1-.61-1.48-.94s-.93-.66-1.41-1a6.74,6.74,0,0,0-1.27-.61l-.77-.33-.5-.22c-.47-.2-.92-.41-1.38-.62s-1-.48-1.44-.72-.82-.45-1.24-.64l-1.53-.67c-.75-.36-1.44-.86-2.19-1.23a16.92,16.92,0,0,0-1.85-.8l-1.12-.34a7.21,7.21,0,0,0-1.24-.55,6.07,6.07,0,0,0-1.26-.23l-.22,0c-.34-.1-.69-.16-1-.23l-.49-.2-.07-.16c-.2-.37-.42-.72-.62-1.1-.52-.91-.94-1.87-1.38-2.82s-1-1.83-1.47-2.72c-.3-.51-.59-1-.88-1.55s-.45-.86-.69-1.28-.55-1-.85-1.4a6.65,6.65,0,0,0-.36-.56c-.28-.37-.54-.75-.82-1.11l-.56-.69-.54-.61c-.32-.36-.67-.71-1-1a29.1,29.1,0,0,0-2.76-2.31c-.47-.34-.94-.68-1.44-1s-1-.61-1.48-.94-.93-.66-1.41-1a6.74,6.74,0,0,0-1.27-.61c-.26-.11-.52-.21-.77-.33a4.46,4.46,0,0,1-.5-.22l-1.38-.61c-.49-.23-1-.49-1.44-.72s-.82-.45-1.24-.64l-1.53-.68c-.75-.36-1.43-.86-2.18-1.23a16,16,0,0,0-1.86-.79c-.36-.13-.74-.24-1.12-.35a8.07,8.07,0,0,0-1.24-.55,6.65,6.65,0,0,0-1.26-.22l-.22-.06c-.34-.09-.69-.15-1-.22-.17-.08-.35-.16-.52-.22a5.16,5.16,0,0,0-.52-.16l-.73-.21-.06,0c-.46-.21-.92-.4-1.39-.59-.22-.09-.43-.17-.66-.24a9.82,9.82,0,0,0-1.53-.4c-.71-.12-1.42-.21-2.14-.3-.5-.06-1-.06-1.49-.07h-.44c-.87,0-1.75.05-2.62.07l-1.66.05c-.5,0-1,0-1.5.06l-.69.07-.71.08c-.68.08-1.36.16-2,.26l-1.21.16c-.28-.47-.55-.95-.81-1.42s-.45-.87-.7-1.29-.55-.94-.84-1.4c-.12-.19-.24-.38-.37-.56-.27-.37-.53-.74-.82-1.1l-.56-.7c-.17-.21-.36-.41-.53-.6a14.6,14.6,0,0,0-1-1.05,29.1,29.1,0,0,0-2.76-2.31c-.46-.34-.93-.68-1.43-1s-1-.61-1.49-.94-.93-.66-1.41-1a7.11,7.11,0,0,0-1.27-.62c-.25-.11-.51-.21-.76-.33a4.61,4.61,0,0,1-.51-.22l-1.37-.61c-.49-.22-1-.48-1.45-.72s-.82-.45-1.24-.64-1-.46-1.52-.67c-.75-.36-1.44-.87-2.19-1.24a17,17,0,0,0-1.86-.79c-.36-.13-.74-.23-1.11-.35a9,9,0,0,0-1.24-.55,6.79,6.79,0,0,0-1.26-.22l-.22-.06c-.35-.09-.7-.15-1.05-.22-.17-.08-.34-.16-.51-.22a4.64,4.64,0,0,0-.53-.16l-.72-.2-.07,0c-.46-.21-.91-.41-1.38-.6-.22-.09-.43-.17-.66-.24a10.13,10.13,0,0,0-1.53-.4c-.71-.12-1.43-.21-2.15-.3a14.66,14.66,0,0,0-1.48-.07h-.45c-.87,0-1.74.05-2.61.07l-1.66.05c-.51,0-1,0-1.5.06l-.69.07-.71.08c-.68.08-1.37.16-2.05.26-1,.13-2.05.28-3.07.45s-2,.35-3,.58-2,.45-3,.74l-1.5.41c-.54.16-1.07.31-1.6.48l-1.62.53c-.51.17-1,.36-1.52.55s-.93.36-1.38.54-1.16.48-1.73.73-.88.39-1.31.6l-1.6.77c-.52.25-1,.54-1.54.82a26,26,0,0,0-2.82,1.69,46.52,46.52,0,0,0-4.66,3.88c-.41.36-.81.77-1.19,1.17q-.83.85-1.56,1.77a29.38,29.38,0,0,0-2.83,4.14c-.38.66-.72,1.34-1.06,2-.23.46-.48.93-.7,1.4-.42.95-.85,1.89-1.26,2.85-.26.57-.5,1.14-.75,1.72s-.55,1.36-.83,2.05c-.16.4-.31.79-.45,1.19l-.61,1.77c0,.15-.09.3-.13.45l-.31,1.14c-.11.39-.22.78-.31,1.18-.23,1.06-.48,2.12-.68,3.19s-.42,2.25-.61,3.39-.37,2.29-.55,3.43c-.09.59-.17,1.17-.24,1.75,0,.38-.09.74-.14,1.11,0,.19,0,.39-.07.59-.08,1-.18,2.06-.21,3.1L138,284.6v.25l-.53-.23c-.21-.09-.43-.17-.65-.24a10.13,10.13,0,0,0-1.53-.4c-.71-.12-1.43-.21-2.15-.3a14.66,14.66,0,0,0-1.48-.07h-.45c-.87,0-1.74,0-2.61.07l-1.67.05-1.5.06-.68.07-.71.08c-.69.08-1.37.16-2,.26-1,.13-2,.28-3.08.45s-2,.34-3,.57-2,.46-3.06.75l-1.5.41-1.59.48-1.62.53c-.51.17-1,.36-1.53.55s-.92.36-1.37.54-1.16.48-1.73.73-.88.39-1.31.6l-1.6.77c-.52.25-1,.54-1.55.81a28.75,28.75,0,0,0-2.81,1.7A46.65,46.65,0,0,0,91.56,297c-.42.37-.81.78-1.19,1.18q-.83.86-1.56,1.77A29.38,29.38,0,0,0,86,304c-.38.66-.72,1.34-1.06,2-.23.46-.48.92-.7,1.4-.42,1-.85,1.89-1.27,2.85-.25.57-.49,1.14-.74,1.72s-.55,1.36-.83,2.05c-.16.4-.31.78-.45,1.19-.2.59-.41,1.17-.62,1.77l-.12.45-.31,1.14c-.11.39-.22.78-.31,1.18-.23,1.06-.48,2.12-.68,3.19s-.42,2.25-.61,3.39-.37,2.28-.55,3.43c-.1.59-.17,1.17-.24,1.75,0,.38-.09.74-.14,1.11,0,.19,0,.39-.07.59-.08,1-.18,2.06-.21,3.1L77,338.26v.41c0,.39,0,.79,0,1.18s0,.88,0,1.32c0,.69.08,1.39.11,2.08.06,1.17.2,2.32.36,3.48a30.59,30.59,0,0,0,1,4.42c.19.69.43,1.37.65,2.05.14.42.27.84.42,1.25.4,1.13.79,2.26,1.2,3.38s.82,2.13,1.32,3.15a18.08,18.08,0,0,0,1,1.87,21.28,21.28,0,0,0,1.56,2.08c.53.64,1.1,1.22,1.68,1.81.31.34.63.66,1,1s.78.76,1.19,1.12l1.41,1.24c.4.35.82.68,1.22,1a23.59,23.59,0,0,0,3,2.13c1,.62,2.14,1.17,3.22,1.73l2.87,1.48c1,.51,2,1,3,1.42.58.27,1.19.51,1.78.75l1.26.51c1.06.4,2.12.77,3.18,1.15s1.92.63,2.88.91c.46.13.91.26,1.37.37s.95.24,1.44.34,1.15.23,1.72.36l.62.09,1.11.18c.62.09,1.24.16,1.87.23.45.05.9.1,1.35.13l1.06.07c.2,0,.41,0,.62,0l1.79,0c.42,0,.85,0,1.27-.05s.81,0,1.22-.09l1.8-.22,1.28-.17,3.41-.48c.94-.14,1.88-.31,2.8-.53.49-.12,1-.23,1.45-.37s1-.28,1.48-.45l3.22-1.1,1.54-.59c.6-.22,1.18-.49,1.76-.76l.75-.32.56-.29c.46-.24.91-.48,1.35-.74s.91-.53,1.34-.82.84-.54,1.25-.83.84-.58,1.25-.89c.56-.43,1.15-.84,1.69-1.31l1.36-1.14c.14-.12.27-.26.39-.38l.8-.79c.11-.09.2-.2.3-.3.24-.29.49-.57.74-.84s.63-.78.95-1.17l.72-.89a21.1,21.1,0,0,0,2.55,1.77c1,.62,2.13,1.18,3.21,1.74s1.91,1,2.87,1.48,2,1,3,1.42c.59.27,1.19.5,1.79.75l1.25.5c1.06.4,2.12.78,3.19,1.16s1.91.62,2.88.91c.45.13.9.26,1.36.36s1,.25,1.44.35l1.73.36.62.09,1.1.17c.62.1,1.25.17,1.88.23.45.05.89.11,1.34.14l1.06.07c.2,0,.41,0,.62,0l1.79,0c.43,0,.86,0,1.28-.05s.8-.06,1.21-.09l1.81-.22,1.28-.18,3.4-.47c.95-.14,1.88-.31,2.81-.54.48-.12,1-.22,1.44-.37s1-.28,1.48-.45l3.22-1.1c.52-.18,1-.39,1.54-.59s1.18-.49,1.77-.75c.24-.1.49-.22.75-.32s.37-.2.55-.3c.47-.24.92-.47,1.36-.73s.9-.54,1.34-.82l1.25-.83c.41-.3.84-.59,1.24-.89.57-.43,1.15-.85,1.69-1.31l1.36-1.14c.14-.12.27-.26.4-.39l.8-.78a2.87,2.87,0,0,0,.29-.31l.74-.84c.33-.38.64-.78.95-1.16l1.89-2.32.39-.5c.36.4.74.79,1.11,1.18s.64.66,1,1,.78.76,1.19,1.12l1.41,1.24c.4.34.82.67,1.23,1a22.17,22.17,0,0,0,3,2.12c1,.62,2.13,1.18,3.22,1.74s1.91,1,2.86,1.48,2,1,3,1.42c.59.27,1.19.5,1.79.75.41.17.83.34,1.26.5,1.06.4,2.11.78,3.18,1.16s1.91.62,2.88.91c.45.13.9.26,1.36.36s1,.25,1.44.35l1.73.36c.2,0,.42,0,.62.09l1.1.17c.63.1,1.25.17,1.88.23.45.05.89.11,1.34.14l1.06.07c.21,0,.41,0,.62,0l1.79,0c.43,0,.86,0,1.28-.05s.81-.06,1.21-.09l1.81-.22,1.28-.18,3.4-.47c.95-.14,1.89-.31,2.81-.54.48-.12,1-.22,1.44-.37s1-.28,1.48-.45l3.22-1.1c.52-.18,1-.39,1.55-.59s1.17-.49,1.76-.75l.75-.32c.19-.09.37-.2.55-.3.47-.24.92-.47,1.36-.73s.9-.54,1.34-.82l1.25-.83c.42-.3.84-.59,1.24-.89.57-.43,1.15-.85,1.7-1.31l1.36-1.14c.14-.12.26-.26.39-.39l.8-.78a2.87,2.87,0,0,0,.29-.31l.74-.84c.33-.38.64-.78.95-1.16l1.89-2.32c.43-.54.85-1.06,1.26-1.6s.64-.83.92-1.26l.56-.85.35-.52c.29-.52.6-1,.89-1.54s.52-1,.77-1.44.5-.92.76-1.38c.49-.9,1-1.81,1.46-2.73.23-.45.44-.92.66-1.37s.44-1,.67-1.48c.28-.66.53-1.33.79-2l.42-1c.4-.92.8-1.85,1.19-2.77.49-1.13,1-2.26,1.37-3.43.16-.5.34-1,.49-1.53s.31-1.06.46-1.6c.31-1.07.63-2.14.93-3.22a40.29,40.29,0,0,0,1.21-6.72c.1-1,.13-2.05.14-3.07,0-.54,0-1.06,0-1.59C321,320.2,321,319.38,321,318.57Z" />
    <path d="M575,536.19c0-.5-.1-1-.17-1.52s-.12-.75-.2-1.11-.16-.75-.24-1.12c-.12-.54-.26-1.09-.38-1.63s-.28-1.18-.45-1.77a12.29,12.29,0,0,0-.49-1.32c-.14-.31-.28-.61-.43-.91s-.42-.72-.62-1.1c-.52-.91-.94-1.87-1.38-2.82s-1-1.83-1.47-2.72c-.3-.51-.59-1-.88-1.55s-.45-.86-.7-1.28-.54-1-.84-1.4a6.65,6.65,0,0,0-.36-.56c-.28-.37-.54-.75-.82-1.11l-.56-.69-.54-.61c-.32-.36-.67-.71-1-1a30.41,30.41,0,0,0-2.76-2.31c-.47-.34-.94-.68-1.44-1s-1-.61-1.48-.94-.93-.66-1.41-1a6.74,6.74,0,0,0-1.27-.61c-.26-.11-.52-.21-.77-.33a4.46,4.46,0,0,1-.5-.22l-1.38-.61c-.49-.23-1-.49-1.44-.72s-.82-.45-1.24-.64l-1.53-.68c-.75-.36-1.44-.86-2.19-1.23a15.12,15.12,0,0,0-1.85-.79c-.37-.13-.74-.24-1.12-.35a8.07,8.07,0,0,0-1.24-.55,6.79,6.79,0,0,0-1.26-.22l-.22-.06c-.34-.09-.69-.15-1-.22a5.16,5.16,0,0,0-.49-.21c0-.05,0-.1-.07-.16-.2-.37-.42-.72-.62-1.1-.52-.91-.94-1.87-1.38-2.82s-1-1.83-1.47-2.72c-.3-.51-.59-1-.88-1.54s-.45-.87-.69-1.29-.55-.94-.85-1.4a6.65,6.65,0,0,0-.36-.56c-.28-.36-.54-.74-.82-1.1l-.56-.7-.54-.6a14.47,14.47,0,0,0-1-1.05,27.57,27.57,0,0,0-2.76-2.3c-.47-.35-.94-.69-1.44-1s-1-.61-1.48-.94-.93-.65-1.41-1a7.46,7.46,0,0,0-1.27-.62l-.77-.32-.5-.22c-.47-.2-.92-.41-1.38-.62s-1-.48-1.44-.72-.82-.45-1.24-.64l-1.53-.67c-.75-.36-1.43-.87-2.18-1.24-.6-.29-1.23-.56-1.86-.79-.36-.13-.74-.23-1.12-.35a8.07,8.07,0,0,0-1.24-.55,6.65,6.65,0,0,0-1.26-.22l-.22-.05c-.34-.1-.69-.16-1-.23-.17-.08-.35-.15-.52-.21a5.25,5.25,0,0,0-.52-.17l-.73-.2-.06,0c-.46-.21-.92-.41-1.39-.6-.22-.09-.43-.17-.66-.24A9.82,9.82,0,0,0,500,470c-.71-.12-1.42-.21-2.14-.3-.5-.05-1-.06-1.49-.07h-.44c-.87,0-1.75,0-2.62.07l-1.66,0c-.5,0-1,.05-1.5.07-.23,0-.46.05-.69.07l-.71.07c-.68.08-1.36.16-2,.26l-1.21.17c-.28-.48-.55-1-.81-1.43s-.45-.87-.7-1.29-.55-.94-.84-1.4c-.12-.19-.24-.38-.37-.56-.27-.36-.53-.74-.82-1.1l-.56-.7c-.17-.21-.36-.4-.53-.6a14.45,14.45,0,0,0-1-1,27.67,27.67,0,0,0-2.76-2.31,15.8,15.8,0,0,0-1.43-1c-.49-.31-1-.6-1.49-.93s-.93-.66-1.41-1a6.46,6.46,0,0,0-1.27-.61l-.76-.33-.51-.22-1.37-.62c-.49-.22-1-.48-1.45-.72s-.82-.45-1.24-.64l-1.52-.67c-.75-.36-1.44-.86-2.19-1.23a17.07,17.07,0,0,0-1.86-.8c-.36-.13-.74-.23-1.11-.35a9,9,0,0,0-1.24-.54,6,6,0,0,0-1.27-.23l-.21-.05c-.35-.1-.7-.16-1.05-.23a5.49,5.49,0,0,0-.51-.21,4.68,4.68,0,0,0-.53-.17l-.72-.2-.07,0c-.46-.21-.91-.4-1.38-.59a5.21,5.21,0,0,0-.66-.24,10.16,10.16,0,0,0-1.53-.41c-.71-.12-1.43-.21-2.15-.3-.49-.05-1-.06-1.48-.07h-.45c-.87,0-1.74,0-2.61.07l-1.66,0c-.51,0-1,.05-1.5.07-.23,0-.46.05-.69.07l-.71.07c-.68.08-1.37.16-2.05.26-1,.14-2.05.28-3.07.45s-2,.35-3,.58-2,.46-3.05.74c-.5.14-1,.27-1.5.42l-1.6.47-1.62.53c-.51.17-1,.37-1.52.55s-.93.36-1.38.54l-1.73.73c-.44.2-.88.39-1.31.6s-1.07.51-1.6.78-1,.53-1.54.81a27.67,27.67,0,0,0-2.82,1.69,47.91,47.91,0,0,0-4.66,3.88c-.41.37-.81.77-1.19,1.17-.55.57-1.07,1.17-1.56,1.77A30.59,30.59,0,0,0,401,468c-.38.66-.72,1.34-1.06,2-.23.47-.48.93-.7,1.4-.42.95-.85,1.9-1.26,2.86-.26.56-.5,1.13-.75,1.71s-.55,1.36-.83,2.05c-.16.4-.31.79-.45,1.19l-.61,1.77c-.05.15-.09.3-.13.45l-.31,1.14c-.11.39-.22.78-.31,1.18-.23,1.06-.48,2.12-.68,3.19s-.42,2.26-.61,3.39-.37,2.29-.55,3.44c-.09.58-.17,1.16-.24,1.75,0,.37-.09.74-.14,1.1,0,.2-.05.4-.07.59-.08,1-.18,2.07-.21,3.1l-.06,1.9v.24l-.53-.23c-.21-.09-.43-.17-.65-.24a11.47,11.47,0,0,0-1.53-.4c-.71-.12-1.43-.21-2.15-.3-.49-.05-1-.06-1.48-.07h-.45c-.87,0-1.74,0-2.61.07l-1.67,0c-.5,0-1,.05-1.5.07-.22,0-.45,0-.68.07l-.71.07c-.69.08-1.37.16-2.05.26-1,.14-2.05.28-3.08.45s-2,.35-3,.58-2,.46-3.06.74l-1.5.41-1.59.48-1.62.53c-.51.17-1,.37-1.53.55s-.92.36-1.37.54-1.16.48-1.73.73-.88.39-1.31.6l-1.6.77c-.52.25-1,.54-1.55.82a28.65,28.65,0,0,0-2.81,1.69,46.75,46.75,0,0,0-4.66,3.88c-.42.37-.81.77-1.19,1.17-.55.57-1.07,1.17-1.56,1.77a30,30,0,0,0-2.83,4.14c-.38.66-.72,1.34-1.06,2-.23.46-.48.93-.7,1.4L337,527.93c-.25.57-.49,1.14-.74,1.72s-.55,1.36-.83,2.05c-.16.4-.31.79-.45,1.19-.2.59-.41,1.18-.62,1.77l-.12.45-.31,1.14c-.11.39-.22.78-.31,1.18-.23,1.06-.48,2.12-.68,3.19s-.42,2.26-.61,3.39-.37,2.29-.55,3.43c-.1.59-.17,1.17-.24,1.76,0,.37-.09.73-.14,1.1,0,.2-.05.4-.07.59-.08,1-.18,2.07-.21,3.1l-.06,1.89v.41c0,.4,0,.79,0,1.18s0,.88,0,1.32c0,.69.08,1.39.11,2.09.06,1.16.2,2.31.36,3.47a30.72,30.72,0,0,0,1,4.43c.19.68.43,1.37.65,2,.14.42.27.84.42,1.26.4,1.12.79,2.25,1.2,3.37s.82,2.13,1.32,3.15a17.1,17.1,0,0,0,1,1.87,22.69,22.69,0,0,0,1.56,2.09c.53.63,1.1,1.22,1.68,1.81.31.33.63.65,1,1s.78.77,1.19,1.13l1.41,1.23c.4.35.82.68,1.22,1a24.56,24.56,0,0,0,3,2.12c1.05.62,2.14,1.18,3.22,1.74s1.91,1,2.87,1.48,2,1,3,1.42c.58.27,1.19.5,1.78.75l1.26.5c1.06.4,2.12.78,3.18,1.16s1.92.62,2.88.91c.46.12.91.25,1.37.36s.95.24,1.44.34,1.15.24,1.72.36l.62.1,1.11.17c.62.1,1.24.17,1.87.23.45,0,.9.11,1.35.14l1.06.07c.2,0,.41,0,.62,0l1.79,0c.42,0,.85,0,1.27,0s.81-.06,1.22-.09l1.8-.22,1.28-.18,3.41-.48c.94-.14,1.88-.31,2.8-.53.49-.12,1-.22,1.45-.37s1-.28,1.48-.45l3.22-1.1,1.54-.59c.6-.22,1.18-.49,1.76-.75l.75-.33.56-.29c.46-.24.91-.47,1.35-.73s.91-.54,1.34-.82.84-.55,1.25-.84.84-.58,1.25-.88,1.15-.85,1.69-1.31l1.36-1.15c.14-.12.27-.26.39-.38s.53-.52.8-.78a2.94,2.94,0,0,0,.3-.31c.24-.28.49-.57.74-.84s.63-.78,1-1.17l.72-.88a23.64,23.64,0,0,0,2.55,1.77c1.05.61,2.13,1.17,3.21,1.73l2.87,1.48c1,.51,2,1,3,1.42.59.27,1.19.51,1.79.75.41.18.83.35,1.25.51,1.06.4,2.12.77,3.19,1.15s1.91.63,2.88.91c.45.13.9.26,1.36.37s1,.24,1.44.34l1.73.36c.2,0,.41.06.62.09l1.1.18c.62.09,1.25.16,1.88.23.45.05.89.1,1.34.13l1.06.07c.2,0,.41,0,.62,0l1.79,0c.43,0,.86,0,1.28,0s.8,0,1.21-.09l1.81-.22,1.28-.17c1.13-.17,2.27-.32,3.4-.48.95-.14,1.88-.31,2.81-.53.48-.12,1-.23,1.44-.37s1-.28,1.48-.45l3.22-1.1,1.54-.59c.6-.22,1.18-.49,1.77-.76.24-.1.49-.22.75-.32s.37-.19.55-.29c.47-.24.92-.48,1.36-.74s.9-.53,1.34-.82.84-.54,1.25-.83.84-.58,1.24-.89c.57-.43,1.15-.84,1.69-1.31l1.36-1.14c.14-.12.27-.26.4-.38l.8-.79a4.11,4.11,0,0,0,.29-.3c.24-.29.49-.57.74-.84s.64-.78.95-1.17l1.89-2.32.39-.5c.36.4.74.8,1.11,1.18s.64.66,1,1,.78.76,1.19,1.12l1.41,1.24c.4.35.82.68,1.23,1a22.25,22.25,0,0,0,3,2.13c1.05.61,2.13,1.17,3.22,1.73l2.86,1.48c1,.51,2,1,3,1.42.59.27,1.19.51,1.79.75q.62.27,1.26.51c1.06.4,2.11.77,3.18,1.15s1.91.63,2.88.91c.45.13.9.26,1.36.37s1,.24,1.44.34l1.73.36c.2,0,.42.06.62.09l1.1.18c.63.09,1.25.16,1.88.23.45.05.89.1,1.34.13l1.06.07c.21,0,.41,0,.62,0l1.79,0c.43,0,.86,0,1.28,0s.81,0,1.21-.09l1.81-.22,1.28-.17,3.4-.48c.95-.14,1.89-.31,2.81-.53.48-.12,1-.23,1.44-.37s1-.28,1.48-.45l3.22-1.1,1.55-.59c.59-.22,1.17-.49,1.76-.76l.75-.32c.19-.09.37-.19.55-.29.47-.24.92-.48,1.36-.74s.9-.53,1.34-.82.84-.54,1.25-.83.84-.58,1.24-.89c.57-.43,1.15-.84,1.7-1.31l1.36-1.14c.14-.12.26-.26.39-.38l.8-.79a4.11,4.11,0,0,0,.29-.3c.24-.29.49-.57.74-.84s.64-.78.95-1.17c.63-.78,1.27-1.54,1.89-2.32.43-.53.85-1.06,1.26-1.6s.64-.82.92-1.26l.56-.85.35-.52c.29-.51.6-1,.89-1.54s.52-1,.77-1.44.5-.92.76-1.38c.49-.9,1-1.81,1.46-2.73.23-.45.44-.91.66-1.36s.44-1,.67-1.49c.28-.65.53-1.33.79-2l.42-1c.4-.92.8-1.85,1.19-2.77.49-1.13,1-2.25,1.37-3.42.16-.51.34-1,.49-1.53l.46-1.6c.31-1.08.63-2.15.93-3.23a40.18,40.18,0,0,0,1.21-6.71c.1-1,.13-2,.14-3.08,0-.53,0-1.05,0-1.59C575,537.83,575,537,575,536.19Z" />
    <path d="M244,735.56a13.26,13.26,0,0,0-.17-1.53,9.89,9.89,0,0,0-.2-1.11c-.07-.37-.16-.74-.24-1.12-.12-.54-.25-1.08-.38-1.63s-.28-1.18-.45-1.76a11.22,11.22,0,0,0-.49-1.33c-.13-.31-.28-.6-.43-.91s-.41-.72-.62-1.1c-.52-.91-.94-1.87-1.38-2.82s-1-1.83-1.47-2.72c-.3-.51-.59-1-.88-1.54s-.45-.87-.69-1.29-.55-.94-.85-1.4a6.65,6.65,0,0,0-.36-.56c-.27-.36-.53-.74-.82-1.1l-.56-.7-.54-.6a14.47,14.47,0,0,0-1-1.05,27.57,27.57,0,0,0-2.76-2.3,16,16,0,0,0-1.44-1c-.49-.31-1-.61-1.48-.94s-.93-.65-1.41-1a7.46,7.46,0,0,0-1.27-.62l-.77-.32-.5-.22-1.38-.62c-.49-.22-1-.48-1.44-.72s-.82-.45-1.24-.64l-1.53-.67c-.75-.36-1.43-.87-2.18-1.23a18,18,0,0,0-1.86-.8c-.36-.13-.74-.23-1.12-.35a8.07,8.07,0,0,0-1.24-.55,6.65,6.65,0,0,0-1.26-.22l-.22,0c-.34-.1-.69-.16-1-.23l-.49-.2c0-.06-.05-.11-.07-.16-.2-.37-.41-.73-.62-1.1-.51-.91-.94-1.88-1.38-2.82s-.95-1.84-1.47-2.73c-.3-.51-.59-1-.88-1.54s-.45-.87-.69-1.29-.55-.94-.84-1.4c-.12-.19-.24-.38-.37-.56-.27-.36-.53-.74-.82-1.1l-.56-.7c-.17-.21-.36-.4-.54-.6-.32-.36-.67-.71-1-1a29.1,29.1,0,0,0-2.76-2.31,14.57,14.57,0,0,0-1.44-1c-.49-.32-1-.61-1.48-.94s-.93-.66-1.41-1a6.74,6.74,0,0,0-1.27-.61l-.77-.33-.5-.22-1.38-.61c-.49-.23-1-.49-1.44-.73s-.82-.45-1.24-.64l-1.53-.67c-.75-.36-1.43-.86-2.18-1.23a16,16,0,0,0-1.86-.79c-.36-.13-.74-.24-1.12-.35a7.21,7.21,0,0,0-1.24-.55,6,6,0,0,0-1.26-.23l-.22-.05c-.34-.1-.69-.16-1-.23l-.51-.21c-.18-.07-.36-.11-.53-.16l-.73-.21-.06,0c-.46-.21-.92-.4-1.39-.59a5.21,5.21,0,0,0-.66-.24,9.73,9.73,0,0,0-1.52-.41c-.72-.12-1.43-.21-2.15-.3a14.85,14.85,0,0,0-1.49-.06h-.44c-.87,0-1.74,0-2.61.07l-1.67,0c-.5,0-1,0-1.5.07-.22,0-.46.05-.68.07l-.72.07c-.68.08-1.36.16-2,.26l-1.21.17c-.27-.47-.55-1-.81-1.43s-.45-.86-.7-1.28-.54-1-.84-1.41c-.12-.18-.24-.37-.37-.55-.27-.37-.53-.75-.81-1.11l-.57-.69c-.17-.21-.35-.41-.53-.61-.33-.36-.67-.71-1-1a29.22,29.22,0,0,0-2.77-2.31c-.46-.34-.93-.68-1.43-1s-1-.61-1.49-.94-.93-.66-1.4-1a6.83,6.83,0,0,0-1.28-.61c-.25-.11-.51-.21-.76-.33a3.78,3.78,0,0,1-.5-.22l-1.38-.61c-.49-.23-1-.49-1.44-.73s-.83-.44-1.25-.63l-1.52-.68c-.75-.36-1.44-.86-2.19-1.23a15.82,15.82,0,0,0-1.85-.79c-.37-.13-.74-.24-1.12-.35a7.21,7.21,0,0,0-1.24-.55,6.79,6.79,0,0,0-1.26-.22l-.22-.06c-.34-.09-.7-.15-1-.22a4.86,4.86,0,0,0-1-.38l-.72-.21-.06,0c-.46-.21-.92-.4-1.39-.59a5.21,5.21,0,0,0-.66-.24,10.13,10.13,0,0,0-1.53-.4c-.71-.12-1.43-.21-2.15-.3a14.66,14.66,0,0,0-1.48-.07h-.45c-.87,0-1.74.05-2.61.07l-1.66,0c-.51,0-1,0-1.5.06l-.69.07-.71.08c-.68.08-1.36.16-2.05.26-1,.13-2,.27-3.07.44s-2,.35-3,.58-2,.46-3,.75l-1.5.41c-.53.16-1.07.31-1.59.48l-1.63.53c-.51.17-1,.36-1.52.55s-.93.35-1.38.53-1.16.49-1.73.74-.88.39-1.31.6-1.06.5-1.6.77-1,.54-1.54.81a27,27,0,0,0-2.82,1.7,47.81,47.81,0,0,0-4.66,3.87c-.41.37-.8.78-1.19,1.18-.55.56-1.07,1.16-1.56,1.77A30.25,30.25,0,0,0,70,667.37c-.38.66-.72,1.34-1.06,2-.23.46-.48.92-.69,1.4-.43.94-.86,1.89-1.27,2.85l-.75,1.72c-.29.66-.55,1.36-.82,2-.16.4-.31.79-.45,1.2-.21.59-.42,1.17-.62,1.77a3.74,3.74,0,0,0-.12.45L63.88,682c-.11.39-.23.78-.32,1.18-.23,1.06-.48,2.12-.68,3.19s-.42,2.25-.6,3.38-.38,2.29-.56,3.44c-.09.58-.17,1.17-.24,1.75,0,.37-.09.74-.13,1.11,0,.19-.06.39-.08.59-.08,1-.17,2.06-.21,3.1L61,701.59a1.93,1.93,0,0,0,0,.24l-.53-.22a5.21,5.21,0,0,0-.66-.24,10.16,10.16,0,0,0-1.53-.41c-.71-.12-1.43-.21-2.15-.3a14.65,14.65,0,0,0-1.48-.06h-.45c-.87,0-1.74,0-2.61.07l-1.66,0-1.5.07c-.23,0-.46.05-.69.07l-.71.07c-.68.08-1.37.16-2,.26-1,.14-2.05.28-3.07.45s-2,.35-3,.58-2,.46-3.05.74c-.5.14-1,.27-1.5.42s-1.07.31-1.59.48l-1.63.53c-.51.17-1,.36-1.52.54s-.93.36-1.38.54-1.16.49-1.73.74l-1.31.59-1.6.78c-.52.25-1,.54-1.54.81a27,27,0,0,0-2.82,1.7,46.42,46.42,0,0,0-4.66,3.87c-.41.37-.81.77-1.19,1.17-.55.57-1.07,1.17-1.56,1.77A31.53,31.53,0,0,0,9,721c-.38.67-.72,1.35-1.06,2-.23.47-.48.93-.7,1.41-.42.94-.85,1.89-1.26,2.85L5.2,729c-.29.67-.55,1.37-.83,2-.15.4-.3.79-.44,1.2-.21.58-.42,1.17-.62,1.77-.05.15-.09.29-.13.44l-.3,1.15c-.12.39-.23.77-.32,1.17-.23,1.07-.48,2.12-.68,3.2s-.42,2.25-.61,3.38-.37,2.29-.55,3.44c-.09.58-.17,1.17-.24,1.75,0,.37-.09.74-.13,1.11,0,.19-.06.39-.08.58-.08,1-.18,2.07-.21,3.11L0,755.25c0,.14,0,.27,0,.41,0,.39,0,.78,0,1.18s0,.88,0,1.32c0,.69.07,1.39.11,2.08,0,1.17.2,2.32.35,3.48a32,32,0,0,0,1,4.42c.2.69.43,1.37.65,2l.42,1.26c.4,1.13.79,2.26,1.21,3.38A33,33,0,0,0,5.07,778a17.23,17.23,0,0,0,1,1.88,24.51,24.51,0,0,0,1.56,2.08c.53.63,1.11,1.22,1.68,1.81.32.33.64.66,1,1s.78.76,1.19,1.12l1.41,1.24c.4.35.82.68,1.23,1a21.32,21.32,0,0,0,3,2.12c1.05.62,2.13,1.18,3.21,1.74s1.91,1,2.87,1.48,2,1,3,1.42c.59.27,1.19.51,1.79.75l1.25.5c1.06.4,2.12.78,3.19,1.16s1.91.62,2.87.91c.46.13.91.26,1.37.36s1,.25,1.44.35l1.73.36c.2,0,.41.06.62.09l1.1.18c.62.09,1.25.16,1.88.22.44,0,.89.11,1.34.14l1.06.07c.2,0,.41,0,.62,0l1.79,0c.42,0,.85,0,1.28,0s.8-.06,1.21-.09l1.8-.22,1.29-.17c1.13-.17,2.27-.32,3.4-.48.94-.14,1.88-.31,2.81-.54.48-.12,1-.22,1.44-.37s1-.28,1.48-.44l3.22-1.11c.52-.18,1-.39,1.54-.59s1.18-.48,1.76-.75l.75-.32c.2-.09.38-.2.56-.3.46-.24.91-.47,1.35-.73s.91-.53,1.34-.82l1.26-.83c.41-.3.83-.58,1.24-.89.57-.43,1.15-.85,1.69-1.31L79,788.85a4.78,4.78,0,0,0,.39-.39l.81-.78c.1-.09.19-.2.29-.3.24-.29.49-.57.74-.85s.64-.77.95-1.16l.72-.89a21.92,21.92,0,0,0,2.55,1.77c1,.62,2.13,1.18,3.22,1.74s1.91,1,2.86,1.48,2,.95,3,1.42c.59.27,1.19.5,1.79.75.42.17.83.34,1.26.5,1.06.4,2.12.78,3.18,1.16s1.92.62,2.88.91c.45.12.9.25,1.36.36s1,.24,1.44.34l1.73.36.62.1,1.1.17c.63.1,1.25.17,1.88.23.45.05.89.11,1.34.14l1.06.07c.21,0,.41,0,.62,0l1.79,0c.43,0,.86,0,1.28,0s.81-.06,1.21-.09l1.81-.22,1.28-.18,3.4-.48c1-.14,1.89-.31,2.81-.53.48-.12,1-.22,1.44-.37s1-.28,1.48-.45l3.22-1.1,1.55-.59c.59-.22,1.17-.49,1.76-.75l.75-.33c.19-.09.37-.19.55-.29.47-.24.92-.47,1.36-.73s.9-.54,1.34-.82.84-.55,1.25-.84.84-.58,1.24-.88c.57-.44,1.15-.85,1.7-1.31l1.36-1.15c.14-.12.26-.26.39-.38l.8-.78a2.87,2.87,0,0,0,.29-.31c.24-.28.49-.57.74-.84s.64-.78,1-1.17c.63-.78,1.27-1.54,1.89-2.32l.39-.49c.36.4.74.79,1.11,1.18s.64.65,1,1,.77.77,1.19,1.13l1.4,1.23c.4.35.82.68,1.23,1a23.81,23.81,0,0,0,3,2.12c1.05.62,2.13,1.18,3.22,1.74s1.91,1,2.87,1.48,2,.95,3,1.42c.58.27,1.19.5,1.78.75.42.17.83.34,1.26.5,1.06.4,2.12.78,3.18,1.16s1.92.62,2.88.91c.45.12.9.25,1.36.36s1,.24,1.44.34l1.73.36.62.1,1.1.17c.63.1,1.25.17,1.88.23.45.05.9.11,1.35.14l1.05.07c.21,0,.42,0,.62,0l1.79,0c.43,0,.86,0,1.28,0s.81-.06,1.21-.09l1.81-.22,1.28-.18,3.41-.48c.94-.14,1.88-.31,2.8-.53.49-.12,1-.22,1.44-.37s1-.28,1.48-.45l3.23-1.1,1.54-.59c.59-.22,1.17-.49,1.76-.75l.75-.33c.19-.09.37-.19.55-.29.47-.24.92-.47,1.36-.73s.9-.54,1.34-.82.84-.55,1.25-.84.84-.58,1.25-.88,1.15-.85,1.69-1.31l1.36-1.15c.14-.12.26-.26.39-.38s.53-.52.8-.78a2.13,2.13,0,0,0,.29-.31l.74-.84c.33-.38.64-.78,1-1.17.62-.78,1.26-1.54,1.88-2.32.43-.53.85-1.05,1.26-1.6s.64-.82.92-1.25l.56-.85c.12-.18.24-.35.35-.53.29-.51.6-1,.89-1.53s.52-1,.77-1.44.5-.92.76-1.39c.49-.9,1-1.81,1.46-2.72.23-.45.44-.92.66-1.37s.45-1,.67-1.49c.28-.65.53-1.32.8-2,.13-.33.27-.67.41-1l1.2-2.78c.49-1.12,1-2.25,1.36-3.42.17-.51.34-1,.49-1.53l.46-1.6c.31-1.07.63-2.14.93-3.22a41.36,41.36,0,0,0,1.22-6.72c.09-1,.12-2,.13-3.08,0-.53,0-1.05,0-1.58C244,737.19,244,736.37,244,735.56Z" />
    <path d="M1320,88.63a13,13,0,0,0-.17-1.53,9.88,9.88,0,0,0-.19-1.11c-.08-.38-.16-.75-.25-1.12-.12-.54-.25-1.09-.38-1.63s-.28-1.18-.45-1.77a11.76,11.76,0,0,0-.49-1.32c-.13-.31-.28-.61-.43-.91s-.41-.72-.62-1.1c-.51-.91-.93-1.87-1.38-2.82s-1-1.83-1.47-2.72c-.3-.51-.59-1-.88-1.54s-.45-.87-.69-1.29-.55-.94-.84-1.4c-.12-.19-.24-.38-.37-.56-.27-.37-.53-.74-.82-1.1L1310,66c-.17-.21-.36-.41-.54-.6a12.64,12.64,0,0,0-1-1,29.1,29.1,0,0,0-2.76-2.31,16.54,16.54,0,0,0-1.44-1c-.49-.31-1-.61-1.48-.94s-.93-.66-1.41-1a7.46,7.46,0,0,0-1.27-.62l-.77-.33a5.44,5.44,0,0,1-.5-.22l-1.38-.61c-.49-.22-1-.48-1.44-.72s-.82-.45-1.24-.64-1-.46-1.53-.67c-.75-.36-1.43-.87-2.18-1.24a17.89,17.89,0,0,0-1.86-.79c-.36-.13-.74-.23-1.12-.35a8.07,8.07,0,0,0-1.24-.55,6.65,6.65,0,0,0-1.26-.22l-.22-.06c-.34-.09-.69-.15-1-.22a3.26,3.26,0,0,0-.48-.2l-.08-.17c-.2-.37-.41-.72-.62-1.09-.51-.92-.93-1.88-1.38-2.83s-1-1.83-1.47-2.72l-.88-1.54c-.23-.42-.45-.87-.69-1.29s-.55-.94-.84-1.4c-.12-.19-.24-.38-.37-.56-.27-.36-.53-.74-.82-1.1l-.56-.7c-.17-.21-.36-.4-.54-.6a12.52,12.52,0,0,0-1-1,27.67,27.67,0,0,0-2.76-2.31,14.65,14.65,0,0,0-1.44-1c-.48-.31-1-.6-1.48-.93s-.93-.66-1.41-1a6.74,6.74,0,0,0-1.27-.61l-.77-.33-.5-.22-1.38-.62c-.49-.22-1-.48-1.44-.72s-.82-.45-1.24-.64-1-.45-1.53-.67c-.74-.36-1.43-.86-2.18-1.23a18,18,0,0,0-1.86-.8c-.36-.13-.74-.23-1.12-.35a8.35,8.35,0,0,0-1.23-.54,6.16,6.16,0,0,0-1.27-.23l-.21-.05c-.35-.1-.7-.16-1-.23l-.51-.21c-.18-.07-.36-.12-.53-.17l-.73-.2-.06,0c-.46-.21-.92-.4-1.39-.59a5.07,5.07,0,0,0-.65-.24,10.16,10.16,0,0,0-1.53-.41c-.71-.12-1.43-.21-2.15-.3-.49-.05-1-.06-1.49-.07h-.44c-.87,0-1.74,0-2.61.07l-1.67,0c-.5,0-1,.05-1.5.07-.22,0-.46.05-.68.07l-.71.07c-.69.08-1.37.16-2,.26l-1.21.17c-.27-.47-.55-1-.81-1.43s-.45-.87-.7-1.29-.54-.94-.84-1.4c-.11-.19-.24-.38-.37-.56-.27-.36-.53-.74-.81-1.1l-.56-.7-.54-.6c-.33-.36-.67-.71-1-1a30.41,30.41,0,0,0-2.76-2.31,17.38,17.38,0,0,0-1.44-1c-.49-.32-1-.61-1.49-.94s-.92-.66-1.4-1a6.83,6.83,0,0,0-1.28-.61l-.76-.33-.5-.22-1.38-.61c-.49-.23-1-.49-1.44-.73s-.83-.45-1.25-.64l-1.52-.67c-.75-.36-1.44-.86-2.19-1.23a15.82,15.82,0,0,0-1.85-.79c-.37-.13-.74-.24-1.12-.35a7.21,7.21,0,0,0-1.24-.55A6.07,6.07,0,0,0,1202,2.5l-.22,0c-.34-.1-.7-.16-1-.23-.17-.08-.35-.15-.52-.21a3.45,3.45,0,0,0-.52-.16l-.73-.21-.06,0c-.46-.21-.92-.4-1.39-.59a5.21,5.21,0,0,0-.66-.24,10.16,10.16,0,0,0-1.53-.41c-.71-.12-1.42-.21-2.15-.3a14.65,14.65,0,0,0-1.48-.06h-.45c-.87,0-1.74,0-2.61.07l-1.66,0c-.5,0-1,.05-1.5.07-.23,0-.46.05-.69.07l-.71.07c-.68.08-1.36.16-2,.26-1,.14-2.06.28-3.08.45s-2,.35-3,.58-2.05.46-3.06.74l-1.5.42c-.53.16-1.07.31-1.59.48l-1.63.53c-.51.17-1,.36-1.52.54s-.93.36-1.38.54-1.16.49-1.73.74-.88.38-1.31.59L1160.6,7c-.53.25-1,.54-1.55.81a27,27,0,0,0-2.82,1.7,46.42,46.42,0,0,0-4.66,3.87c-.41.37-.8.77-1.19,1.17-.55.57-1.06,1.17-1.56,1.77a31.53,31.53,0,0,0-2.83,4.14c-.37.67-.72,1.35-1.06,2-.23.47-.48.93-.69,1.4-.43.95-.86,1.9-1.27,2.86-.25.57-.5,1.13-.75,1.71s-.55,1.36-.82,2c-.16.4-.31.79-.45,1.2-.21.58-.41,1.17-.62,1.77,0,.15-.08.29-.12.44L1139.9,35c-.11.39-.23.77-.32,1.17-.23,1.07-.48,2.12-.68,3.2s-.41,2.25-.6,3.38-.38,2.29-.56,3.44c-.09.58-.16,1.17-.24,1.75,0,.37-.09.74-.13,1.11,0,.19-.06.39-.08.58-.08,1-.17,2.07-.21,3.11l-.06,1.89c0,.08,0,.16,0,.24l-.53-.22a5.21,5.21,0,0,0-.66-.24,10.16,10.16,0,0,0-1.53-.41c-.71-.12-1.43-.21-2.15-.3-.49,0-1-.06-1.48-.07h-.45c-.87,0-1.74,0-2.61.07l-1.66,0c-.51,0-1,0-1.5.07-.23,0-.46,0-.69.07l-.71.07c-.68.08-1.36.16-2,.26-1,.14-2,.28-3.07.45s-2,.35-3,.58-2,.46-3.05.74l-1.5.42c-.53.16-1.07.31-1.59.48l-1.63.52c-.51.17-1,.37-1.52.55s-.93.36-1.38.54l-1.73.73c-.44.2-.88.39-1.31.6l-1.6.78c-.52.25-1,.53-1.54.81a28.8,28.8,0,0,0-2.82,1.69,47.91,47.91,0,0,0-4.66,3.88c-.41.37-.8.77-1.19,1.17-.55.57-1.07,1.17-1.56,1.77a31.53,31.53,0,0,0-2.83,4.14c-.38.67-.72,1.34-1.06,2-.23.47-.48.93-.69,1.4-.43.95-.86,1.9-1.27,2.86q-.37.84-.75,1.71c-.29.67-.55,1.36-.82,2-.16.4-.31.79-.45,1.19l-.62,1.77a3.74,3.74,0,0,0-.12.45l-.31,1.14c-.11.39-.23.78-.32,1.18-.23,1.06-.48,2.12-.68,3.19s-.42,2.26-.6,3.39-.38,2.29-.56,3.44c-.09.58-.17,1.16-.24,1.75,0,.37-.09.74-.13,1.1,0,.2-.06.4-.08.59-.08,1-.17,2.07-.21,3.11,0,.62,0,1.26-.06,1.89,0,.13,0,.27,0,.4,0,.4,0,.79,0,1.19s0,.87,0,1.31c0,.7.07,1.39.11,2.09.06,1.16.2,2.32.36,3.47a30.4,30.4,0,0,0,1,4.43c.2.69.43,1.37.65,2l.42,1.26c.4,1.13.8,2.25,1.21,3.38a33,33,0,0,0,1.31,3.14,17.87,17.87,0,0,0,1,1.87,24.66,24.66,0,0,0,1.56,2.09c.53.63,1.11,1.22,1.68,1.81.32.33.64.66,1,1s.78.76,1.19,1.12l1.41,1.23c.4.35.82.68,1.23,1a22.17,22.17,0,0,0,3,2.12c1,.62,2.13,1.18,3.21,1.74s1.91,1,2.87,1.48,2,1,3,1.42c.59.27,1.19.5,1.79.75l1.25.5c1.06.4,2.12.78,3.19,1.16s1.91.62,2.88.91c.45.13.9.26,1.36.36s1,.25,1.44.35l1.73.35.62.1,1.1.17c.62.1,1.25.17,1.88.23.45.05.89.11,1.34.14l1.06.07c.2,0,.41,0,.62,0l1.79,0c.43,0,.86,0,1.28,0s.8-.06,1.21-.09l1.8-.22,1.29-.18,3.4-.47c1-.15,1.88-.31,2.81-.54.48-.12,1-.22,1.44-.37s1-.28,1.48-.45l3.22-1.1c.52-.18,1-.39,1.54-.59s1.18-.49,1.76-.75l.75-.32c.2-.09.38-.2.56-.3.46-.24.91-.47,1.36-.73s.9-.54,1.34-.82l1.25-.83,1.24-.89c.57-.43,1.15-.85,1.69-1.31l1.36-1.14c.14-.12.27-.26.4-.39l.8-.78c.1-.09.19-.2.29-.31l.74-.84c.33-.38.64-.78,1-1.17l.72-.88a23.22,23.22,0,0,0,2.55,1.77c1,.62,2.13,1.18,3.22,1.73l2.87,1.48c1,.51,2,1,3,1.43.58.27,1.19.5,1.78.74.42.18.83.35,1.26.51,1.06.4,2.12.78,3.18,1.16s1.92.62,2.88.9c.45.13.9.26,1.36.37s1,.24,1.44.34l1.73.36.62.1,1.1.17c.63.09,1.25.16,1.88.23.45,0,.9.1,1.34.13l1.06.07c.21,0,.42,0,.62,0l1.79,0c.43,0,.86,0,1.28-.05s.81-.05,1.21-.09l1.81-.22,1.28-.17,3.41-.48c.94-.14,1.88-.31,2.8-.53.49-.12,1-.23,1.44-.37s1-.28,1.48-.45l3.22-1.1,1.55-.59c.59-.22,1.17-.49,1.76-.75l.75-.33c.19-.09.37-.19.55-.29.47-.24.92-.48,1.36-.74s.9-.53,1.34-.81.84-.55,1.25-.84.84-.58,1.24-.88c.57-.44,1.16-.85,1.7-1.32l1.36-1.14c.14-.12.26-.26.39-.38l.8-.79a2.06,2.06,0,0,0,.29-.3l.74-.84c.33-.38.64-.78,1-1.17.62-.78,1.26-1.54,1.88-2.32l.39-.5c.37.4.74.8,1.11,1.18s.64.66,1,1,.78.76,1.19,1.12l1.4,1.24c.41.35.83.68,1.23,1a23.59,23.59,0,0,0,3,2.13c1,.62,2.14,1.18,3.22,1.73l2.87,1.48c1,.51,2,1,3,1.43.58.27,1.19.5,1.78.74.42.18.83.35,1.26.51,1.06.4,2.12.78,3.18,1.16s1.92.62,2.88.9c.46.13.9.26,1.36.37s1,.24,1.45.34,1.15.24,1.72.36l.62.1,1.1.17c.63.09,1.25.16,1.88.23.45,0,.9.1,1.35.13l1.06.07c.2,0,.41,0,.61,0l1.79,0c.43,0,.86,0,1.28-.05s.81-.05,1.22-.09l1.8-.22,1.28-.17,3.41-.48c.94-.14,1.88-.31,2.8-.53.49-.12,1-.23,1.44-.37s1-.28,1.48-.45l3.23-1.1,1.54-.59c.59-.22,1.17-.49,1.76-.75l.75-.33.56-.29c.46-.24.91-.48,1.35-.74s.91-.53,1.34-.81.84-.55,1.25-.84.84-.58,1.25-.88c.56-.44,1.15-.85,1.69-1.32l1.36-1.14c.14-.12.26-.26.39-.38l.8-.79a2.06,2.06,0,0,0,.29-.3l.74-.84c.33-.38.64-.78,1-1.17.62-.78,1.26-1.54,1.88-2.32.43-.53.85-1.06,1.26-1.6s.64-.82.92-1.26l.56-.84c.12-.18.24-.35.35-.53.29-.51.6-1,.89-1.53s.52-1,.77-1.45.51-.91.76-1.38c.49-.9,1-1.81,1.46-2.72.24-.45.44-.92.67-1.37s.44-1,.66-1.49c.28-.65.53-1.32.8-2l.41-1,1.2-2.77c.49-1.13,1-2.25,1.36-3.42.17-.51.34-1,.5-1.53l.45-1.6c.31-1.07.63-2.15.93-3.22a41.36,41.36,0,0,0,1.22-6.72c.09-1,.12-2,.13-3.08,0-.53,0-1,0-1.58C1320,90.26,1320,89.44,1320,88.63Z" />
    <path d="M1212.12,343.57c0-.51-.1-1-.17-1.53a10.78,10.78,0,0,0-.2-1.11c-.07-.37-.16-.74-.24-1.11-.12-.54-.25-1.09-.38-1.64s-.28-1.17-.45-1.76a10.47,10.47,0,0,0-.49-1.32c-.13-.32-.28-.61-.43-.92l-.62-1.09c-.52-.92-.94-1.88-1.38-2.83s-1-1.83-1.47-2.72c-.3-.51-.59-1-.88-1.54s-.45-.87-.69-1.29-.55-.94-.85-1.4a6.65,6.65,0,0,0-.36-.56c-.27-.36-.54-.74-.82-1.1l-.56-.7-.54-.6c-.32-.36-.67-.71-1-1a27.67,27.67,0,0,0-2.76-2.31,15.22,15.22,0,0,0-1.44-1c-.49-.32-1-.61-1.48-.94s-.93-.66-1.41-1a6.74,6.74,0,0,0-1.27-.61l-.77-.33-.5-.22-1.38-.62c-.49-.22-1-.48-1.44-.72s-.82-.45-1.24-.64l-1.53-.67c-.75-.36-1.43-.86-2.18-1.23a18,18,0,0,0-1.86-.8c-.36-.12-.74-.23-1.12-.34a7.21,7.21,0,0,0-1.24-.55,6,6,0,0,0-1.26-.23l-.22,0c-.34-.1-.69-.16-1-.23l-.49-.2-.07-.16c-.2-.37-.41-.72-.62-1.1-.52-.91-.94-1.87-1.38-2.82s-.95-1.83-1.47-2.72c-.3-.51-.59-1-.88-1.55s-.45-.86-.69-1.28-.55-1-.85-1.4a6.65,6.65,0,0,0-.36-.56c-.27-.37-.53-.75-.82-1.11l-.56-.69-.54-.61c-.32-.36-.67-.71-1-1a29.1,29.1,0,0,0-2.76-2.31c-.47-.34-.93-.68-1.44-1s-1-.61-1.48-.94-.93-.66-1.41-1a6.74,6.74,0,0,0-1.27-.61c-.26-.11-.52-.21-.77-.33a4.46,4.46,0,0,1-.5-.22l-1.38-.61c-.49-.23-1-.49-1.44-.72s-.82-.45-1.24-.64-1-.46-1.53-.68c-.75-.36-1.43-.86-2.18-1.23a16,16,0,0,0-1.86-.79c-.36-.13-.74-.24-1.12-.35a8.07,8.07,0,0,0-1.24-.55,6.65,6.65,0,0,0-1.26-.22l-.22-.06c-.34-.09-.69-.15-1-.22-.17-.08-.34-.16-.51-.22s-.36-.11-.53-.16l-.73-.21-.06,0c-.46-.21-.92-.4-1.39-.59-.22-.09-.43-.17-.66-.24a9.7,9.7,0,0,0-1.52-.4c-.72-.12-1.43-.21-2.15-.3a14.86,14.86,0,0,0-1.49-.07h-.44c-.87,0-1.74,0-2.61.07l-1.67,0-1.5.06-.68.07-.72.08c-.68.08-1.36.16-2,.26l-1.21.16c-.27-.47-.55-1-.81-1.42s-.45-.87-.7-1.29-.54-.94-.84-1.4c-.12-.19-.24-.38-.37-.56-.27-.37-.53-.74-.81-1.1l-.57-.7c-.17-.21-.35-.41-.53-.6q-.49-.56-1-1a29.22,29.22,0,0,0-2.77-2.31c-.46-.34-.93-.68-1.43-1s-1-.61-1.49-.94-.93-.66-1.4-1a7.56,7.56,0,0,0-1.28-.62c-.25-.11-.51-.21-.76-.33a3.78,3.78,0,0,1-.5-.22l-1.38-.61c-.49-.22-1-.48-1.44-.72s-.83-.45-1.25-.64-1-.46-1.52-.67c-.75-.36-1.44-.87-2.19-1.24a17,17,0,0,0-1.86-.79c-.36-.13-.74-.23-1.11-.35a8.52,8.52,0,0,0-1.24-.55,6.79,6.79,0,0,0-1.26-.22l-.22-.06c-.34-.09-.7-.15-1.05-.22-.17-.08-.34-.16-.51-.22a4.64,4.64,0,0,0-.53-.16l-.72-.2-.06,0c-.46-.21-.92-.41-1.39-.6-.22-.09-.43-.17-.66-.24a10.13,10.13,0,0,0-1.53-.4c-.71-.12-1.43-.21-2.15-.3a14.66,14.66,0,0,0-1.48-.07h-.45c-.87,0-1.74.05-2.61.07l-1.66.05c-.51,0-1,0-1.5.06l-.69.07-.71.08c-.68.08-1.36.16-2,.26-1,.13-2.05.28-3.07.45s-2,.35-3,.58-2,.45-3,.74l-1.5.41c-.53.16-1.07.31-1.59.48l-1.63.53c-.51.17-1,.36-1.52.55s-.93.36-1.38.54-1.16.48-1.73.73-.88.39-1.31.6l-1.6.77c-.52.25-1,.54-1.54.82a27,27,0,0,0-2.82,1.69,46.52,46.52,0,0,0-4.66,3.88c-.41.36-.8.77-1.19,1.17q-.82.86-1.56,1.77a30.25,30.25,0,0,0-2.83,4.14c-.38.66-.72,1.34-1.06,2-.23.46-.48.93-.7,1.4-.42.95-.85,1.89-1.26,2.85l-.75,1.72c-.29.67-.55,1.36-.82,2.05-.16.4-.31.79-.45,1.19-.21.59-.42,1.18-.62,1.77a3.74,3.74,0,0,0-.12.45L1032,290c-.12.39-.23.78-.32,1.18-.23,1.06-.48,2.12-.68,3.19s-.42,2.25-.61,3.39-.37,2.29-.55,3.43c-.09.59-.17,1.17-.24,1.75,0,.38-.09.74-.13,1.11,0,.19-.06.39-.08.59-.08,1-.18,2.06-.21,3.1l-.06,1.89a2,2,0,0,0,0,.25l-.53-.23c-.22-.09-.43-.17-.66-.24a10.13,10.13,0,0,0-1.53-.4c-.71-.12-1.43-.21-2.15-.3a14.66,14.66,0,0,0-1.48-.07h-.45c-.87,0-1.74,0-2.61.07l-1.66.05c-.51,0-1,0-1.5.06l-.69.07-.71.08c-.68.08-1.37.16-2,.26-1,.13-2,.28-3.07.45s-2,.34-3,.57-2,.46-3,.75l-1.5.41c-.54.16-1.07.31-1.6.48l-1.62.53c-.51.17-1,.36-1.52.55s-.93.36-1.38.54-1.16.48-1.73.73-.88.39-1.31.6l-1.6.77c-.52.25-1,.54-1.54.81a27.75,27.75,0,0,0-2.82,1.7,47.81,47.81,0,0,0-4.66,3.87c-.41.37-.81.78-1.19,1.18q-.82.86-1.56,1.77a29.38,29.38,0,0,0-2.83,4.14c-.38.66-.72,1.34-1.06,2-.23.46-.48.92-.7,1.4-.42,1-.85,1.89-1.26,2.85-.26.57-.5,1.14-.75,1.72s-.55,1.36-.83,2.05c-.16.4-.31.78-.45,1.19-.2.59-.41,1.17-.61,1.77-.05.15-.09.3-.13.45l-.31,1.14c-.11.39-.22.78-.31,1.18-.23,1.06-.48,2.12-.68,3.19s-.42,2.25-.61,3.39-.37,2.28-.55,3.43c-.09.59-.17,1.17-.24,1.75,0,.38-.09.74-.13,1.11,0,.19-.06.39-.08.59-.08,1-.18,2.06-.21,3.1l-.06,1.89c0,.14,0,.27,0,.41,0,.39,0,.79,0,1.18s0,.88,0,1.32c0,.69.07,1.39.11,2.08.05,1.17.19,2.32.35,3.48a32,32,0,0,0,1,4.42c.2.69.43,1.37.65,2.05l.42,1.25c.4,1.13.79,2.26,1.21,3.38a32.15,32.15,0,0,0,1.31,3.15,18.08,18.08,0,0,0,1,1.87,23,23,0,0,0,1.56,2.08c.53.64,1.11,1.22,1.68,1.81.32.34.64.66,1,1s.78.76,1.19,1.12l1.41,1.24c.4.35.82.68,1.23,1a22.8,22.8,0,0,0,3,2.13c1.05.62,2.14,1.17,3.22,1.73l2.87,1.48c1,.51,2,1,3,1.42.59.27,1.19.51,1.78.75l1.26.51c1.06.4,2.12.77,3.19,1.15s1.91.63,2.87.91c.46.13.91.26,1.37.37s1,.24,1.44.34l1.73.36c.2,0,.41.06.61.09l1.11.18c.62.09,1.25.16,1.87.23.45.05.9.1,1.35.13l1.06.07c.2,0,.41,0,.62,0l1.79,0c.42,0,.85,0,1.27-.05s.81,0,1.22-.09l1.8-.22,1.28-.17,3.41-.48c.94-.14,1.88-.31,2.81-.53.48-.12,1-.23,1.44-.37s1-.28,1.48-.45l3.22-1.1,1.54-.59c.6-.22,1.18-.49,1.76-.76l.75-.32c.2-.09.38-.19.56-.29.46-.24.91-.48,1.35-.74s.91-.53,1.34-.82.84-.54,1.26-.83.83-.58,1.24-.89c.57-.43,1.15-.84,1.69-1.31l1.36-1.14c.14-.12.27-.26.39-.38l.81-.79c.1-.09.19-.2.29-.3.24-.29.49-.57.74-.84s.64-.78.95-1.17l.72-.89a21.92,21.92,0,0,0,2.55,1.77c1.05.62,2.13,1.18,3.22,1.74s1.91,1,2.86,1.48,2,1,3,1.42c.59.27,1.19.5,1.79.75.41.17.83.34,1.26.5,1.06.4,2.11.78,3.18,1.16s1.91.62,2.88.91c.45.13.9.26,1.36.36s1,.25,1.44.35l1.73.36c.2,0,.42,0,.62.09l1.1.17c.63.1,1.25.17,1.88.23.45.05.89.11,1.34.14l1.06.07c.21,0,.41,0,.62,0l1.79,0c.43,0,.86,0,1.28-.05s.81-.06,1.21-.09l1.81-.22,1.28-.18,3.4-.47c1-.14,1.89-.31,2.81-.54.48-.12,1-.22,1.44-.37s1-.28,1.48-.45l3.22-1.1c.52-.18,1-.39,1.55-.59s1.17-.49,1.76-.75l.75-.32c.19-.09.37-.2.55-.3.47-.24.92-.47,1.36-.73s.9-.54,1.34-.82l1.25-.83c.42-.3.84-.59,1.24-.89.57-.43,1.15-.85,1.7-1.31l1.36-1.14c.14-.12.26-.26.39-.39l.8-.78a2.87,2.87,0,0,0,.29-.31l.74-.84c.33-.38.64-.78,1-1.16l1.89-2.32.39-.5c.36.4.74.79,1.11,1.18s.64.66,1,1,.78.76,1.19,1.12l1.41,1.24c.4.34.82.67,1.23,1a22.82,22.82,0,0,0,3,2.12c1.05.62,2.13,1.18,3.22,1.74l2.87,1.48c1,.5,2,1,3,1.42.58.27,1.18.5,1.78.75.42.17.83.34,1.26.5,1.06.4,2.12.78,3.18,1.16s1.92.62,2.88.91c.45.13.9.26,1.36.36s1,.25,1.44.35,1.16.23,1.73.36c.2,0,.42,0,.62.09l1.1.17c.63.1,1.25.17,1.88.23.45.05.89.11,1.34.14l1.06.07c.21,0,.42,0,.62,0l1.79,0c.43,0,.86,0,1.28-.05s.81-.06,1.21-.09l1.81-.22,1.28-.18,3.41-.47c.94-.14,1.88-.31,2.8-.54.48-.12,1-.22,1.44-.37s1-.28,1.48-.45l3.22-1.1c.52-.18,1-.39,1.55-.59s1.17-.49,1.76-.75l.75-.32c.19-.09.37-.2.55-.3.47-.24.92-.47,1.36-.73s.9-.54,1.34-.82l1.25-.83c.42-.3.84-.59,1.24-.89.57-.43,1.16-.85,1.7-1.31l1.36-1.14c.14-.12.26-.26.39-.39l.8-.78a2.13,2.13,0,0,0,.29-.31l.74-.84c.33-.38.64-.78,1-1.16l1.89-2.32c.43-.54.85-1.06,1.26-1.6s.64-.83.92-1.26l.56-.85c.12-.17.24-.34.35-.52.29-.52.6-1,.89-1.54s.52-1,.77-1.44.5-.92.76-1.38c.49-.9,1-1.81,1.46-2.73.23-.45.44-.92.66-1.37s.44-1,.67-1.48c.28-.66.53-1.33.8-2,.13-.33.27-.68.41-1l1.2-2.77c.48-1.13,1-2.26,1.36-3.43.16-.5.34-1,.49-1.53s.31-1.06.46-1.6c.31-1.07.63-2.14.93-3.22a41.36,41.36,0,0,0,1.22-6.72c.09-1,.12-2.05.13-3.07,0-.54,0-1.06,0-1.59C1212.14,345.2,1212.16,344.38,1212.12,343.57Z" />
    <path d="M819,204.57c0-.51-.1-1-.17-1.53s-.12-.74-.2-1.11-.16-.74-.24-1.11c-.12-.54-.26-1.09-.38-1.64s-.28-1.17-.45-1.76a12.29,12.29,0,0,0-.49-1.32c-.14-.32-.28-.61-.43-.92s-.42-.72-.62-1.09c-.52-.92-.94-1.88-1.38-2.83s-1-1.83-1.47-2.72c-.3-.51-.59-1-.88-1.54s-.45-.87-.7-1.29-.54-.94-.84-1.4a6.65,6.65,0,0,0-.36-.56c-.28-.36-.54-.74-.82-1.1L809,182c-.18-.21-.36-.4-.54-.6-.32-.36-.67-.71-1-1a28.86,28.86,0,0,0-2.76-2.31,15.22,15.22,0,0,0-1.44-1c-.49-.32-1-.61-1.48-.94s-.93-.66-1.41-1a6.74,6.74,0,0,0-1.27-.61l-.77-.33-.5-.22c-.47-.2-.92-.41-1.38-.62s-1-.48-1.44-.72-.82-.45-1.24-.64l-1.53-.67c-.75-.36-1.44-.86-2.19-1.23a16.92,16.92,0,0,0-1.85-.8l-1.12-.34a7.21,7.21,0,0,0-1.24-.55,6.07,6.07,0,0,0-1.26-.23l-.22-.05c-.34-.1-.69-.16-1-.23l-.49-.2-.07-.16c-.2-.37-.42-.72-.62-1.1-.52-.91-.94-1.87-1.38-2.82s-1-1.83-1.47-2.72c-.3-.51-.59-1-.88-1.55s-.45-.86-.69-1.28-.55-.95-.85-1.4a6.65,6.65,0,0,0-.36-.56c-.28-.37-.54-.75-.82-1.11l-.56-.69-.54-.61c-.32-.36-.67-.71-1-1a29.1,29.1,0,0,0-2.76-2.31c-.47-.34-.94-.68-1.44-1s-1-.61-1.48-.94-.93-.66-1.41-1a6.74,6.74,0,0,0-1.27-.61c-.26-.11-.52-.21-.77-.33a4.46,4.46,0,0,1-.5-.22l-1.38-.61c-.49-.23-1-.49-1.44-.72s-.82-.45-1.24-.64l-1.53-.68c-.75-.36-1.43-.86-2.18-1.23a16,16,0,0,0-1.86-.79c-.36-.13-.74-.24-1.12-.35a8.07,8.07,0,0,0-1.24-.55,6.65,6.65,0,0,0-1.26-.22l-.22-.06c-.34-.09-.69-.15-1-.22-.17-.08-.35-.16-.52-.22a5.16,5.16,0,0,0-.52-.16l-.73-.21-.06,0c-.46-.21-.92-.4-1.39-.59-.22-.09-.43-.17-.66-.24a9.82,9.82,0,0,0-1.53-.4c-.71-.12-1.42-.21-2.14-.3-.5-.06-1-.06-1.49-.07h-.44c-.87,0-1.75.05-2.62.07l-1.66.05c-.5,0-1,0-1.5.06l-.69.07-.71.08c-.68.08-1.36.16-2,.26l-1.21.16c-.28-.47-.55-.95-.81-1.42s-.45-.87-.7-1.29-.55-.94-.84-1.4c-.12-.19-.24-.38-.37-.56-.27-.37-.53-.74-.82-1.1l-.56-.7c-.17-.21-.36-.41-.53-.6a14.6,14.6,0,0,0-1-1.05,29.1,29.1,0,0,0-2.76-2.31c-.46-.34-.93-.68-1.43-1s-1-.61-1.49-.94-.93-.66-1.41-1a7.11,7.11,0,0,0-1.27-.62c-.25-.11-.51-.21-.76-.33a4.61,4.61,0,0,1-.51-.22l-1.37-.61c-.49-.22-1-.48-1.45-.72s-.82-.45-1.24-.64-1-.46-1.52-.67c-.75-.36-1.44-.87-2.19-1.24a17,17,0,0,0-1.86-.79c-.36-.13-.74-.23-1.11-.35a9,9,0,0,0-1.24-.55,6.79,6.79,0,0,0-1.26-.22l-.22-.06c-.35-.09-.7-.15-1-.22-.17-.08-.34-.16-.51-.22a4.64,4.64,0,0,0-.53-.16l-.72-.2-.07,0c-.46-.21-.91-.41-1.38-.6-.22-.09-.43-.17-.66-.24a10.13,10.13,0,0,0-1.53-.4c-.71-.12-1.43-.21-2.15-.3a14.66,14.66,0,0,0-1.48-.07h-.45c-.87,0-1.74,0-2.61.07l-1.66,0c-.51,0-1,0-1.5.06l-.69.07-.71.08c-.68.08-1.37.16-2,.26-1,.13-2,.28-3.07.45s-2,.35-3,.58-2,.45-3,.74l-1.5.41c-.54.16-1.07.31-1.6.48l-1.62.53c-.51.17-1,.36-1.52.55s-.93.36-1.38.54-1.16.48-1.73.73-.88.39-1.31.6l-1.6.77c-.52.25-1,.54-1.54.82a26,26,0,0,0-2.82,1.69,46.52,46.52,0,0,0-4.66,3.88c-.41.36-.81.77-1.19,1.17q-.82.85-1.56,1.77a29.38,29.38,0,0,0-2.83,4.14c-.38.66-.72,1.34-1.06,2-.23.46-.48.93-.7,1.4-.42.95-.85,1.89-1.26,2.85-.26.57-.5,1.14-.75,1.72s-.55,1.36-.83,2c-.16.4-.31.79-.45,1.19l-.61,1.77c-.05.15-.09.3-.13.45l-.31,1.14c-.11.39-.22.78-.31,1.18-.23,1.06-.48,2.12-.68,3.19s-.42,2.25-.61,3.39-.37,2.29-.55,3.43c-.09.59-.17,1.17-.24,1.75,0,.38-.09.74-.14,1.11,0,.19-.05.39-.07.59-.08,1-.18,2.06-.21,3.1L636,170.6v.25l-.53-.23c-.21-.09-.43-.17-.65-.24a10.13,10.13,0,0,0-1.53-.4c-.71-.12-1.43-.21-2.15-.3a14.66,14.66,0,0,0-1.48-.07h-.45c-.87,0-1.74.05-2.61.07l-1.67.05c-.5,0-1,0-1.5.06l-.68.07-.71.08c-.69.08-1.37.16-2,.26-1,.13-2,.28-3.08.45s-2,.34-3,.57-2,.46-3.06.75l-1.5.41-1.59.48-1.62.53c-.51.17-1,.36-1.53.55s-.92.36-1.37.54-1.16.48-1.73.73-.88.39-1.31.6l-1.6.77c-.52.25-1,.54-1.55.81a28.75,28.75,0,0,0-2.81,1.7,46.65,46.65,0,0,0-4.66,3.87c-.42.37-.81.78-1.19,1.18q-.82.85-1.56,1.77A29.38,29.38,0,0,0,584,190c-.38.66-.72,1.34-1.06,2-.23.46-.48.92-.7,1.4-.42.95-.85,1.89-1.27,2.85-.25.57-.49,1.14-.74,1.72s-.55,1.36-.83,2.05c-.16.4-.31.78-.45,1.19-.2.59-.41,1.17-.62,1.77l-.12.45-.31,1.14c-.11.39-.22.78-.31,1.18-.23,1.06-.48,2.12-.68,3.19s-.42,2.25-.61,3.39-.37,2.28-.55,3.43c-.1.59-.17,1.17-.24,1.75,0,.38-.09.74-.14,1.11,0,.19-.05.39-.07.59-.08,1-.18,2.06-.21,3.1l-.06,1.89v.41c0,.39,0,.79,0,1.18s0,.88,0,1.32c0,.69.08,1.39.11,2.08.06,1.17.2,2.32.36,3.48a30.59,30.59,0,0,0,1,4.42c.19.69.43,1.37.65,2,.14.42.27.84.42,1.25.4,1.13.79,2.26,1.2,3.38s.82,2.13,1.32,3.15a18.08,18.08,0,0,0,1,1.87,21.28,21.28,0,0,0,1.56,2.08c.53.64,1.1,1.22,1.68,1.81.31.34.63.66,1,1s.78.76,1.19,1.12l1.41,1.24c.4.35.82.68,1.22,1a23.59,23.59,0,0,0,3,2.13c1.05.62,2.14,1.17,3.22,1.73l2.87,1.48c1,.51,2,1,3,1.42.58.27,1.19.51,1.78.75l1.26.51c1.06.4,2.12.77,3.18,1.15s1.92.63,2.88.91c.46.13.91.26,1.37.37s1,.24,1.44.34,1.15.23,1.72.36l.62.09,1.11.18c.62.09,1.24.16,1.87.23.45.05.9.1,1.35.13l1.06.07c.2,0,.41,0,.62,0l1.79,0c.42,0,.85,0,1.27-.05s.81,0,1.22-.09l1.8-.22,1.28-.17,3.41-.48c.94-.14,1.88-.31,2.8-.53.49-.12,1-.23,1.45-.37s1-.28,1.48-.45l3.22-1.1,1.54-.59c.6-.22,1.18-.49,1.76-.76l.75-.32.56-.29c.46-.24.91-.48,1.35-.74s.91-.53,1.34-.82.84-.54,1.25-.83.84-.58,1.25-.89,1.15-.84,1.69-1.31l1.36-1.14c.14-.12.27-.26.39-.38l.8-.79c.11-.09.2-.2.3-.3.24-.29.49-.57.74-.84s.63-.78,1-1.17l.72-.89a21.1,21.1,0,0,0,2.55,1.77c1,.62,2.13,1.18,3.21,1.74s1.91,1,2.87,1.48,2,1,3,1.42c.59.27,1.19.5,1.79.75l1.25.5c1.06.4,2.12.78,3.19,1.16s1.91.62,2.88.91c.45.13.9.26,1.36.36s1,.25,1.44.35l1.73.36.62.09,1.1.17c.62.1,1.25.17,1.88.23.45.05.89.11,1.34.14l1.06.07c.2,0,.41,0,.62,0l1.79,0c.43,0,.86,0,1.28-.05s.8-.06,1.21-.09l1.81-.22,1.28-.18,3.4-.47c.95-.14,1.88-.31,2.81-.54.48-.12,1-.22,1.44-.37s1-.28,1.48-.45l3.22-1.1c.52-.18,1-.39,1.54-.59s1.18-.49,1.77-.75c.24-.1.49-.22.75-.32s.37-.2.55-.3c.47-.24.92-.47,1.36-.73s.9-.54,1.34-.82l1.25-.83c.41-.3.84-.59,1.24-.89.57-.43,1.15-.85,1.69-1.31l1.36-1.14c.14-.12.27-.26.4-.39l.8-.78a2.87,2.87,0,0,0,.29-.31l.74-.84c.33-.38.64-.78.95-1.16l1.89-2.32.39-.5c.36.4.74.79,1.11,1.18s.64.66,1,1,.78.76,1.19,1.12l1.41,1.24c.4.34.82.67,1.23,1a22.17,22.17,0,0,0,3,2.12c1,.62,2.13,1.18,3.22,1.74s1.91,1,2.86,1.48,2,1,3,1.42c.59.27,1.19.5,1.79.75.41.17.83.34,1.26.5,1.06.4,2.11.78,3.18,1.16s1.91.62,2.88.91c.45.13.9.26,1.36.36s1,.25,1.44.35l1.73.36c.2,0,.42,0,.62.09l1.1.17c.63.1,1.25.17,1.88.23.45.05.89.11,1.34.14l1.06.07c.21,0,.41,0,.62,0l1.79,0c.43,0,.86,0,1.28-.05s.81-.06,1.21-.09l1.81-.22,1.28-.18,3.4-.47c.95-.14,1.89-.31,2.81-.54.48-.12,1-.22,1.44-.37s1-.28,1.48-.45l3.22-1.1c.52-.18,1-.39,1.55-.59s1.17-.49,1.76-.75l.75-.32c.19-.09.37-.2.55-.3.47-.24.92-.47,1.36-.73s.9-.54,1.34-.82l1.25-.83c.42-.3.84-.59,1.24-.89.57-.43,1.15-.85,1.7-1.31l1.36-1.14c.14-.12.26-.26.39-.39l.8-.78a2.87,2.87,0,0,0,.29-.31l.74-.84c.33-.38.64-.78.95-1.16l1.89-2.32c.43-.54.85-1.06,1.26-1.6s.64-.83.92-1.26l.56-.85.35-.52c.29-.52.6-1,.89-1.54s.52-1,.77-1.44.5-.92.76-1.38c.49-.9,1-1.81,1.46-2.73.23-.45.44-.92.66-1.37s.44-1,.67-1.48c.28-.66.53-1.33.79-2l.42-1c.4-.92.8-1.85,1.19-2.77.49-1.13,1-2.26,1.37-3.43.16-.5.34-1,.49-1.53s.31-1.06.46-1.6c.31-1.07.63-2.14.93-3.22a40.29,40.29,0,0,0,1.21-6.72c.1-1,.13-2.05.14-3.07,0-.54,0-1.06,0-1.59C819,206.2,819,205.38,819,204.57Z" />
    <path d="M954,553.57c0-.51-.1-1-.17-1.53s-.12-.74-.2-1.11-.16-.74-.24-1.11c-.12-.54-.26-1.09-.38-1.64s-.28-1.17-.45-1.76a12.29,12.29,0,0,0-.49-1.32c-.14-.32-.28-.61-.43-.92s-.42-.72-.62-1.09c-.52-.92-.94-1.88-1.38-2.83s-1-1.83-1.47-2.72c-.3-.51-.59-1-.88-1.54s-.45-.87-.7-1.29-.54-.94-.84-1.4a6.65,6.65,0,0,0-.36-.56c-.28-.36-.54-.74-.82-1.1L944,531c-.18-.21-.36-.4-.54-.6-.32-.36-.67-.71-1-1a28.86,28.86,0,0,0-2.76-2.31,15.22,15.22,0,0,0-1.44-1c-.49-.32-1-.61-1.48-.94s-.93-.66-1.41-1a6.74,6.74,0,0,0-1.27-.61l-.77-.33-.5-.22c-.47-.2-.92-.41-1.38-.62s-1-.48-1.44-.72-.82-.45-1.24-.64l-1.53-.67c-.75-.36-1.44-.86-2.19-1.23a16.92,16.92,0,0,0-1.85-.8l-1.12-.34a7.21,7.21,0,0,0-1.24-.55,6.07,6.07,0,0,0-1.26-.23l-.22,0c-.34-.1-.69-.16-1-.23l-.49-.2-.07-.16c-.2-.37-.42-.72-.62-1.1-.52-.91-.94-1.87-1.38-2.82s-1-1.83-1.47-2.72c-.3-.51-.59-1-.88-1.55s-.45-.86-.69-1.28-.55-1-.85-1.4a6.65,6.65,0,0,0-.36-.56c-.28-.37-.54-.75-.82-1.11l-.56-.69-.54-.61c-.32-.36-.67-.71-1-1a29.1,29.1,0,0,0-2.76-2.31c-.47-.34-.94-.68-1.44-1s-1-.61-1.48-.94-.93-.66-1.41-1a6.74,6.74,0,0,0-1.27-.61c-.26-.11-.52-.21-.77-.33a4.46,4.46,0,0,1-.5-.22l-1.38-.61c-.49-.23-1-.49-1.44-.72s-.82-.45-1.24-.64l-1.53-.68c-.75-.36-1.43-.86-2.18-1.23a16,16,0,0,0-1.86-.79c-.36-.13-.74-.24-1.12-.35a8.07,8.07,0,0,0-1.24-.55,6.65,6.65,0,0,0-1.26-.22l-.22-.06c-.34-.09-.69-.15-1-.22-.17-.08-.35-.16-.52-.22a5.16,5.16,0,0,0-.52-.16l-.73-.21-.06,0c-.46-.21-.92-.4-1.39-.59-.22-.09-.43-.17-.66-.24a9.82,9.82,0,0,0-1.53-.4c-.71-.12-1.42-.21-2.14-.3-.5-.06-1-.06-1.49-.07h-.44c-.87,0-1.75,0-2.62.07l-1.66,0-1.5.06-.69.07-.71.08c-.68.08-1.36.16-2,.26l-1.21.16c-.28-.47-.55-1-.81-1.42s-.45-.87-.7-1.29-.55-.94-.84-1.4c-.12-.19-.24-.38-.37-.56-.27-.37-.53-.74-.82-1.1l-.56-.7c-.17-.21-.36-.41-.53-.6a14.6,14.6,0,0,0-1-1,29.1,29.1,0,0,0-2.76-2.31c-.46-.34-.93-.68-1.43-1s-1-.61-1.49-.94-.93-.66-1.41-1a7.11,7.11,0,0,0-1.27-.62c-.25-.11-.51-.21-.76-.33a4.61,4.61,0,0,1-.51-.22l-1.37-.61c-.49-.22-1-.48-1.45-.72s-.82-.45-1.24-.64-1-.46-1.52-.67c-.75-.36-1.44-.87-2.19-1.24a17,17,0,0,0-1.86-.79c-.36-.13-.74-.23-1.11-.35a9,9,0,0,0-1.24-.55,6.79,6.79,0,0,0-1.26-.22l-.22-.06c-.35-.09-.7-.15-1-.22-.17-.08-.34-.16-.51-.22a4.64,4.64,0,0,0-.53-.16l-.72-.2-.07,0c-.46-.21-.91-.41-1.38-.6-.22-.09-.43-.17-.66-.24a10.13,10.13,0,0,0-1.53-.4c-.71-.12-1.43-.21-2.15-.3a14.66,14.66,0,0,0-1.48-.07h-.45c-.87,0-1.74.05-2.61.07l-1.66.05c-.51,0-1,0-1.5.06l-.69.07-.71.08c-.68.08-1.37.16-2,.26-1,.13-2,.28-3.07.45s-2,.35-3,.58-2,.45-3,.74l-1.5.41c-.54.16-1.07.31-1.6.48l-1.62.53c-.51.17-1,.36-1.52.55s-.93.36-1.38.54-1.16.48-1.73.73-.88.39-1.31.6l-1.6.77c-.52.25-1,.54-1.54.82a26,26,0,0,0-2.82,1.69,46.52,46.52,0,0,0-4.66,3.88c-.41.36-.81.77-1.19,1.17q-.82.86-1.56,1.77a29.38,29.38,0,0,0-2.83,4.14c-.38.66-.72,1.34-1.06,2-.23.46-.48.93-.7,1.4-.42.95-.85,1.89-1.26,2.85-.26.57-.5,1.14-.75,1.72s-.55,1.36-.83,2.05c-.16.4-.31.79-.45,1.19l-.61,1.77c-.05.15-.09.3-.13.45l-.31,1.14c-.11.39-.22.78-.31,1.18-.23,1.06-.48,2.12-.68,3.19s-.42,2.25-.61,3.39-.37,2.29-.55,3.43c-.09.59-.17,1.17-.24,1.75,0,.38-.09.74-.14,1.11,0,.19-.05.39-.07.59-.08,1-.18,2.06-.21,3.1L771,519.6v.25l-.53-.23c-.21-.09-.43-.17-.65-.24a10.13,10.13,0,0,0-1.53-.4c-.71-.12-1.43-.21-2.15-.3a14.66,14.66,0,0,0-1.48-.07h-.45c-.87,0-1.74,0-2.61.07l-1.67.05-1.5.06-.68.07-.71.08c-.69.08-1.37.16-2,.26-1,.13-2,.28-3.08.45s-2,.34-3,.57-2,.46-3.06.75l-1.5.41c-.53.16-1.06.31-1.59.48l-1.62.53c-.51.17-1,.36-1.53.55s-.92.36-1.37.54-1.16.48-1.73.73-.88.39-1.31.6l-1.6.77c-.52.25-1,.54-1.55.81a28.75,28.75,0,0,0-2.81,1.7,46.65,46.65,0,0,0-4.66,3.87c-.42.37-.81.78-1.19,1.18q-.82.86-1.56,1.77A29.38,29.38,0,0,0,719,539c-.38.66-.72,1.34-1.06,2-.23.46-.48.92-.7,1.4-.42.95-.85,1.89-1.27,2.85-.25.57-.49,1.14-.74,1.72s-.55,1.36-.83,2.05c-.16.4-.31.78-.45,1.19-.2.59-.41,1.17-.62,1.77l-.12.45-.31,1.14c-.11.39-.22.78-.31,1.18-.23,1.06-.48,2.12-.68,3.19s-.42,2.25-.61,3.39-.37,2.28-.55,3.43c-.1.59-.17,1.17-.24,1.75,0,.38-.09.74-.14,1.11,0,.19-.05.39-.07.59-.08,1-.18,2.06-.21,3.1l-.06,1.89v.41c0,.39,0,.79,0,1.18s0,.88,0,1.32c0,.69.08,1.39.11,2.08.06,1.17.2,2.32.36,3.48a30.59,30.59,0,0,0,1,4.42c.19.69.43,1.37.65,2.05.14.42.27.84.42,1.25.4,1.13.79,2.26,1.2,3.38s.82,2.13,1.32,3.15a18.08,18.08,0,0,0,1,1.87,21.28,21.28,0,0,0,1.56,2.08c.53.64,1.1,1.22,1.68,1.81.31.34.63.66,1,1s.78.76,1.19,1.12l1.41,1.24c.4.35.82.68,1.22,1a23.59,23.59,0,0,0,3,2.13c1.05.62,2.14,1.17,3.22,1.73l2.87,1.48c1,.51,2,1,3,1.42.58.27,1.19.51,1.78.75l1.26.51c1.06.4,2.12.77,3.18,1.15s1.92.63,2.88.91c.46.13.91.26,1.37.37s1,.24,1.44.34,1.15.23,1.72.36l.62.09,1.11.18c.62.09,1.24.16,1.87.23.45,0,.9.1,1.35.13l1.06.07c.2,0,.41,0,.62,0l1.79,0c.42,0,.85,0,1.27,0s.81-.05,1.22-.09l1.8-.22,1.28-.17,3.41-.48c.94-.14,1.88-.31,2.8-.53.49-.12,1-.23,1.45-.37s1-.28,1.48-.45l3.22-1.1,1.54-.59c.6-.22,1.18-.49,1.76-.76l.75-.32.56-.29c.46-.24.91-.48,1.35-.74s.91-.53,1.34-.82.84-.54,1.25-.83.84-.58,1.25-.89,1.15-.84,1.69-1.31l1.36-1.14c.14-.12.27-.26.39-.38l.8-.79c.11-.09.2-.2.3-.3.24-.29.49-.57.74-.84s.63-.78,1-1.17l.72-.89a21.1,21.1,0,0,0,2.55,1.77c1,.62,2.13,1.18,3.21,1.74s1.91,1,2.87,1.48,2,1,3,1.42c.59.27,1.19.5,1.79.75l1.25.5c1.06.4,2.12.78,3.19,1.16s1.91.62,2.88.91c.45.13.9.26,1.36.36s1,.25,1.44.35l1.73.36.62.09,1.1.17c.62.1,1.25.17,1.88.23.45.05.89.11,1.34.14l1.06.07c.2,0,.41,0,.62,0l1.79,0c.43,0,.86,0,1.28,0s.8-.06,1.21-.09l1.81-.22,1.28-.18,3.4-.47c.95-.14,1.88-.31,2.81-.54.48-.12,1-.22,1.44-.37s1-.28,1.48-.45l3.22-1.1c.52-.18,1-.39,1.54-.59s1.18-.49,1.77-.75c.24-.1.49-.22.75-.32s.37-.2.55-.3c.47-.24.92-.47,1.36-.73s.9-.54,1.34-.82l1.25-.83c.41-.3.84-.59,1.24-.89.57-.43,1.15-.85,1.69-1.31l1.36-1.14c.14-.12.27-.26.4-.39l.8-.78a2.87,2.87,0,0,0,.29-.31l.74-.84c.33-.38.64-.78.95-1.16l1.89-2.32.39-.5c.36.4.74.79,1.11,1.18s.64.66,1,1,.78.76,1.19,1.12l1.41,1.24c.4.34.82.67,1.23,1a22.17,22.17,0,0,0,3,2.12c1,.62,2.13,1.18,3.22,1.74s1.91,1,2.86,1.48,2,1,3,1.42c.59.27,1.19.5,1.79.75.41.17.83.34,1.26.5,1.06.4,2.11.78,3.18,1.16s1.91.62,2.88.91c.45.13.9.26,1.36.36s1,.25,1.44.35l1.73.36c.2,0,.42.05.62.09l1.1.17c.63.1,1.25.17,1.88.23.45.05.89.11,1.34.14l1.06.07c.21,0,.41,0,.62,0l1.79,0c.43,0,.86,0,1.28,0s.81-.06,1.21-.09l1.81-.22,1.28-.18,3.4-.47c.95-.14,1.89-.31,2.81-.54.48-.12,1-.22,1.44-.37s1-.28,1.48-.45l3.22-1.1c.52-.18,1-.39,1.55-.59s1.17-.49,1.76-.75l.75-.32c.19-.09.37-.2.55-.3.47-.24.92-.47,1.36-.73s.9-.54,1.34-.82l1.25-.83c.42-.3.84-.59,1.24-.89.57-.43,1.15-.85,1.7-1.31l1.36-1.14c.14-.12.26-.26.39-.39l.8-.78a2.87,2.87,0,0,0,.29-.31l.74-.84c.33-.38.64-.78.95-1.16l1.89-2.32c.43-.54.85-1.06,1.26-1.6s.64-.83.92-1.26l.56-.85.35-.52c.29-.52.6-1,.89-1.54s.52-1,.77-1.44.5-.92.76-1.38c.49-.9,1-1.81,1.46-2.73.23-.45.44-.92.66-1.37s.44-1,.67-1.48c.28-.66.53-1.33.79-2l.42-1c.4-.92.8-1.85,1.19-2.77.49-1.13,1-2.26,1.37-3.43.16-.5.34-1,.49-1.53s.31-1.06.46-1.6c.31-1.07.63-2.14.93-3.22a40.29,40.29,0,0,0,1.21-6.72c.1-1,.13-2,.14-3.07,0-.54,0-1.06,0-1.59C954,555.2,954,554.38,954,553.57Z" />
    <path d="M1420,510.19c0-.5-.1-1-.17-1.52s-.12-.75-.2-1.11-.16-.75-.25-1.12c-.12-.54-.25-1.09-.37-1.63s-.28-1.18-.45-1.77a12.29,12.29,0,0,0-.49-1.32c-.14-.31-.28-.61-.44-.91s-.41-.72-.61-1.1c-.52-.91-.94-1.87-1.39-2.82s-.95-1.83-1.47-2.72c-.29-.51-.59-1-.87-1.55s-.45-.86-.7-1.28-.54-.95-.84-1.4c-.12-.19-.24-.38-.37-.56-.27-.37-.53-.75-.81-1.11l-.57-.69c-.17-.21-.35-.41-.53-.61-.33-.36-.67-.71-1-1a29.22,29.22,0,0,0-2.77-2.31c-.46-.34-.93-.68-1.43-1s-1-.61-1.49-.94-.93-.66-1.4-1a6.83,6.83,0,0,0-1.28-.61c-.25-.11-.51-.21-.76-.33a3.78,3.78,0,0,1-.5-.22l-1.38-.61c-.49-.23-1-.49-1.44-.72s-.83-.45-1.25-.64l-1.52-.68c-.75-.36-1.44-.86-2.19-1.23a15.27,15.27,0,0,0-1.86-.79c-.36-.13-.74-.24-1.11-.35a8.52,8.52,0,0,0-1.24-.55,6.79,6.79,0,0,0-1.26-.22l-.22-.06c-.34-.09-.7-.15-1-.22a5,5,0,0,0-.48-.21l-.08-.16c-.2-.37-.41-.72-.61-1.1-.52-.91-.94-1.87-1.39-2.82s-1-1.83-1.47-2.72c-.29-.51-.59-1-.87-1.54s-.45-.87-.7-1.29-.54-.94-.84-1.4c-.12-.19-.24-.38-.37-.56-.27-.36-.53-.74-.81-1.1l-.57-.7c-.17-.21-.35-.4-.53-.6q-.49-.56-1-1.05a27.69,27.69,0,0,0-2.77-2.3,15.8,15.8,0,0,0-1.43-1c-.49-.31-1-.61-1.49-.94s-.93-.65-1.4-1a7.56,7.56,0,0,0-1.28-.62l-.76-.32-.5-.22c-.47-.2-.92-.41-1.38-.62s-1-.48-1.44-.72-.83-.45-1.25-.64l-1.52-.67c-.75-.36-1.44-.87-2.19-1.24s-1.22-.56-1.85-.79c-.37-.13-.74-.23-1.12-.35a8.07,8.07,0,0,0-1.24-.55,6.79,6.79,0,0,0-1.26-.22l-.22-.05c-.34-.1-.7-.16-1-.23a4.55,4.55,0,0,0-.51-.21,4.68,4.68,0,0,0-.53-.17l-.72-.2-.06,0c-.46-.21-.92-.41-1.39-.6-.22-.09-.43-.17-.66-.24a10.13,10.13,0,0,0-1.53-.4c-.71-.12-1.43-.21-2.15-.3-.49-.05-1-.06-1.48-.07h-.45c-.87,0-1.74,0-2.61.07l-1.66,0c-.51,0-1,.05-1.5.07-.23,0-.46.05-.69.07l-.71.07c-.68.08-1.36.16-2,.26l-1.21.17-.81-1.43c-.23-.42-.45-.87-.69-1.29s-.55-.94-.84-1.4c-.12-.19-.24-.38-.37-.56-.27-.36-.53-.74-.82-1.1l-.56-.7c-.17-.21-.36-.4-.54-.6a12.52,12.52,0,0,0-1-1,27.67,27.67,0,0,0-2.76-2.31,14.65,14.65,0,0,0-1.44-1c-.49-.31-1-.6-1.48-.93s-.93-.66-1.41-1a6.74,6.74,0,0,0-1.27-.61l-.77-.33-.5-.22-1.38-.62c-.49-.22-1-.48-1.44-.72s-.82-.45-1.24-.64-1-.45-1.53-.67c-.75-.36-1.43-.86-2.18-1.23a18,18,0,0,0-1.86-.8c-.36-.13-.74-.23-1.12-.35a8,8,0,0,0-1.24-.54,6,6,0,0,0-1.26-.23l-.22-.05c-.34-.1-.69-.16-1-.23l-.51-.21c-.18-.07-.36-.12-.53-.17l-.73-.2-.06,0c-.46-.21-.92-.4-1.39-.59a5.07,5.07,0,0,0-.65-.24,10.16,10.16,0,0,0-1.53-.41c-.71-.12-1.43-.21-2.15-.3-.49-.05-1-.06-1.49-.07h-.44c-.87,0-1.74,0-2.61.07l-1.67,0c-.5,0-1,.05-1.5.07-.22,0-.46.05-.68.07l-.71.07c-.69.08-1.37.16-2,.26-1,.14-2,.28-3.08.45s-2,.35-3,.58-2.05.46-3.06.74l-1.5.42-1.59.47-1.62.53c-.52.17-1,.37-1.53.55s-.92.36-1.38.54l-1.72.73c-.44.2-.88.39-1.31.6s-1.07.51-1.6.78-1,.53-1.55.81a27.52,27.52,0,0,0-2.81,1.69,48,48,0,0,0-4.67,3.88c-.41.37-.8.77-1.19,1.17-.54.57-1.06,1.17-1.55,1.77A30.59,30.59,0,0,0,1246,442c-.38.66-.72,1.34-1.06,2-.23.47-.48.93-.7,1.4-.42.95-.86,1.9-1.27,2.86-.25.56-.49,1.13-.74,1.71s-.55,1.36-.83,2.05c-.16.4-.31.79-.45,1.19l-.62,1.77c0,.15-.08.3-.12.45l-.31,1.14c-.11.39-.23.78-.31,1.18-.23,1.06-.49,2.12-.68,3.19s-.42,2.26-.61,3.39-.37,2.29-.56,3.44c-.09.58-.16,1.16-.23,1.75,0,.37-.09.74-.14,1.1,0,.2-.06.4-.08.59-.07,1-.17,2.07-.2,3.1l-.06,1.9v.24l-.53-.23c-.22-.09-.43-.17-.66-.24a11,11,0,0,0-1.52-.4c-.72-.12-1.43-.21-2.15-.3-.5-.05-1-.06-1.49-.07h-.44c-.87,0-1.74,0-2.61.07l-1.67,0c-.5,0-1,.05-1.5.07-.23,0-.46,0-.68.07l-.72.07c-.68.08-1.36.16-2,.26-1,.14-2,.28-3.08.45s-2,.35-3,.58-2.05.46-3.06.74l-1.5.41-1.59.48-1.62.53c-.52.17-1,.37-1.53.55l-1.38.54c-.58.23-1.15.48-1.72.73s-.88.39-1.31.6l-1.6.77c-.52.25-1,.54-1.55.82a27.52,27.52,0,0,0-2.81,1.69,48,48,0,0,0-4.67,3.88c-.41.37-.8.77-1.19,1.17-.54.57-1.06,1.17-1.55,1.77a30,30,0,0,0-2.83,4.14c-.38.66-.73,1.34-1.06,2-.24.46-.48.93-.7,1.4-.43.95-.86,1.9-1.27,2.85-.25.57-.5,1.14-.74,1.72s-.55,1.36-.83,2.05c-.16.4-.31.79-.45,1.19l-.62,1.77c0,.15-.08.3-.12.45l-.31,1.14c-.11.39-.23.78-.31,1.18-.24,1.06-.49,2.12-.69,3.19s-.41,2.26-.6,3.39-.37,2.29-.56,3.43c-.09.59-.16,1.17-.23,1.76,0,.37-.1.73-.14,1.1,0,.2-.06.4-.08.59-.07,1-.17,2.07-.2,3.1l-.06,1.89c0,.14,0,.28,0,.41,0,.4,0,.79,0,1.18s0,.88,0,1.32c0,.69.07,1.39.11,2.09.06,1.16.2,2.31.36,3.47a32.09,32.09,0,0,0,1,4.43c.2.68.43,1.37.66,2,.14.42.27.84.42,1.26.39,1.12.79,2.25,1.2,3.37a32.22,32.22,0,0,0,1.32,3.15,17.1,17.1,0,0,0,1,1.87,21,21,0,0,0,1.56,2.09c.53.63,1.1,1.22,1.67,1.81.32.33.64.65,1,1s.77.77,1.18,1.13l1.41,1.23c.4.35.83.68,1.23,1a23.81,23.81,0,0,0,3,2.12c1,.62,2.13,1.18,3.22,1.74s1.91,1,2.87,1.48,2,1,3,1.42c.58.27,1.19.5,1.78.75.42.17.83.34,1.26.5,1.06.4,2.12.78,3.18,1.16s1.92.62,2.88.91c.45.12.9.25,1.36.36s1,.24,1.44.34l1.73.36.62.1,1.1.17c.63.1,1.25.17,1.88.23.45,0,.9.11,1.35.14l1,.07c.21,0,.42,0,.62,0l1.79,0c.43,0,.86,0,1.28,0s.81-.06,1.21-.09l1.81-.22,1.28-.18,3.41-.48c.94-.14,1.88-.31,2.8-.53.49-.12,1-.22,1.44-.37s1-.28,1.48-.45l3.23-1.1,1.54-.59c.59-.22,1.17-.49,1.76-.75l.75-.33c.19-.09.37-.19.55-.29.47-.24.92-.47,1.36-.73s.9-.54,1.34-.82.84-.55,1.25-.84.84-.58,1.25-.88,1.15-.85,1.69-1.31l1.36-1.15c.14-.12.26-.26.39-.38s.53-.52.8-.78a2.13,2.13,0,0,0,.29-.31l.74-.84c.33-.38.64-.78,1-1.17s.48-.59.72-.88a23.52,23.52,0,0,0,2.54,1.77c1,.61,2.14,1.17,3.22,1.73l2.87,1.48c1,.51,2,1,3,1.42.58.27,1.19.51,1.78.75l1.26.51c1.06.4,2.12.77,3.18,1.15s1.92.63,2.88.91c.46.13.91.26,1.37.37s1,.24,1.44.34l1.73.36c.2,0,.41.06.61.09l1.11.18c.62.09,1.25.16,1.87.23.45.05.9.1,1.35.13l1.06.07c.2,0,.41,0,.62,0l1.79,0c.42,0,.85,0,1.27,0s.81,0,1.22-.09l1.8-.22,1.28-.17,3.41-.48c.94-.14,1.88-.31,2.81-.53.48-.12,1-.23,1.44-.37s1-.28,1.48-.45l3.22-1.1,1.54-.59c.6-.22,1.18-.49,1.76-.76l.75-.32c.2-.09.37-.19.56-.29.46-.24.91-.48,1.35-.74s.91-.53,1.34-.82.84-.54,1.26-.83.83-.58,1.24-.89c.56-.43,1.15-.84,1.69-1.31l1.36-1.14c.14-.12.27-.26.39-.38l.81-.79c.1-.09.19-.2.29-.3.24-.29.49-.57.74-.84s.63-.78,1-1.17c.62-.78,1.26-1.54,1.89-2.32l.39-.5c.36.4.73.8,1.11,1.18s.64.66,1,1,.78.76,1.19,1.12l1.41,1.24c.4.35.82.68,1.23,1a22.25,22.25,0,0,0,3,2.13c1,.61,2.13,1.17,3.21,1.73l2.87,1.48c1,.51,2,1,3,1.42.59.27,1.19.51,1.79.75.41.18.83.35,1.25.51,1.06.4,2.12.77,3.19,1.15s1.91.63,2.87.91c.46.13.91.26,1.37.37s1,.24,1.44.34l1.73.36c.2,0,.41.06.62.09l1.1.18c.62.09,1.25.16,1.88.23.45.05.89.1,1.34.13l1.06.07c.2,0,.41,0,.62,0l1.79,0c.42,0,.85,0,1.28,0s.8,0,1.21-.09l1.8-.22,1.29-.17c1.13-.17,2.27-.32,3.4-.48.94-.14,1.88-.31,2.81-.53.48-.12,1-.23,1.44-.37s1-.28,1.48-.45l3.22-1.1,1.54-.59c.6-.22,1.18-.49,1.76-.76l.75-.32c.2-.09.38-.19.56-.29.46-.24.91-.48,1.35-.74s.91-.53,1.34-.82.85-.54,1.26-.83.83-.58,1.24-.89c.57-.43,1.15-.84,1.69-1.31l1.36-1.14c.14-.12.27-.26.39-.38l.81-.79c.1-.09.19-.2.29-.3.24-.29.49-.57.74-.84s.64-.78,1-1.17c.62-.78,1.26-1.54,1.89-2.32.42-.53.85-1.06,1.25-1.6s.64-.82.93-1.26l.56-.85c.12-.17.23-.34.34-.52.3-.51.6-1,.89-1.54s.53-1,.78-1.44.5-.92.76-1.38c.49-.9,1-1.81,1.45-2.73.24-.45.45-.91.67-1.36s.44-1,.67-1.49c.28-.65.53-1.33.79-2l.42-1c.4-.92.8-1.85,1.19-2.77.49-1.13,1-2.25,1.37-3.42.16-.51.33-1,.49-1.53l.46-1.6c.3-1.08.62-2.15.92-3.23a40.2,40.2,0,0,0,1.22-6.71c.09-1,.13-2,.14-3.08,0-.53,0-1.05,0-1.59C1420,511.83,1420,511,1420,510.19Z" />
    <path d="M1212.11,735.56c0-.51-.1-1-.17-1.53s-.12-.75-.2-1.11-.16-.74-.25-1.12c-.12-.54-.25-1.08-.37-1.63s-.28-1.18-.45-1.76a13.3,13.3,0,0,0-.49-1.33c-.14-.31-.28-.6-.44-.91s-.41-.72-.61-1.1c-.52-.91-.94-1.87-1.38-2.82s-1-1.83-1.47-2.72c-.3-.51-.59-1-.88-1.54s-.45-.87-.7-1.29-.54-.94-.84-1.4c-.11-.19-.24-.38-.37-.56-.27-.36-.53-.74-.81-1.1l-.56-.7c-.18-.21-.36-.4-.54-.6q-.49-.55-1-1.05a28.75,28.75,0,0,0-2.76-2.3c-.47-.35-.94-.69-1.44-1s-1-.61-1.49-.94-.92-.65-1.4-1a7.56,7.56,0,0,0-1.28-.62l-.76-.32-.5-.22c-.47-.2-.92-.41-1.38-.62s-1-.48-1.44-.72-.83-.45-1.25-.64l-1.52-.67c-.75-.36-1.44-.87-2.19-1.23a17.8,17.8,0,0,0-1.85-.8c-.37-.13-.74-.23-1.12-.35a8.07,8.07,0,0,0-1.24-.55,6.79,6.79,0,0,0-1.26-.22l-.22,0c-.34-.1-.7-.16-1-.23l-.49-.2c0-.06,0-.11-.08-.16-.19-.37-.41-.73-.61-1.1-.52-.91-.94-1.88-1.38-2.82s-1-1.84-1.47-2.73c-.3-.51-.59-1-.88-1.54s-.45-.87-.7-1.29-.54-.94-.84-1.4c-.11-.19-.24-.38-.37-.56-.27-.36-.53-.74-.81-1.1l-.56-.7-.54-.6c-.33-.36-.67-.71-1-1a30.41,30.41,0,0,0-2.76-2.31,17.38,17.38,0,0,0-1.44-1c-.49-.32-1-.61-1.49-.94s-.92-.66-1.4-1a6.54,6.54,0,0,0-1.28-.61l-.76-.33-.5-.22-1.38-.61c-.49-.23-1-.49-1.44-.73s-.82-.45-1.25-.64l-1.52-.67c-.75-.36-1.44-.86-2.19-1.23a15.82,15.82,0,0,0-1.85-.79c-.37-.13-.74-.24-1.12-.35a7.21,7.21,0,0,0-1.24-.55,6.07,6.07,0,0,0-1.26-.23l-.22-.05c-.34-.1-.7-.16-1-.23-.17-.08-.35-.15-.52-.21a5.16,5.16,0,0,0-.52-.16l-.73-.21-.06,0c-.46-.21-.92-.4-1.39-.59a5.21,5.21,0,0,0-.66-.24,9.85,9.85,0,0,0-1.53-.41c-.71-.12-1.42-.21-2.14-.3-.5,0-1-.06-1.49-.06h-.44c-.88,0-1.75,0-2.62.07l-1.66,0c-.5,0-1,0-1.5.07-.23,0-.46.05-.69.07l-.71.07c-.68.08-1.36.16-2,.26l-1.21.17c-.28-.47-.55-1-.81-1.43s-.45-.86-.7-1.28-.55-1-.84-1.41c-.12-.18-.24-.37-.37-.55-.27-.37-.53-.75-.82-1.11l-.56-.69c-.17-.21-.36-.41-.54-.61a14.28,14.28,0,0,0-1-1,29.1,29.1,0,0,0-2.76-2.31,16.54,16.54,0,0,0-1.44-1c-.48-.32-1-.61-1.48-.94s-.93-.66-1.41-1a6.46,6.46,0,0,0-1.27-.61c-.26-.11-.51-.21-.76-.33a4.61,4.61,0,0,1-.51-.22l-1.38-.61c-.48-.23-1-.49-1.44-.73s-.82-.44-1.24-.63l-1.52-.68c-.75-.36-1.44-.86-2.19-1.23a15.27,15.27,0,0,0-1.86-.79c-.36-.13-.74-.24-1.12-.35a7.47,7.47,0,0,0-1.23-.55,6.75,6.75,0,0,0-1.27-.22l-.21-.06c-.35-.09-.7-.15-1-.22-.17-.08-.34-.16-.51-.22a5.34,5.34,0,0,0-.53-.16l-.72-.21-.07,0c-.46-.21-.92-.4-1.39-.59a5.07,5.07,0,0,0-.65-.24,10.13,10.13,0,0,0-1.53-.4c-.71-.12-1.43-.21-2.15-.3a14.66,14.66,0,0,0-1.48-.07h-.45c-.87,0-1.74.05-2.61.07l-1.67,0-1.5.06-.68.07-.71.08c-.69.08-1.37.16-2.05.26-1,.13-2,.27-3.08.44s-2,.35-3,.58-2,.46-3.06.75l-1.5.41-1.59.48-1.62.53c-.51.17-1,.36-1.53.55l-1.37.53c-.59.24-1.16.49-1.73.74s-.88.39-1.31.6-1.07.5-1.6.77-1,.54-1.55.81a26.91,26.91,0,0,0-2.81,1.7,46.65,46.65,0,0,0-4.66,3.87c-.42.37-.81.78-1.19,1.18-.55.56-1.07,1.16-1.56,1.77a29.38,29.38,0,0,0-2.83,4.14c-.38.66-.72,1.34-1.06,2-.23.46-.48.92-.7,1.4-.42.94-.85,1.89-1.27,2.85-.25.57-.49,1.14-.74,1.72s-.55,1.36-.83,2c-.16.4-.31.79-.45,1.2l-.62,1.77-.12.45L1032,682c-.11.39-.22.78-.31,1.18-.23,1.06-.48,2.12-.68,3.19s-.42,2.25-.61,3.38-.37,2.29-.55,3.44c-.1.58-.17,1.17-.24,1.75,0,.37-.09.74-.14,1.11,0,.19,0,.39-.07.59-.08,1-.18,2.06-.21,3.1l-.06,1.89v.24l-.53-.22a5.07,5.07,0,0,0-.65-.24,10.16,10.16,0,0,0-1.53-.41c-.71-.12-1.43-.21-2.15-.3a14.73,14.73,0,0,0-1.49-.06h-.44c-.87,0-1.74,0-2.61.07l-1.67,0-1.5.07c-.22,0-.46.05-.68.07l-.71.07c-.69.08-1.37.16-2,.26-1,.14-2,.28-3.08.45s-2,.35-3,.58-2,.46-3.06.74l-1.5.42c-.53.16-1.06.31-1.59.48l-1.62.53c-.52.17-1,.36-1.53.54l-1.38.54-1.72.74-1.31.59c-.54.25-1.07.51-1.6.78s-1,.54-1.55.81a26.91,26.91,0,0,0-2.81,1.7,46.53,46.53,0,0,0-4.67,3.87c-.41.37-.8.77-1.19,1.17-.54.57-1.06,1.17-1.55,1.77A30.59,30.59,0,0,0,977.1,721c-.38.67-.72,1.35-1.06,2-.23.47-.48.93-.7,1.41-.42.94-.86,1.89-1.27,2.85l-.74,1.71c-.3.67-.55,1.37-.83,2-.16.4-.31.79-.45,1.2-.21.58-.41,1.17-.62,1.77,0,.15-.08.29-.12.44l-.31,1.15c-.11.39-.23.77-.31,1.17-.23,1.07-.49,2.12-.68,3.2s-.42,2.25-.61,3.38-.37,2.29-.56,3.44c-.09.58-.16,1.17-.23,1.75-.05.37-.09.74-.14,1.11,0,.19-.06.39-.08.58-.07,1-.17,2.07-.2,3.11l-.06,1.89c0,.14,0,.27,0,.41,0,.39,0,.78,0,1.18s0,.88,0,1.32c0,.69.07,1.39.11,2.08.06,1.17.2,2.32.36,3.48a32,32,0,0,0,1,4.42c.2.69.43,1.37.66,2,.14.42.27.84.42,1.26.39,1.13.79,2.26,1.2,3.38A33.1,33.1,0,0,0,973.2,778a17.23,17.23,0,0,0,1,1.88,20.88,20.88,0,0,0,1.56,2.08c.53.63,1.1,1.22,1.67,1.81.32.33.64.66,1,1s.78.76,1.19,1.12l1.4,1.24c.41.35.83.68,1.23,1a22.55,22.55,0,0,0,3,2.12c1,.62,2.14,1.18,3.22,1.74s1.91,1,2.87,1.48,2,1,3,1.42c.58.27,1.19.51,1.78.75.42.17.83.34,1.26.5,1.06.4,2.12.78,3.18,1.16s1.92.62,2.88.91c.46.13.91.26,1.36.36s1,.25,1.45.35,1.15.23,1.72.36l.62.09,1.11.18c.62.09,1.24.16,1.87.22.45,0,.9.11,1.35.14l1.06.07c.2,0,.41,0,.62,0l1.78,0c.43,0,.86,0,1.28,0s.81-.06,1.22-.09l1.8-.22,1.28-.17,3.41-.48c.94-.14,1.88-.31,2.8-.54.49-.12,1-.22,1.44-.37s1-.28,1.48-.44l3.23-1.11c.51-.18,1-.39,1.54-.59s1.17-.48,1.76-.75l.75-.32c.19-.09.37-.2.56-.3.46-.24.91-.47,1.35-.73s.91-.53,1.34-.82l1.25-.83c.42-.3.84-.58,1.25-.89.56-.43,1.15-.85,1.69-1.31l1.36-1.14c.14-.12.26-.26.39-.39s.53-.52.8-.78a2.72,2.72,0,0,0,.29-.3l.74-.85c.33-.38.64-.77,1-1.16l.72-.89a20.34,20.34,0,0,0,2.55,1.77c1.05.62,2.13,1.18,3.21,1.74s1.91,1,2.87,1.48,2,.95,3,1.42c.59.27,1.19.5,1.79.75l1.25.5c1.06.4,2.12.78,3.19,1.16s1.91.62,2.87.91c.46.12.91.25,1.37.36s1,.24,1.44.34l1.73.36.62.1,1.1.17c.62.1,1.25.17,1.88.23.45.05.89.11,1.34.14l1.06.07c.2,0,.41,0,.62,0l1.79,0c.42,0,.85,0,1.28,0s.8-.06,1.21-.09l1.8-.22,1.29-.18,3.4-.48c.94-.14,1.88-.31,2.81-.53.48-.12,1-.22,1.44-.37s1-.28,1.48-.45l3.22-1.1,1.54-.59c.6-.22,1.18-.49,1.76-.75l.75-.33c.2-.09.38-.19.56-.29.46-.24.91-.47,1.35-.73s.91-.54,1.34-.82.85-.55,1.26-.84l1.24-.88c.57-.44,1.15-.85,1.69-1.31l1.36-1.15c.14-.12.27-.26.39-.38l.81-.78c.1-.09.19-.2.29-.31.24-.28.49-.57.74-.84s.64-.78,1-1.17c.62-.78,1.26-1.54,1.89-2.32l.39-.49c.36.4.73.79,1.11,1.18l1,1c.4.38.78.77,1.19,1.13l1.41,1.23c.4.35.82.68,1.23,1a23.1,23.1,0,0,0,3,2.12c1.05.62,2.13,1.18,3.21,1.74s1.91,1,2.87,1.48,2,.95,3,1.42c.59.27,1.19.5,1.79.75.41.17.83.34,1.26.5,1,.4,2.11.78,3.18,1.16s1.91.62,2.88.91c.45.12.9.25,1.36.36s1,.24,1.44.34l1.73.36.62.1,1.1.17c.62.1,1.25.17,1.88.23.45.05.89.11,1.34.14l1.06.07c.2,0,.41,0,.62,0l1.79,0c.43,0,.86,0,1.28,0s.81-.06,1.21-.09l1.81-.22,1.28-.18,3.4-.48c1-.14,1.88-.31,2.81-.53.48-.12,1-.22,1.44-.37s1-.28,1.48-.45l3.22-1.1,1.54-.59c.6-.22,1.18-.49,1.77-.75l.75-.33c.19-.09.37-.19.55-.29.47-.24.92-.47,1.36-.73s.9-.54,1.34-.82.84-.55,1.25-.84.84-.58,1.24-.88c.57-.44,1.15-.85,1.69-1.31l1.36-1.15c.14-.12.27-.26.4-.38l.8-.78a2.87,2.87,0,0,0,.29-.31c.24-.28.49-.57.74-.84s.64-.78,1-1.17l1.89-2.32c.42-.53.85-1.05,1.26-1.6s.63-.82.92-1.25l.56-.85.34-.53c.3-.51.6-1,.89-1.53s.53-1,.78-1.44.5-.92.76-1.39c.49-.9,1-1.81,1.45-2.72.24-.45.45-.92.67-1.37s.44-1,.67-1.49c.28-.65.53-1.32.79-2l.42-1c.4-.93.8-1.85,1.19-2.78.49-1.12,1-2.25,1.37-3.42.16-.51.34-1,.49-1.53l.46-1.6c.31-1.07.62-2.14.92-3.22a39.32,39.32,0,0,0,1.22-6.72c.1-1,.13-2,.14-3.08,0-.53,0-1.05,0-1.58C1212.13,737.19,1212.14,736.37,1212.11,735.56Z" />
  </g>
</svg>
