<svg xmlns="http://www.w3.org/2000/svg" viewBox="0 0 1420 800">
	<g fill="#ececec" fill-rule="evenodd">
    <path d="M331,644.88a.77.77,0,0,0,0-.15.83.83,0,0,1,0-.15,2.25,2.25,0,0,0,0-.22l-.06-.23a1.34,1.34,0,0,0-.07-.18,1.12,1.12,0,0,0,0-.13l-.09-.14c-.07-.13-.12-.26-.18-.38s-.13-.25-.2-.37l-.12-.21-.09-.17-.12-.19a.35.35,0,0,0-.05-.08l-.11-.15-.07-.09-.08-.08-.13-.14a3.68,3.68,0,0,0-.38-.31,1.33,1.33,0,0,0-.19-.14l-.2-.12-.19-.13a.91.91,0,0,0-.17-.09l-.1,0-.07,0-.19-.08-.19-.1-.17-.09-.21-.09-.29-.16-.25-.11-.15-.05-.17-.07a.47.47,0,0,0-.17,0h0l-.14,0-.07,0-.07,0-.1,0h0l-.18-.08-.09,0a.83.83,0,0,0-.21-.06l-.29,0H324l-.27,0-.42.06-.41.08-.41.1-.2.05-.22.07-.22.07-.2.07-.19.08-.23.1-.18.08-.21.1-.21.11a3,3,0,0,0-.38.23,5.27,5.27,0,0,0-.63.52l-.16.16-.21.24a3.67,3.67,0,0,0-.38.56c-.05.09-.1.18-.14.27a1.14,1.14,0,0,0-.1.19l-.17.38c0,.08-.07.16-.1.23s-.07.19-.11.28l-.06.16-.09.24s0,0,0,.06l0,.16,0,.15-.09.43c0,.16-.05.31-.08.46s-.05.31-.08.46l0,.24a.77.77,0,0,1,0,.15.22.22,0,0,1,0,.08c0,.14,0,.28,0,.42v.65c0,.09,0,.18,0,.28s0,.31,0,.47a3.87,3.87,0,0,0,.13.59,2.29,2.29,0,0,0,.09.28,1.54,1.54,0,0,0,.05.17c.06.15.11.3.16.45s.11.29.18.43l.14.25.21.28a2.73,2.73,0,0,0,.23.25,1.59,1.59,0,0,1,.13.13l.16.15.19.17.17.13a2.27,2.27,0,0,0,.4.29l.43.23.39.2.4.19.24.11.17.06.43.16.39.12.18,0,.2.05.23,0h.09l.14,0,.26,0,.18,0h.8l.25,0,.17,0,.46-.07.38-.07.19,0,.2-.06.44-.15.2-.08.24-.1.1,0,.08,0,.18-.1.18-.11.17-.11.17-.12.23-.18.18-.15.05-.06.11-.1,0,0,.1-.12.13-.15L329,651l.17-.21.13-.17.07-.12,0-.07.12-.2.1-.2.11-.19.19-.36.09-.19.09-.2.11-.27.06-.13c.05-.13.1-.25.16-.37s.13-.31.18-.47.05-.13.07-.2l.06-.22.12-.43a4.85,4.85,0,0,0,.17-.91c0-.14,0-.28,0-.42v-.21c0-.11,0-.22,0-.33A1.49,1.49,0,0,0,331,644.88Z" />
    <path d="M116.28,522.84a.77.77,0,0,0,0-.15.83.83,0,0,0,0-.15,1.74,1.74,0,0,0,0-.22,1.05,1.05,0,0,0-.06-.24.85.85,0,0,0-.06-.17l-.06-.13a1.09,1.09,0,0,1-.08-.15c-.07-.12-.13-.25-.19-.38s-.13-.24-.2-.36l-.12-.21-.09-.18-.12-.18a.59.59,0,0,0,0-.08l-.11-.15L115,520l-.07-.08-.14-.14a3.68,3.68,0,0,0-.37-.32l-.2-.13-.2-.13-.19-.13-.17-.08-.1,0-.07,0-.19-.09-.19-.09-.17-.09-.2-.09-.3-.17-.25-.1-.15,0a.51.51,0,0,0-.17-.07.47.47,0,0,0-.17,0h0l-.14,0-.07,0-.07,0-.1,0h0l-.19-.08-.09,0-.21,0-.29,0h-1.22l-.28,0a3,3,0,0,0-.42.06,2.83,2.83,0,0,0-.4.08l-.42.1-.2,0-.21.07-.22.07-.21.07-.18.07-.24.1-.17.08-.22.11-.21.11a3,3,0,0,0-.38.23,7.54,7.54,0,0,0-.63.52l-.16.16-.21.24a4.14,4.14,0,0,0-.38.55l-.14.28c0,.06-.07.12-.1.19l-.17.38a2.29,2.29,0,0,1-.1.23c0,.09-.07.19-.11.28l-.06.16a2.25,2.25,0,0,0-.08.24s0,0,0,.06l0,.15a1.24,1.24,0,0,0,0,.16c0,.14-.07.29-.1.43s-.05.31-.08.46,0,.31-.07.46a2,2,0,0,0,0,.24.77.77,0,0,0,0,.15.19.19,0,0,0,0,.08c0,.14,0,.28,0,.42v.47a1,1,0,0,0,0,.17c0,.1,0,.19,0,.28s0,.32,0,.47a4,4,0,0,0,.13.6l.09.28a.84.84,0,0,1,0,.17l.17.45c0,.14.11.29.17.43l.14.25a3,3,0,0,0,.22.28l.22.24.13.13.16.16.19.16.17.14a3.69,3.69,0,0,0,.4.29l.44.23.38.2.4.19.25.1.17.07.42.16.39.12.19,0,.19,0,.23,0,.09,0,.15,0,.25,0,.18,0h.81l.24,0,.17,0,.46-.07L111,531l.19,0,.2-.06.44-.15.21-.08.23-.1.1,0,.08,0,.18-.1.18-.11.17-.12a1,1,0,0,0,.17-.12l.23-.17.18-.16,0-.05.11-.1,0,0,.1-.11a1,1,0,0,0,.13-.16c.08-.1.17-.2.25-.31a9.91,9.91,0,0,1,.3-.38l.07-.12,0-.07.12-.21.11-.19a1.74,1.74,0,0,1,.1-.19c.06-.12.13-.24.19-.37a1.51,1.51,0,0,0,.09-.18,1.76,1.76,0,0,0,.09-.2c0-.09.08-.18.11-.27l.06-.13c0-.13.11-.25.16-.38s.13-.3.18-.46a1.72,1.72,0,0,0,.07-.21l.06-.21c0-.15.09-.29.13-.44a5.47,5.47,0,0,0,.16-.9c0-.14,0-.28,0-.42v-.54Z" />
    <path d="M345,314.1a.8.8,0,0,0,0-.15l0-.15c0-.07,0-.14-.05-.22l-.06-.23a1.34,1.34,0,0,0-.07-.18.49.49,0,0,0-.06-.13,1,1,0,0,0-.08-.14c-.07-.13-.12-.26-.18-.38l-.2-.37-.12-.21a1,1,0,0,0-.1-.17,1.18,1.18,0,0,0-.11-.19.35.35,0,0,0,0-.08l-.11-.15-.07-.09-.08-.08-.13-.14a3.68,3.68,0,0,0-.38-.31,1.33,1.33,0,0,0-.19-.14l-.2-.12-.19-.13a.91.91,0,0,0-.17-.09l-.11,0-.06,0-.19-.08-.19-.1-.17-.09-.21-.09-.29-.16-.25-.11-.15-.05-.17-.07a.51.51,0,0,0-.17,0h0l-.14,0-.07,0-.07,0-.1,0h0l-.19-.08a.19.19,0,0,0-.08,0,.83.83,0,0,0-.21-.06l-.29,0H338l-.27,0-.42.06-.41.08-.41.1-.2.05-.22.07-.22.07-.2.07-.19.08-.23.1-.18.08-.21.1-.21.11a3,3,0,0,0-.38.23,5.27,5.27,0,0,0-.63.52l-.16.16c-.08.08-.14.16-.21.24a3.67,3.67,0,0,0-.38.56l-.15.27-.09.19c-.06.13-.12.25-.17.38s-.07.16-.1.23-.08.19-.11.28l-.06.16-.09.24s0,0,0,.06l-.05.16s0,.1,0,.15l-.09.43c0,.16-.06.31-.08.46s0,.31-.08.46l0,.24a.77.77,0,0,1,0,.15.22.22,0,0,1,0,.08l0,.42v.65c0,.09,0,.18,0,.28a4,4,0,0,0,.05.47,3,3,0,0,0,.13.59,2.29,2.29,0,0,0,.08.28l.06.17.16.45c.06.15.11.29.18.43l.14.25.21.28a2.73,2.73,0,0,0,.23.25l.13.13.16.15.19.17.16.13a2.78,2.78,0,0,0,.41.29l.43.23.39.2.4.19.24.11.17.06.43.16.39.12.18,0,.2.05.23.05h.08l.15,0,.26,0,.18,0h.8l.24,0,.18,0,.46-.07.38-.07.19-.05.2-.06.43-.15.21-.08.24-.1.1,0,.08,0,.18-.1.18-.11.17-.11.17-.12.22-.18.19-.15.05-.06.11-.1,0,0,.1-.12.13-.15.25-.32.17-.21.13-.17.07-.12.05-.07.12-.2c0-.07.07-.13.1-.2a1.14,1.14,0,0,0,.1-.19c.07-.12.14-.24.2-.36l.09-.19.09-.2.11-.27a.69.69,0,0,0,.05-.13c.06-.13.11-.25.17-.37s.13-.31.18-.47a1.59,1.59,0,0,1,.07-.2l.06-.22.12-.43a5.82,5.82,0,0,0,.17-.91c0-.14,0-.28,0-.42v-.21c0-.11,0-.22,0-.33A1.49,1.49,0,0,0,345,314.1Z" />
    <path d="M151.66,261.58a.77.77,0,0,0,0-.15.83.83,0,0,0,0-.15,1.74,1.74,0,0,0,0-.22l-.06-.24-.06-.17-.06-.13-.09-.15c-.07-.12-.12-.25-.18-.38s-.13-.24-.2-.36l-.12-.21-.09-.18-.12-.18a.22.22,0,0,0,0-.08l-.11-.15-.07-.09-.07-.08-.14-.14c-.12-.12-.25-.22-.37-.32l-.2-.13-.2-.13-.19-.13-.17-.08-.1,0-.07,0-.19-.09-.19-.09-.17-.09-.2-.09c-.11-.05-.2-.12-.3-.17l-.25-.1-.15,0a.61.61,0,0,0-.17-.07.47.47,0,0,0-.17,0h0l-.14,0-.07,0-.07,0-.1,0h0l-.18-.08-.09,0-.21-.05-.29,0h-1.23l-.27,0a3,3,0,0,0-.42.06,3.28,3.28,0,0,0-.41.08l-.41.1-.2.05-.21.07-.22.07-.21.07-.19.07-.23.1-.18.08-.21.11-.21.11a3,3,0,0,0-.38.23,6.21,6.21,0,0,0-.63.52l-.16.16a2.57,2.57,0,0,0-.21.24,4.14,4.14,0,0,0-.38.55c-.05.09-.1.19-.14.28s-.07.12-.1.19-.11.25-.17.38-.07.15-.1.23-.07.19-.11.28l-.06.16a2.25,2.25,0,0,0-.08.24.14.14,0,0,0,0,.06l0,.15c0,.06,0,.11,0,.16l-.09.43c0,.15-.05.31-.08.46s0,.31-.07.46a2,2,0,0,0,0,.24c0,.05,0,.1,0,.15a.19.19,0,0,0,0,.08,3,3,0,0,0,0,.42v.47a1,1,0,0,0,0,.17c0,.1,0,.19,0,.28s0,.32,0,.47a4,4,0,0,0,.13.6l.09.28c0,.05,0,.11.05.17l.17.45c.05.14.11.29.17.43l.14.25.21.28.23.24.13.13.16.16.19.16.17.14a3.69,3.69,0,0,0,.4.29l.43.23.39.2.4.19.24.1.17.07.43.16.39.12.19.05.19.05.23,0,.09,0,.15,0,.25,0,.18,0h.8l.25,0,.17,0,.46-.07.38-.07.19-.05.2-.06.44-.15.2-.08.24-.1.1,0,.08,0,.18-.1.18-.11.17-.12.17-.12.23-.17.18-.16a.12.12,0,0,0,.05-.05l.11-.1,0-.05.1-.11c0-.05.09-.1.13-.16s.17-.2.25-.31a1.84,1.84,0,0,0,.17-.22l.13-.16.07-.12,0-.07.12-.21a1.74,1.74,0,0,0,.1-.19l.11-.19c.06-.12.13-.24.19-.37a1.51,1.51,0,0,0,.09-.18l.09-.2.11-.27.06-.13c.05-.13.1-.25.16-.38s.13-.3.18-.46.05-.14.07-.21l.06-.21.12-.44a4.61,4.61,0,0,0,.17-.9c0-.14,0-.28,0-.42v-.54Z" />
    <path d="M93.55,79.43a.77.77,0,0,0,0-.15.83.83,0,0,0,0-.15,1.74,1.74,0,0,0,0-.22l-.06-.24-.06-.18-.06-.12-.09-.15c-.07-.12-.12-.25-.18-.38l-.2-.37-.12-.2-.09-.18-.12-.19,0-.07-.11-.15-.07-.1a.27.27,0,0,1-.07-.08L92,76.36l-.37-.31-.2-.13-.2-.13-.19-.13-.17-.08-.1,0a.15.15,0,0,1-.07,0l-.19-.08-.19-.1-.17-.08-.2-.09c-.11-.05-.2-.12-.3-.17l-.25-.11-.15,0-.17-.08-.17,0h0a.32.32,0,0,0-.14,0,.11.11,0,0,0-.07,0l-.07,0-.1,0h0l-.18-.08-.09,0-.21,0-.29,0H86.51l-.27,0-.42.06-.41.08-.41.1-.2.06-.21.06-.22.07-.21.08L84,75l-.23.1-.18.08-.21.11-.21.1-.38.23a6.31,6.31,0,0,0-.63.53l-.16.15-.21.24a5,5,0,0,0-.38.56c0,.09-.1.18-.14.27s-.07.13-.1.19L81,78c0,.07-.07.15-.1.23s-.07.18-.11.28l-.06.16a2.25,2.25,0,0,0-.08.24.14.14,0,0,0,0,.06l0,.15s0,.11,0,.16l-.09.43c0,.15,0,.3-.08.46s0,.31-.07.46a2,2,0,0,0,0,.24s0,.1,0,.15a.17.17,0,0,0,0,.07,3,3,0,0,0,0,.42V82a1.09,1.09,0,0,0,0,.18c0,.09,0,.19,0,.28s0,.31,0,.47a4.29,4.29,0,0,0,.13.6l.09.27c0,.06,0,.12.05.17s.11.31.17.46.11.28.17.42l.14.26.21.28.23.24a1.59,1.59,0,0,0,.13.13l.16.15.19.17.17.14a3.6,3.6,0,0,0,.4.28c.14.09.29.16.43.24l.39.2.4.19.24.1.17.07.43.15.39.13.19,0,.19,0,.23,0h.09l.15,0,.25,0,.18,0H87l.25,0,.17,0,.46-.06.38-.07.19,0,.2-.06.44-.15.2-.08.24-.1.1-.05.08,0,.18-.1.18-.11.17-.11.17-.12.23-.18.18-.15s0,0,0-.05a1.14,1.14,0,0,0,.11-.11.08.08,0,0,0,0,0l.1-.11.13-.16.25-.31a1.84,1.84,0,0,0,.17-.22l.13-.17.07-.11.05-.07.12-.21a1.74,1.74,0,0,0,.1-.19l.11-.19c.06-.12.13-.24.19-.37a1.51,1.51,0,0,0,.09-.18l.09-.2.11-.27.06-.14c0-.12.1-.25.16-.37s.13-.3.18-.46,0-.14.07-.21l.06-.21.12-.44a4.61,4.61,0,0,0,.17-.9c0-.14,0-.28,0-.42v-.54Z" />
    <path d="M393.6,56a.77.77,0,0,0,0-.15.83.83,0,0,1,0-.15,1.74,1.74,0,0,0-.05-.22l-.06-.24a.87.87,0,0,0-.07-.17.5.5,0,0,0-.05-.13l-.09-.15c-.07-.12-.12-.25-.18-.38s-.13-.24-.2-.36l-.12-.21-.09-.18-.12-.18a.22.22,0,0,0-.05-.08l-.11-.15-.07-.09a.6.6,0,0,0-.08-.08l-.13-.14a3.79,3.79,0,0,0-.38-.32l-.19-.13-.2-.13-.19-.13-.17-.08-.1,0-.07,0-.19-.09-.19-.09-.17-.09-.21-.09-.29-.17-.25-.1-.15,0a.61.61,0,0,0-.17-.07.47.47,0,0,0-.17,0h0l-.14,0-.07,0-.07,0-.1,0h0l-.18-.08-.09,0-.21-.05-.29,0h-1.23l-.27,0a3,3,0,0,0-.42.06,3.28,3.28,0,0,0-.41.08l-.41.1-.2,0-.22.07-.22.07-.2.07-.19.07-.23.1-.18.08-.21.11-.21.11a3,3,0,0,0-.38.23,5.27,5.27,0,0,0-.63.52l-.16.16-.21.24a4.14,4.14,0,0,0-.38.55c-.05.09-.1.19-.14.28a1.14,1.14,0,0,0-.1.19c-.06.12-.11.25-.17.38s-.07.15-.1.23-.07.19-.11.28l-.06.16-.09.24s0,0,0,.06l0,.15c0,.06,0,.11-.05.16l-.09.43c0,.15-.05.31-.08.46s-.05.31-.08.46l0,.24a.77.77,0,0,1,0,.15.25.25,0,0,1,0,.08c0,.14,0,.28,0,.42v.64c0,.1,0,.19,0,.28s0,.32.05.47a4,4,0,0,0,.13.6c0,.09.06.18.09.28a1.54,1.54,0,0,0,.05.17c.06.15.11.3.16.45s.11.29.18.43l.14.25.21.28.23.24a1.59,1.59,0,0,0,.13.13l.16.16.19.16.17.14a2.92,2.92,0,0,0,.4.29l.43.23.39.2.4.19.24.1.17.07.43.16.39.12.18,0,.2.05.23,0,.09,0,.14,0,.26,0,.18,0h.8l.25,0,.17,0,.46-.07.38-.07.19-.05.2-.06.44-.15.2-.08.24-.1.1,0,.08,0,.18-.1.18-.11.17-.12.17-.12.23-.17.18-.16a.12.12,0,0,0,.05,0l.11-.1,0-.05.1-.11s.09-.1.13-.16.17-.2.25-.31a1.84,1.84,0,0,0,.17-.22l.13-.16.07-.12.05-.07.12-.21a1.74,1.74,0,0,0,.1-.19l.11-.19c.06-.12.13-.24.19-.37l.09-.18.09-.2.11-.27.06-.13c0-.13.1-.25.16-.38s.13-.3.18-.46.05-.14.07-.21l.06-.21.12-.44a4.61,4.61,0,0,0,.17-.9c0-.14,0-.28,0-.42V56.5c0-.11,0-.22,0-.33A1.49,1.49,0,0,0,393.6,56Z" />
    <polygon points="250.16 12.13 237.24 22.98 232.08 16.83 252.14 0 256.89 5.67 256.69 32.49 271.74 19.76 276.9 25.91 255.07 44.23 250.1 38.3 250.16 12.13" />
    <polygon points="170.51 169.82 154.71 163.93 157.51 156.42 182.04 165.56 179.46 172.49 156.03 185.54 174.53 192.36 171.73 199.87 145.02 189.93 147.72 182.68 170.51 169.82" />
    <polygon points="31.66 272.79 9.08 291.89 0 281.15 35.06 251.5 43.43 261.4 43.26 308.44 69.56 286.02 78.65 296.76 40.49 329.03 31.74 318.68 31.66 272.79" />
    <polygon points="510.37 116.31 485.88 99.71 493.77 88.07 531.78 113.83 524.51 124.57 479.17 137.09 507.85 156.37 499.96 168.02 458.59 139.98 466.2 128.76 510.37 116.31" />
    <polygon points="51.77 748.29 27.29 731.7 35.18 720.05 73.19 745.82 65.92 756.55 20.57 769.07 49.26 788.35 41.37 800 0 771.97 7.61 760.74 51.77 748.29" />
    <polygon points="412.89 442.39 389.65 460.68 380.95 449.63 417.04 421.24 425.06 431.43 423.21 478.43 450.3 456.96 459 468.01 419.73 498.91 411.34 488.25 412.89 442.39" />
    <polygon points="278.06 561.29 262.89 555.68 265.56 548.47 289.11 557.17 286.65 563.82 264.21 576.4 281.96 582.89 279.3 590.1 253.67 580.63 256.24 573.67 278.06 561.29" />
    <polygon points="384.06 717.56 371.47 727.72 366.64 721.74 386.18 705.96 390.63 711.48 389.95 737.19 404.61 725.26 409.44 731.25 388.18 748.41 383.53 742.64 384.06 717.56" />
    <polygon points="889.19 359.03 873.6 353.02 876.46 345.61 900.66 354.94 898.03 361.78 874.67 374.44 892.91 381.4 890.05 388.82 863.72 378.66 866.47 371.51 889.19 359.03" />
    <path d="M722.6,49a.77.77,0,0,0,0-.15.83.83,0,0,1,0-.15,1.74,1.74,0,0,0,0-.22l-.06-.24a.87.87,0,0,0-.07-.17.5.5,0,0,0-.05-.13l-.09-.15c-.07-.12-.12-.25-.18-.38s-.13-.24-.2-.36l-.12-.21-.09-.18-.12-.18a.22.22,0,0,0,0-.08l-.11-.15-.07-.09L721.2,46l-.13-.14a3.79,3.79,0,0,0-.38-.32l-.19-.13-.2-.13-.19-.13-.17-.08-.1,0-.07,0-.19-.09-.19-.09-.17-.09-.21-.09-.29-.17-.25-.1-.15,0a.61.61,0,0,0-.17-.07.47.47,0,0,0-.17,0h0l-.14,0-.07,0-.07,0-.1,0h0l-.18-.08-.09,0-.21-.05-.29,0h-1.23l-.27,0a3,3,0,0,0-.42.06,3.28,3.28,0,0,0-.41.08l-.41.1-.2,0-.22.07-.22.07-.2.07-.19.07-.23.1-.18.08-.21.11-.21.11a3,3,0,0,0-.38.23,5.27,5.27,0,0,0-.63.52l-.16.16-.21.24a4.14,4.14,0,0,0-.38.55l-.14.28a1.14,1.14,0,0,0-.1.19c-.06.12-.11.25-.17.38s-.07.15-.1.23-.07.19-.11.28l-.06.16-.09.24s0,0,0,.06l0,.15c0,.06,0,.11-.05.16l-.09.43c0,.15-.05.31-.08.46s0,.31-.08.46l0,.24a.77.77,0,0,1,0,.15.25.25,0,0,1,0,.08c0,.14,0,.28,0,.42v.64c0,.1,0,.19,0,.28s0,.32,0,.47a4,4,0,0,0,.13.6c0,.09.06.18.09.28a1.54,1.54,0,0,0,0,.17c.06.15.11.3.16.45s.11.29.18.43l.14.25.21.28.23.24a1.59,1.59,0,0,0,.13.13c0,.06.11.11.16.16l.19.16.17.14a2.92,2.92,0,0,0,.4.29l.43.23.39.2.4.19.24.1.17.07.43.16.39.12.18.05.2,0,.23,0,.09,0,.14,0,.26,0,.18,0h.8l.25,0,.17,0,.46-.07.38-.07.19,0,.2-.06.44-.15.2-.08.24-.1.1,0,.08,0,.18-.1.18-.11.17-.12.17-.12.23-.17.18-.16,0,0,.11-.1,0-.05.1-.11s.09-.1.13-.16.17-.2.25-.31a1.84,1.84,0,0,0,.17-.22l.13-.16.07-.12.05-.07.12-.21a1.74,1.74,0,0,0,.1-.19l.11-.19c.06-.12.13-.24.19-.37l.09-.18.09-.2.11-.27.06-.13c0-.13.1-.25.16-.38s.13-.3.18-.46l.07-.21.06-.21.12-.44a4.61,4.61,0,0,0,.17-.9c0-.14,0-.28,0-.42V49.5c0-.11,0-.22,0-.33A1.49,1.49,0,0,0,722.6,49Z" />
    <path d="M594.6,405a.77.77,0,0,0,0-.15.83.83,0,0,1,0-.15,1.74,1.74,0,0,0,0-.22l-.06-.24a.87.87,0,0,0-.07-.17.5.5,0,0,0-.05-.13l-.09-.15c-.07-.12-.12-.25-.18-.38s-.13-.24-.2-.36l-.12-.21-.09-.18-.12-.18a.22.22,0,0,0,0-.08l-.11-.15-.07-.09-.08-.08-.13-.14a3.79,3.79,0,0,0-.38-.32l-.19-.13-.2-.13-.19-.13-.17-.08-.1,0-.07,0-.19-.09-.19-.09-.17-.09-.21-.09-.29-.17-.25-.1-.15-.05a.61.61,0,0,0-.17-.07.47.47,0,0,0-.17,0h0l-.14,0-.07,0-.07,0-.1,0h0l-.18-.08-.09,0-.21,0-.29,0h-1.23l-.27,0a3,3,0,0,0-.42.06,3.28,3.28,0,0,0-.41.08l-.41.1-.2.05-.22.07-.22.07-.2.07-.19.07-.23.1-.18.08-.21.11-.21.11a3,3,0,0,0-.38.23,5.27,5.27,0,0,0-.63.52l-.16.16-.21.24a4.14,4.14,0,0,0-.38.55l-.14.28a1.14,1.14,0,0,0-.1.19c-.06.12-.11.25-.17.38s-.07.15-.1.23-.07.19-.11.28l-.06.16-.09.24s0,0,0,.06l0,.15c0,.06,0,.11-.05.16l-.09.43c0,.15-.05.31-.08.46s0,.31-.08.46l0,.24a.77.77,0,0,1,0,.15.25.25,0,0,1,0,.08c0,.14,0,.28,0,.42v.64c0,.1,0,.19,0,.28s0,.32,0,.47a4,4,0,0,0,.13.6c0,.09.06.18.09.28a1.54,1.54,0,0,0,0,.17c.06.15.11.3.16.45s.11.29.18.43l.14.25.21.28.23.24a1.59,1.59,0,0,0,.13.13c0,.06.11.11.16.16l.19.16.17.14a2.92,2.92,0,0,0,.4.29l.43.23.39.2.4.19.24.1.17.07.43.16.39.12.18.05.2.05.23,0,.09,0,.14,0,.26,0,.18,0h.8l.25,0,.17,0,.46-.07.38-.07.19-.05.2-.06.44-.15.2-.08.24-.1.1,0,.08,0,.18-.1.18-.11.17-.12.17-.12.23-.17.18-.16a.12.12,0,0,0,0-.05l.11-.1,0-.05.1-.11c0-.05.09-.1.13-.16s.17-.2.25-.31a1.84,1.84,0,0,0,.17-.22l.13-.16.07-.12.05-.07.12-.21a1.74,1.74,0,0,0,.1-.19l.11-.19c.06-.12.13-.24.19-.37l.09-.18.09-.2.11-.27.06-.13c0-.13.1-.25.16-.38s.13-.3.18-.46l.07-.21.06-.21.12-.44a4.61,4.61,0,0,0,.17-.9c0-.14,0-.28,0-.42v-.21c0-.11,0-.22,0-.33A1.49,1.49,0,0,0,594.6,405Z" />
    <polygon points="741.89 435.39 718.65 453.68 709.95 442.63 746.04 414.24 754.06 424.43 752.21 471.43 779.3 449.96 788 461.01 748.73 491.91 740.34 481.25 741.89 435.39" />
    <polygon points="713.06 710.56 700.47 720.72 695.64 714.74 715.18 698.96 719.63 704.48 718.95 730.19 733.61 718.26 738.44 724.25 717.18 741.41 712.53 735.64 713.06 710.56" />
    <polygon points="748.19 173.03 732.6 167.02 735.46 159.61 759.66 168.94 757.03 175.78 733.67 188.44 751.91 195.4 749.05 202.82 722.72 192.66 725.47 185.51 748.19 173.03" />
    <path d="M1294,637.88a.77.77,0,0,0,0-.15.83.83,0,0,1,0-.15,2.25,2.25,0,0,0,0-.22l-.06-.23a1.34,1.34,0,0,0-.07-.18,1.12,1.12,0,0,0,0-.13l-.09-.14c-.07-.13-.12-.26-.18-.38s-.13-.25-.2-.37l-.12-.21-.09-.17-.12-.19a.35.35,0,0,0,0-.08l-.11-.15-.07-.09-.08-.08-.13-.14a3.68,3.68,0,0,0-.38-.31,1.33,1.33,0,0,0-.19-.14l-.2-.12-.19-.13a.91.91,0,0,0-.17-.09l-.1,0-.07,0-.19-.08-.19-.1-.17-.09-.21-.09-.29-.16-.25-.11-.15-.05-.17-.07a.47.47,0,0,0-.17,0h0l-.14,0-.07,0-.07,0-.1,0h0l-.18-.08-.09,0a.83.83,0,0,0-.21-.06l-.29,0H1287l-.27,0-.42.06-.41.08-.41.1-.2.05-.22.07-.22.07-.2.07-.19.08-.23.1-.18.08-.21.1-.21.11a3,3,0,0,0-.38.23,5.27,5.27,0,0,0-.63.52l-.16.16-.21.24a3.67,3.67,0,0,0-.38.56c0,.09-.1.18-.14.27a1.14,1.14,0,0,0-.1.19l-.17.38c0,.08-.07.16-.1.23s-.07.19-.11.28l-.06.16-.09.24s0,0,0,.06l0,.16,0,.15-.09.43c0,.16-.05.31-.08.46s0,.31-.08.46l0,.24a.77.77,0,0,1,0,.15.22.22,0,0,1,0,.08c0,.14,0,.28,0,.42v.65c0,.09,0,.18,0,.28s0,.31,0,.47a3.87,3.87,0,0,0,.13.59,2.29,2.29,0,0,0,.09.28,1.54,1.54,0,0,0,0,.17c.06.15.11.3.16.45s.11.29.18.43l.14.25.21.28a2.73,2.73,0,0,0,.23.25l.13.13.16.15.19.17.17.13a2.27,2.27,0,0,0,.4.29l.43.23.39.2.4.19.24.11.17.06.43.16.39.12.18,0,.2.05.23,0h.09l.14,0,.26,0,.18,0h.8l.25,0,.17,0,.46-.07.38-.07.19,0,.2-.06.44-.15.2-.08.24-.1.1,0,.08,0,.18-.1.18-.11.17-.11.17-.12.23-.18.18-.15,0-.06.11-.1,0,0,.1-.12.13-.15.25-.32.17-.21.13-.17.07-.12.05-.07.12-.2.1-.2.11-.19.19-.36.09-.19.09-.2.11-.27.06-.13c0-.13.1-.25.16-.37s.13-.31.18-.47.05-.13.07-.2l.06-.22.12-.43a4.85,4.85,0,0,0,.17-.91c0-.14,0-.28,0-.42v-.21c0-.11,0-.22,0-.33A1.49,1.49,0,0,0,1294,637.88Z" />
    <path d="M1087.28,513.84a.77.77,0,0,0,0-.15.83.83,0,0,0,0-.15,1.74,1.74,0,0,0,0-.22,1.05,1.05,0,0,0-.06-.24.85.85,0,0,0-.06-.17l-.06-.13a1.09,1.09,0,0,1-.08-.15c-.07-.12-.13-.25-.19-.38s-.13-.24-.2-.36l-.12-.21-.09-.18-.12-.18,0-.08-.11-.15L1086,511l-.07-.08-.14-.14a3.68,3.68,0,0,0-.37-.32l-.2-.13-.2-.13-.19-.13-.17-.08-.1,0-.07,0-.19-.09-.19-.09-.17-.09-.2-.09-.3-.17-.25-.1-.15-.05a.51.51,0,0,0-.17-.07.47.47,0,0,0-.17,0h0l-.14,0-.07,0-.07,0-.1,0h0l-.19-.08-.09,0-.21,0-.29,0h-1.22l-.28,0a3,3,0,0,0-.42.06,2.83,2.83,0,0,0-.4.08l-.42.1-.2.05-.21.07-.22.07-.21.07-.18.07-.24.1-.17.08-.22.11-.21.11a3,3,0,0,0-.38.23,7.54,7.54,0,0,0-.63.52l-.16.16a2.57,2.57,0,0,0-.21.24,4.14,4.14,0,0,0-.38.55l-.14.28c0,.06-.07.12-.1.19l-.17.38a2.29,2.29,0,0,1-.1.23c0,.09-.07.19-.11.28l-.06.16a2.25,2.25,0,0,0-.08.24s0,0,0,.06l0,.15a1.24,1.24,0,0,0,0,.16c0,.14-.07.29-.1.43s-.05.31-.08.46,0,.31-.07.46a2,2,0,0,0,0,.24.77.77,0,0,0,0,.15.19.19,0,0,0,0,.08c0,.14,0,.28,0,.42v.47a1,1,0,0,0,0,.17c0,.1,0,.19,0,.28s0,.32,0,.47a4,4,0,0,0,.13.6l.09.28a.84.84,0,0,1,0,.17l.17.45c0,.14.11.29.17.43l.14.25a3,3,0,0,0,.22.28l.22.24.13.13.16.16.19.16.17.14a3.69,3.69,0,0,0,.4.29l.44.23.38.2.4.19.25.1.17.07.42.16.39.12.19,0,.19,0,.23,0,.09,0,.15,0,.25,0,.18,0h.81l.24,0,.17,0,.46-.07.38-.07.19,0,.2-.06.44-.15.21-.08.23-.1.1,0,.08,0,.18-.1.18-.11.17-.12a1,1,0,0,0,.17-.12l.23-.17.18-.16,0-.05.11-.1,0,0,.1-.11a1,1,0,0,0,.13-.16c.08-.1.17-.2.25-.31a9.91,9.91,0,0,1,.3-.38l.07-.12.05-.07.12-.21.11-.19a1.74,1.74,0,0,1,.1-.19c.06-.12.13-.24.19-.37a1.51,1.51,0,0,0,.09-.18,1.76,1.76,0,0,0,.09-.2c0-.09.08-.18.11-.27l.06-.13c0-.13.11-.25.16-.38s.13-.3.18-.46a1.72,1.72,0,0,0,.07-.21l.06-.21c0-.15.09-.29.13-.44a5.47,5.47,0,0,0,.16-.9c0-.14,0-.28,0-.42v-.54Z" />
    <path d="M1308,307.1a.8.8,0,0,0,0-.15l0-.15c0-.07,0-.14,0-.22l-.06-.23a1.34,1.34,0,0,0-.07-.18.49.49,0,0,0-.06-.13,1,1,0,0,0-.08-.14c-.07-.13-.12-.26-.18-.38l-.2-.37-.12-.21a1,1,0,0,0-.1-.17,1.18,1.18,0,0,0-.11-.19.35.35,0,0,0-.05-.08l-.11-.15-.07-.09-.08-.08-.13-.14a3.68,3.68,0,0,0-.38-.31,1.33,1.33,0,0,0-.19-.14l-.2-.12-.19-.13a.91.91,0,0,0-.17-.09l-.11,0-.06,0-.19-.08-.19-.1-.17-.09-.21-.09-.29-.16-.25-.11-.15-.05-.17-.07a.51.51,0,0,0-.17,0h0l-.14,0-.07,0-.07,0-.1,0h0l-.19-.08a.19.19,0,0,0-.08,0l-.21-.06-.29,0H1301l-.27,0-.42.06-.41.08-.41.1-.2.05-.22.07-.22.07-.2.07-.19.08-.23.1-.18.08-.21.1-.21.11a3,3,0,0,0-.38.23,5.27,5.27,0,0,0-.63.52l-.16.16c-.08.08-.14.16-.21.24a3.67,3.67,0,0,0-.38.56l-.15.27-.09.19c-.06.13-.12.25-.17.38s-.07.16-.1.23-.08.19-.11.28l-.06.16-.09.24s0,0,0,.06l0,.16s0,.1,0,.15l-.09.43c0,.16-.06.31-.08.46s0,.31-.08.46l0,.24a.77.77,0,0,1,0,.15.22.22,0,0,1,0,.08l0,.42v.65c0,.09,0,.18,0,.28a4,4,0,0,0,0,.47,3,3,0,0,0,.13.59,2.29,2.29,0,0,0,.08.28l.06.17.16.45c.06.15.11.29.18.43l.14.25.21.28a2.73,2.73,0,0,0,.23.25l.13.13.16.15.19.17.16.13a2.78,2.78,0,0,0,.41.29l.43.23.39.2.4.19.24.11.17.06.43.16.39.12.18,0,.2.05.23.05h.08l.15,0,.26,0,.18,0h.8l.24,0,.18,0,.46-.07.38-.07.19-.05.2-.06.43-.15.21-.08.24-.1.1,0,.08,0,.18-.1.18-.11.17-.11.17-.12.22-.18.19-.15,0-.06.11-.1,0,0,.1-.12.13-.15.25-.32.17-.21.13-.17.07-.12,0-.07.12-.2c0-.07.07-.13.1-.2a1.14,1.14,0,0,0,.1-.19c.07-.12.14-.24.2-.36l.09-.19.09-.2.11-.27a.69.69,0,0,0,0-.13c.06-.13.11-.25.17-.37s.13-.31.18-.47a1.59,1.59,0,0,1,.07-.2l.06-.22.12-.43a5.82,5.82,0,0,0,.17-.91c0-.14,0-.28,0-.42s0-.14,0-.21,0-.22,0-.33A1.49,1.49,0,0,0,1308,307.1Z" />
    <path d="M1114.66,254.58a.77.77,0,0,0,0-.15.83.83,0,0,0,0-.15,1.74,1.74,0,0,0,0-.22l-.06-.24-.06-.17-.06-.13-.09-.15c-.07-.12-.12-.25-.18-.38s-.13-.24-.2-.36l-.12-.21-.09-.18-.12-.18a.22.22,0,0,0,0-.08l-.11-.15-.07-.09-.07-.08-.14-.14c-.12-.12-.25-.22-.37-.32l-.2-.13-.2-.13-.19-.13-.17-.08-.1,0-.07,0-.19-.09-.19-.09-.17-.09-.2-.09c-.11-.05-.2-.12-.3-.17l-.25-.1-.15-.05a.61.61,0,0,0-.17-.07.47.47,0,0,0-.17,0h0l-.14,0-.07,0-.07,0-.1,0h0l-.18-.08-.09,0-.21,0-.29,0h-1.23l-.27,0a3,3,0,0,0-.42.06,3.28,3.28,0,0,0-.41.08l-.41.1-.2,0-.21.07-.22.07-.21.07-.19.07-.23.1-.18.08-.21.11-.21.11a3,3,0,0,0-.38.23,6.21,6.21,0,0,0-.63.52l-.16.16-.21.24a4.14,4.14,0,0,0-.38.55l-.14.28c0,.06-.07.12-.1.19s-.11.25-.17.38-.07.15-.1.23-.07.19-.11.28l-.06.16a2.25,2.25,0,0,0-.08.24.14.14,0,0,0,0,.06l0,.15c0,.06,0,.11-.05.16l-.09.43c0,.15,0,.31-.08.46s0,.31-.07.46a2,2,0,0,0,0,.24c0,.05,0,.1,0,.15a.19.19,0,0,0,0,.08,3,3,0,0,0,0,.42v.47a1,1,0,0,0,0,.17c0,.1,0,.19,0,.28s0,.32,0,.47a4,4,0,0,0,.13.6l.09.28c0,.05,0,.11,0,.17l.17.45c0,.14.11.29.17.43l.14.25.21.28.23.24a1.59,1.59,0,0,0,.13.13l.16.16.19.16.17.14a3.69,3.69,0,0,0,.4.29l.43.23.39.2.4.19.24.1.17.07.43.16.39.12.19.05.19.05.23,0,.09,0,.15,0,.25,0,.18,0h.8l.25,0,.17,0,.46-.07.38-.07.19-.05.2-.06.44-.15.2-.08.24-.1.1,0,.08,0,.18-.1.18-.11.17-.12.17-.12.23-.17.18-.16a.12.12,0,0,0,0-.05l.11-.1,0-.05.1-.11c0-.05.09-.1.13-.16s.17-.2.25-.31a1.84,1.84,0,0,0,.17-.22l.13-.16.07-.12,0-.07.12-.21a1.74,1.74,0,0,0,.1-.19l.11-.19c.06-.12.13-.24.19-.37a1.51,1.51,0,0,0,.09-.18l.09-.2.11-.27.06-.13c0-.13.1-.25.16-.38s.13-.3.18-.46l.07-.21.06-.21.12-.44a4.61,4.61,0,0,0,.17-.9c0-.14,0-.28,0-.42v-.54Z" />
    <path d="M1056.55,72.43a.77.77,0,0,0,0-.15.83.83,0,0,0,0-.15,1.74,1.74,0,0,0,0-.22l-.06-.24-.06-.18-.06-.12-.09-.15c-.07-.12-.12-.25-.18-.38l-.2-.37-.12-.2-.09-.18-.12-.19,0-.07-.11-.15-.07-.1a.27.27,0,0,1-.07-.08l-.14-.14-.37-.31-.2-.13-.2-.13-.19-.13-.17-.08-.1,0a.15.15,0,0,1-.07,0l-.19-.08-.19-.1-.17-.08-.2-.09c-.11-.05-.2-.12-.3-.17l-.25-.11-.15,0-.17-.08-.17,0h0a.32.32,0,0,0-.14,0,.11.11,0,0,0-.07,0l-.07,0-.1,0h0l-.18-.08-.09,0-.21,0-.29,0h-1.23l-.27,0-.42.06-.41.08-.41.1-.2.06-.21.06-.22.07-.21.08L1047,68l-.23.1-.18.08-.21.11-.21.1-.38.23a6.31,6.31,0,0,0-.63.53l-.16.15-.21.24a5,5,0,0,0-.38.56c-.05.09-.1.18-.14.27s-.07.13-.1.19L1044,71c0,.07-.07.15-.1.23s-.07.18-.11.28l-.06.16a2.25,2.25,0,0,0-.08.24.14.14,0,0,0,0,.06l0,.15s0,.11,0,.16l-.09.43c0,.15-.05.3-.08.46s0,.31-.07.46a2,2,0,0,0,0,.24s0,.1,0,.15a.17.17,0,0,0,0,.07,3,3,0,0,0,0,.42V75a1.09,1.09,0,0,0,0,.18c0,.09,0,.19,0,.28s0,.31,0,.47a4.29,4.29,0,0,0,.13.6l.09.27c0,.06,0,.12,0,.17s.11.31.17.46.11.28.17.42l.14.26.21.28.23.24a1.59,1.59,0,0,0,.13.13l.16.15.19.17.17.14a3.6,3.6,0,0,0,.4.28c.14.09.29.16.43.24l.39.2.4.19.24.1.17.07.43.15.39.13.19,0,.19,0,.23,0h.09l.15,0,.25,0,.18,0h.8l.25,0,.17,0,.46-.06.38-.07.19,0,.2-.06.44-.15.2-.08.24-.1.1-.05.08,0,.18-.1.18-.11.17-.11.17-.12.23-.18.18-.15.05-.05a1.14,1.14,0,0,0,.11-.11.08.08,0,0,0,0,0l.1-.11.13-.16.25-.31a1.84,1.84,0,0,0,.17-.22l.13-.17.07-.11,0-.07.12-.21a1.74,1.74,0,0,0,.1-.19l.11-.19c.06-.12.13-.24.19-.37a1.51,1.51,0,0,0,.09-.18l.09-.2.11-.27.06-.14c0-.12.1-.25.16-.37s.13-.3.18-.46l.07-.21.06-.21.12-.44a4.61,4.61,0,0,0,.17-.9c0-.14,0-.28,0-.42v-.54Z" />
    <path d="M1356.6,49a.77.77,0,0,0,0-.15.83.83,0,0,1,0-.15,1.74,1.74,0,0,0,0-.22l-.06-.24a.87.87,0,0,0-.07-.17.5.5,0,0,0,0-.13l-.09-.15c-.07-.12-.12-.25-.18-.38s-.13-.24-.2-.36l-.12-.21-.09-.18-.12-.18a.22.22,0,0,0,0-.08l-.11-.15-.07-.09-.08-.08-.13-.14a3.79,3.79,0,0,0-.38-.32l-.19-.13-.2-.13-.19-.13-.17-.08-.1,0-.07,0-.19-.09-.19-.09-.17-.09-.21-.09-.29-.17-.25-.1-.15,0a.61.61,0,0,0-.17-.07.47.47,0,0,0-.17,0h0l-.14,0-.07,0-.07,0-.1,0h0l-.18-.08-.09,0-.21-.05-.29,0h-1.23l-.27,0-.42.06a3.28,3.28,0,0,0-.41.08l-.41.1-.2,0-.22.07-.22.07-.2.07-.19.07-.23.1-.18.08-.21.11-.21.11a3,3,0,0,0-.38.23,5.27,5.27,0,0,0-.63.52,1.21,1.21,0,0,0-.16.16l-.21.24a4.14,4.14,0,0,0-.38.55c0,.09-.1.19-.14.28a1.14,1.14,0,0,0-.1.19c-.06.12-.11.25-.17.38s-.07.15-.1.23-.07.19-.11.28l-.06.16-.09.24s0,0,0,.06l0,.15c0,.06,0,.11,0,.16l-.09.43c0,.15,0,.31-.08.46s-.05.31-.08.46l0,.24a.77.77,0,0,1,0,.15.25.25,0,0,1,0,.08c0,.14,0,.28,0,.42v.64c0,.1,0,.19,0,.28s0,.32,0,.47a4,4,0,0,0,.13.6c0,.09.06.18.09.28a1.54,1.54,0,0,0,0,.17c.06.15.11.3.16.45s.11.29.18.43l.14.25.21.28.23.24.13.13.16.16.19.16.17.14a2.92,2.92,0,0,0,.4.29l.43.23.39.2.4.19.24.1.17.07.43.16.39.12.18.05.2,0,.23,0,.09,0,.14,0,.26,0,.18,0h.8l.25,0,.17,0,.46-.07.38-.07.19,0,.2-.06.44-.15.2-.08.24-.1.1,0,.08,0,.18-.1.18-.11.17-.12.17-.12.23-.17.18-.16,0,0,.11-.1,0-.05.1-.11s.09-.1.13-.16.17-.2.25-.31a1.84,1.84,0,0,0,.17-.22l.13-.16.07-.12,0-.07.12-.21a1.74,1.74,0,0,0,.1-.19l.11-.19c.06-.12.13-.24.19-.37l.09-.18.09-.2.11-.27.06-.13c.05-.13.1-.25.16-.38s.13-.3.18-.46l.07-.21.06-.21.12-.44a4.61,4.61,0,0,0,.17-.9c0-.14,0-.28,0-.42V49.5c0-.11,0-.22,0-.33A1.49,1.49,0,0,0,1356.6,49Z" />
    <polygon points="1211.15 12.13 1198.24 22.98 1193.08 16.83 1213.14 0 1217.89 5.67 1217.69 32.49 1232.74 19.76 1237.9 25.91 1216.07 44.23 1211.1 38.3 1211.15 12.13" />
    <polygon points="1133.51 162.82 1117.71 156.93 1120.51 149.42 1145.04 158.56 1142.46 165.49 1119.03 178.54 1137.53 185.36 1134.73 192.87 1108.02 182.93 1110.72 175.68 1133.51 162.82" />
    <polygon points="587.51 274.82 571.71 268.93 574.51 261.42 599.04 270.56 596.46 277.49 573.03 290.54 591.53 297.36 588.73 304.87 562.02 294.93 564.72 287.68 587.51 274.82" />
    <polygon points="576.51 603.82 560.71 597.93 563.51 590.42 588.04 599.56 585.46 606.49 562.03 619.54 580.53 626.36 577.73 633.87 551.02 623.93 553.72 616.68 576.51 603.82" />
    <polygon points="920.51 574.82 904.71 568.93 907.51 561.42 932.04 570.56 929.46 577.49 906.03 590.54 924.53 597.36 921.73 604.87 895.02 594.93 897.72 587.68 920.51 574.82" />
    <polygon points="913.66 131.79 891.08 150.89 882 140.15 917.06 110.5 925.43 120.4 925.25 167.44 951.56 145.02 960.65 155.76 922.5 188.03 913.74 177.68 913.66 131.79" />
    <polygon points="1176.37 334.31 1151.88 317.71 1159.77 306.07 1197.78 331.83 1190.51 342.57 1145.16 355.08 1173.85 374.37 1165.96 386.02 1124.59 357.98 1132.2 346.76 1176.37 334.31" />
    <polygon points="1166.31 748.29 1141.83 731.7 1149.72 720.05 1187.73 745.82 1180.45 756.55 1135.11 769.07 1163.79 788.35 1155.9 800 1114.54 771.97 1122.14 760.74 1166.31 748.29" />
    <polygon points="1373.89 435.39 1350.65 453.68 1341.95 442.63 1378.04 414.24 1386.06 424.43 1384.21 471.43 1411.3 449.96 1420 461.01 1380.73 491.91 1372.34 481.25 1373.89 435.39" />
    <polygon points="1241.06 554.29 1225.89 548.68 1228.56 541.47 1252.11 550.17 1249.65 556.82 1227.21 569.4 1244.96 575.89 1242.3 583.1 1216.67 573.63 1219.24 566.67 1241.06 554.29" />
    <polygon points="1347.06 710.56 1334.47 720.72 1329.64 714.74 1349.18 698.96 1353.63 704.48 1352.95 730.19 1367.61 718.26 1372.44 724.25 1351.18 741.41 1346.53 735.64 1347.06 710.56" />
    <polygon points="1382.19 173.03 1366.6 167.02 1369.46 159.61 1393.66 168.94 1391.03 175.78 1367.67 188.44 1385.91 195.4 1383.05 202.82 1356.72 192.66 1359.47 185.51 1382.19 173.03" />
  </g>
</svg>
