<svg width="1354px" height="574px" viewBox="0 0 1354 604" version="1.1" xmlns="http://www.w3.org/2000/svg" xmlns:xlink="http://www.w3.org/1999/xlink">
  <title>Group 23</title>
  <g id="Desktop-Intake-Quiz" stroke="none" stroke-width="1" fill="none" fill-rule="evenodd">
    <g id="Desktop-Quiz-/-01-Copy" transform="translate(-43.000000, -81.000000)">
      <g id="Group-23" transform="translate(43.000000, 81.000000)" fill="#FECE02">
        <path d="M41.6376,34.5889 C56.7836,35.3809 68.7056,41.9829 76.6206,55.3839 C77.1066,56.2069 77.4216,57.1299 77.9096,57.9509 C78.6906,59.2669 78.0866,59.8879 76.8896,60.3649 C74.5536,61.2979 72.2376,62.2829 69.9096,63.2399 C49.0746,71.8099 28.2396,80.3769 7.4036,88.9449 C7.0716,89.0819 6.7366,89.2139 6.4006,89.3419 C3.8776,90.3069 3.7166,90.3169 2.9076,87.6299 C-1.4434,73.1809 1.2196,60.0519 10.9496,48.5889 C18.8516,39.2779 29.3206,35.0849 41.6376,34.5889" id="Fill-1"></path>
        <path d="M1044.1986,208.5088 C1059.3436,209.3008 1071.2656,215.9028 1079.1806,229.3038 C1079.6666,230.1268 1079.9836,231.0488 1080.4696,231.8718 C1081.2426,233.1828 1080.6676,233.8078 1079.4516,234.2878 C1077.1106,235.2118 1074.7976,236.2028 1072.4696,237.1598 C1051.6356,245.7298 1030.7996,254.2978 1009.9636,262.8648 C1009.6316,263.0018 1009.2966,263.1338 1008.9616,263.2618 C1006.4376,264.2268 1006.2766,264.2378 1005.4676,261.5498 C1001.1176,247.1018 1003.7796,233.9718 1013.5096,222.5088 C1021.4116,213.1978 1031.8806,209.0048 1044.1986,208.5088" id="Fill-3"></path>
        <path d="M612.3832,75.9004 C612.6432,52.5834 631.0792,34.2724 653.3092,34.8154 C668.4532,35.1854 680.1012,42.1244 687.9732,55.1774 C688.4052,55.8954 688.8052,56.6384 689.1502,57.4014 C690.1452,59.6064 690.1402,59.6324 688.0372,60.5674 C686.5052,61.2494 684.9472,61.8734 683.3962,62.5114 C661.7862,71.4024 640.1772,80.2904 618.5672,89.1794 C618.4562,89.2254 618.3432,89.2664 618.2322,89.3104 C615.3482,90.4494 615.3342,90.4474 614.3022,87.3394 C612.9652,83.3174 612.5192,79.1574 612.3832,75.9004" id="Fill-5"></path>
        <path d="M1198.3832,242.9004 C1198.6432,219.5834 1217.0792,201.2724 1239.3092,201.8154 C1254.4532,202.1854 1266.1012,209.1244 1273.9732,222.1774 C1274.4052,222.8954 1274.8052,223.6384 1275.1502,224.4014 C1276.1452,226.6064 1276.1402,226.6324 1274.0372,227.5674 C1272.5052,228.2494 1270.9472,228.8734 1269.3962,229.5114 C1247.7862,238.4024 1226.1772,247.2904 1204.5672,256.1794 C1204.4562,256.2254 1204.3432,256.2664 1204.2322,256.3104 C1201.3482,257.4494 1201.3342,257.4474 1200.3022,254.3394 C1198.9652,250.3174 1198.5192,246.1574 1198.3832,242.9004" id="Fill-5-Copy" transform="translate(1237.088661, 229.405221) scale(-1, 1) translate(-1237.088661, -229.405221) "></path>
        <path d="M933.7767,114.5112 C933.9027,118.6362 933.2477,122.6442 931.9417,126.5432 C931.1487,128.9092 931.0887,128.9382 928.6517,127.9862 C919.2727,124.3232 909.9087,120.6242 900.5347,116.9492 C886.9207,111.6132 873.3007,106.2872 859.6847,100.9552 C859.2387,100.7812 858.7947,100.5992 858.3527,100.4132 C855.8487,99.3582 855.7607,99.3132 857.0087,96.8302 C863.3927,84.1342 873.6567,76.5592 887.6557,74.3852 C908.4327,71.1592 929.5477,85.0862 933.3497,108.0592 C933.7057,110.2062 933.7297,112.3562 933.7767,114.5112" id="Fill-7"></path>
        <path d="M733.6937,226.6196 C738.9567,214.5076 747.7137,206.4456 760.2547,202.9946 C775.2447,198.8696 788.7207,202.3776 799.6727,213.3046 C810.6347,224.2416 813.8687,237.6816 810.0937,252.7446 C809.9777,253.2076 809.8357,253.6666 809.6727,254.1176 C808.8577,256.3626 808.8287,256.4276 806.6517,255.5746 C782.7657,246.2236 758.8887,236.8526 735.0137,227.4766 C734.6907,227.3496 734.4167,227.0946 733.6937,226.6196" id="Fill-9"></path>
        <path d="M221.102,517.8584 C236.195,518.5234 248.103,525.2914 256.042,538.7984 C256.526,539.6214 256.855,540.5324 257.296,541.3814 C257.774,542.3014 257.671,542.9654 256.615,543.3504 C255.941,543.5954 255.289,543.8994 254.624,544.1734 C231.935,553.5074 209.246,562.8414 186.556,572.1754 C186.002,572.4034 185.414,572.5694 184.899,572.8634 C183.596,573.6064 183.003,573.1134 182.534,571.8124 C180.804,567.0184 179.974,562.0714 180.2,557.0044 C181.074,537.3054 195.071,521.5694 214.539,518.3584 C216.538,518.0284 218.592,518.0394 221.102,517.8584" id="Fill-11" transform="translate(218.866330, 545.534709) scale(-1, 1) translate(-218.866330, -545.534709) "></path>
        <path d="M1353.6176,428.8555 C1353.7676,432.4915 1353.1146,436.5045 1351.8696,440.4165 C1351.0466,443.0015 1350.9716,443.0275 1348.3456,442.0015 C1336.9566,437.5535 1325.5816,433.0715 1314.1976,428.6115 C1302.2566,423.9325 1290.3066,419.2715 1278.3686,414.5845 C1275.6326,413.5095 1275.6446,413.4755 1276.8766,410.7775 C1284.6566,393.7295 1305.3986,384.2505 1323.6636,389.3955 C1341.6776,394.4705 1353.5856,409.9645 1353.6176,428.8555" id="Fill-13"></path>
        <path d="M1214.9896,61.7729 C1202.5296,61.5399 1190.0696,61.3149 1177.6096,61.0689 C1174.8376,61.0139 1174.7026,60.9639 1174.9636,58.2039 C1176.0726,46.4759 1181.3196,36.8739 1190.6856,29.8369 C1203.0966,20.5119 1216.8826,18.7899 1231.0876,24.8429 C1245.3406,30.9159 1253.2436,42.2709 1255.4206,57.5669 C1256.1106,62.4159 1255.8806,62.6679 1250.9316,62.4689 C1238.9546,61.9879 1226.9706,61.9519 1214.9896,61.7729" id="Fill-15"></path>
        <path d="M1134.0199,471.2895 C1121.5599,471.0575 1109.0999,470.8335 1096.6399,470.5875 C1093.8869,470.5335 1093.7359,470.4715 1094.0019,467.7125 C1095.1459,455.8535 1100.4759,446.1765 1110.0229,439.1385 C1122.5199,429.9245 1136.3049,428.3365 1150.4629,434.5135 C1164.5309,440.6505 1172.3169,451.9465 1174.4609,467.0975 C1175.1429,471.9105 1174.8899,472.1895 1169.9609,471.9895 C1157.9849,471.5025 1146.0009,471.4785 1134.0199,471.2895" id="Fill-17"></path>
        <path d="M323.0199,41.2895 C310.5599,41.0575 298.0999,40.8335 285.6399,40.5875 C282.8869,40.5335 282.7359,40.4715 283.0019,37.7125 C284.1459,25.8535 289.4759,16.1765 299.0229,9.1385 C311.5199,-0.0755 325.3049,-1.6635 339.4629,4.5135 C353.5309,10.6505 361.3169,21.9465 363.4609,37.0975 C364.1429,41.9105 363.8899,42.1895 358.9609,41.9895 C346.9849,41.5025 335.0009,41.4785 323.0199,41.2895" id="Fill-17-Copy"></path>
        <path d="M179.7475,228.6519 C167.2815,228.4199 154.8155,228.1939 142.3495,227.9519 C139.2755,227.8919 139.1585,227.7289 139.5375,224.5969 C141.8005,205.9039 155.3355,191.4629 174.0985,188.8209 C199.8395,185.1969 218.6335,204.9169 220.0455,225.3549 C220.0955,226.0719 220.0975,226.7919 220.1355,227.5099 C220.2055,228.8619 219.6305,229.4759 218.2245,229.3879 C216.7905,229.2979 215.3465,229.3909 213.9095,229.3199 C202.5285,228.7629 191.1355,228.8739 179.7475,228.6519" id="Fill-19"></path>
        <path d="M54.7826,380.0107 C42.1966,379.7777 29.6096,379.5547 17.0246,379.3027 C14.4736,379.2517 14.2976,379.0717 14.5496,376.6297 C16.9786,353.0497 36.7726,339.9607 54.2296,339.7167 C72.5696,339.4597 90.7876,352.3727 94.6566,372.8387 C95.0336,374.8277 95.0526,376.8867 95.2086,378.9167 C95.3156,380.3047 94.6276,380.8327 93.2586,380.7477 C91.8246,380.6597 90.3826,380.7207 88.9446,380.6877 C77.5576,380.4247 66.1716,380.1537 54.7846,379.8857 C54.7836,379.9277 54.7826,379.9687 54.7826,380.0107" id="Fill-21"></path>
      </g>
    </g>
  </g>
</svg>
