<svg xmlns="http://www.w3.org/2000/svg" viewBox="0 0 1420 800">
  <g fill="#ececec" fill-rule="evenodd">
    <path d="M236.59,133.73l-.61.59c-4,3.59-8.31,6.83-12.65,10s-8.68,6.67-13.05,10c-3.09,2.32-6.24,4.56-9.4,6.78a2.15,2.15,0,0,0,2.47,3.53q7.28-5.09,14.37-10.4c2.05-1.55,4.08-3.13,6.18-4.61,2.36-1.67,4.72-3.33,7.07-5,1.79-1.28,3.56-2.59,5.32-3.91.86-.63,1.71-1.25,2.6-1.83.4-.26.82-.49,1.24-.72.18-.1.36-.18.53-.29a3.29,3.29,0,0,0,1.17-1.39,2.87,2.87,0,0,0-.25-2.82,2.91,2.91,0,0,0-1.14-.95,2.87,2.87,0,0,0-1.42-.25,5.16,5.16,0,0,0-.94.23,3.85,3.85,0,0,0-.68.37,6.54,6.54,0,0,0-.81.7" />
    <path d="M476.5,413.26l-.61.59c-4,3.59-8.31,6.83-12.65,10s-8.68,6.68-13.05,10c-3.09,2.32-6.24,4.56-9.4,6.78a2.15,2.15,0,0,0,2.47,3.53q7.28-5.08,14.37-10.41c2.05-1.54,4.08-3.12,6.18-4.6,2.36-1.67,4.73-3.33,7.08-5,1.78-1.28,3.55-2.6,5.31-3.91.86-.63,1.71-1.25,2.6-1.83.4-.26.82-.49,1.24-.72.18-.1.36-.18.53-.29a3.26,3.26,0,0,0,1.17-1.4,2.86,2.86,0,0,0-.25-2.81,2.91,2.91,0,0,0-1.14-1,2.87,2.87,0,0,0-1.42-.25,5.16,5.16,0,0,0-.94.23,3.29,3.29,0,0,0-.68.37,6.54,6.54,0,0,0-.81.7" />
    <path d="M126.39,530.36l-.85.1c-5.36.41-10.75.36-16.13.25s-11,0-16.42,0c-3.86,0-7.73-.18-11.59-.34a2.16,2.16,0,0,0-.18,4.31q8.86.38,17.74.48c2.56,0,5.13,0,7.7.1,2.89.11,5.77.23,8.66.32,2.2.08,4.4.11,6.6.14,1.06,0,2.12,0,3.18.12.47,0,1,.11,1.42.18a5.77,5.77,0,0,0,.6.1,3.35,3.35,0,0,0,1.78-.4,2.82,2.82,0,0,0,1.18-3.83,2.91,2.91,0,0,0-1-1.06,4.71,4.71,0,0,0-.89-.39,3.45,3.45,0,0,0-.76-.13,8.8,8.8,0,0,0-1.07.07" />
    <path d="M328.88,373.54l-.85.09c-5.36.42-10.75.37-16.13.26s-10.94,0-16.42,0c-3.86,0-7.72-.17-11.58-.33a2.16,2.16,0,0,0-.19,4.31q8.87.38,17.74.48c2.57,0,5.14,0,7.7.1,2.89.1,5.78.23,8.67.32,2.2.07,4.39.1,6.59.14,1.07,0,2.12,0,3.18.12.48,0,1,.11,1.42.18.2,0,.4.08.6.09a3.25,3.25,0,0,0,1.78-.39,2.86,2.86,0,0,0,1.51-2.39,2.78,2.78,0,0,0-.33-1.44,2.68,2.68,0,0,0-1-1.06,5,5,0,0,0-.88-.4,4.16,4.16,0,0,0-.77-.12,8.93,8.93,0,0,0-1.07.07" />
    <path d="M403.71,149.59l-.84.09c-5.37.41-10.76.37-16.13.26s-10.95,0-16.42,0c-3.86,0-7.73-.17-11.59-.34a2.16,2.16,0,0,0-.18,4.31q8.86.39,17.73.48c2.57,0,5.14,0,7.71.1,2.89.11,5.77.24,8.66.33,2.2.07,4.4.1,6.6.13,1.06,0,2.12.05,3.18.13a13.78,13.78,0,0,1,1.42.18c.2,0,.39.08.59.09a3.32,3.32,0,0,0,1.78-.39,2.85,2.85,0,0,0,1.51-2.39,2.93,2.93,0,0,0-.32-1.45,2.85,2.85,0,0,0-1-1.06,4.62,4.62,0,0,0-.88-.39,3.46,3.46,0,0,0-.77-.12,6.15,6.15,0,0,0-1.07.07" />
    <path d="M444.43,645.92l-.84.09c-5.37.41-10.76.37-16.13.26s-10.95,0-16.42,0c-3.86,0-7.73-.18-11.59-.34a2.16,2.16,0,0,0-.18,4.31q8.87.39,17.73.48c2.57,0,5.14,0,7.71.1,2.88.11,5.77.24,8.66.33,2.2.07,4.4.1,6.6.13,1.06,0,2.12,0,3.18.13a13.78,13.78,0,0,1,1.42.18c.19,0,.39.07.59.09a3.32,3.32,0,0,0,1.78-.39,2.85,2.85,0,0,0,1.51-2.39,2.93,2.93,0,0,0-.32-1.45,2.85,2.85,0,0,0-1-1.06,4.92,4.92,0,0,0-.88-.39,3.46,3.46,0,0,0-.77-.12,6.15,6.15,0,0,0-1.07.07" />
    <path d="M297,256.34l-.84.09c-5.37.41-10.75.37-16.13.26s-10.95,0-16.42,0c-3.86,0-7.73-.18-11.59-.34a2.16,2.16,0,0,0-.18,4.31q8.86.39,17.73.48c2.57,0,5.14,0,7.71.1,2.89.11,5.77.24,8.66.33,2.2.07,4.4.1,6.6.13,1.06,0,2.12.05,3.18.13a13.78,13.78,0,0,1,1.42.18c.2,0,.39.07.59.09a3.32,3.32,0,0,0,1.78-.39,2.83,2.83,0,0,0,.21-4.9,4.62,4.62,0,0,0-.88-.39,3.46,3.46,0,0,0-.77-.12,6.15,6.15,0,0,0-1.07.07" />
    <path d="M403.71,149.59l-.84.09c-5.37.41-10.76.37-16.13.26s-10.95,0-16.42,0c-3.86,0-7.73-.17-11.59-.34a2.16,2.16,0,0,0-.18,4.31q8.86.39,17.73.48c2.57,0,5.14,0,7.71.1,2.89.11,5.77.24,8.66.33,2.2.07,4.4.1,6.6.13,1.06,0,2.12.05,3.18.13a13.78,13.78,0,0,1,1.42.18c.2,0,.39.08.59.09a3.32,3.32,0,0,0,1.78-.39,2.85,2.85,0,0,0,1.51-2.39,2.93,2.93,0,0,0-.32-1.45,2.85,2.85,0,0,0-1-1.06,4.62,4.62,0,0,0-.88-.39,3.46,3.46,0,0,0-.77-.12,6.15,6.15,0,0,0-1.07.07" />
    <path d="M397.89,557.47l-.74-.41c-4.63-2.75-9-5.89-13.34-9.08s-9-6.28-13.41-9.48c-3.13-2.25-6.21-4.59-9.28-6.94a2.15,2.15,0,0,0-2.63,3.41q7,5.43,14.23,10.61c2.08,1.5,4.19,3,6.24,4.52,2.29,1.75,4.58,3.51,6.89,5.25,1.76,1.33,3.54,2.62,5.32,3.91.86.63,1.71,1.26,2.53,1.93.36.31.71.64,1.05,1,.15.14.28.29.44.42a3.23,3.23,0,0,0,1.68.7,2.86,2.86,0,0,0,2.61-1.08,2.76,2.76,0,0,0,.56-1.37,2.91,2.91,0,0,0-.18-1.43,5.38,5.38,0,0,0-.5-.83,3.48,3.48,0,0,0-.56-.54,7.4,7.4,0,0,0-.91-.56" />
    <path d="M397.16,785.85l-.35-.78c-2-5-3.63-10.12-5.17-15.28s-3.36-10.41-5-15.64c-1.14-3.69-2.19-7.41-3.21-11.14a2.16,2.16,0,0,0-4.16,1.14q2.34,8.57,4.95,17c.76,2.45,1.57,4.89,2.26,7.36.77,2.79,1.54,5.58,2.33,8.36.6,2.11,1.24,4.21,1.88,6.32.31,1,.61,2,.86,3.06.11.47.18.94.26,1.41,0,.2,0,.4.09.6a3.27,3.27,0,0,0,.92,1.57,2.84,2.84,0,0,0,4,0,2.82,2.82,0,0,0,.72-1.25,5.21,5.21,0,0,0,.1-1,3.78,3.78,0,0,0-.12-.77,9.13,9.13,0,0,0-.39-1" />
    <path d="M130.29,235c-.12-.26-.24-.52-.35-.78-2-5-3.63-10.13-5.17-15.28s-3.36-10.42-5-15.65c-1.14-3.69-2.19-7.41-3.22-11.13a2.16,2.16,0,1,0-4.16,1.14c1.56,5.7,3.2,11.38,5,17,.76,2.45,1.56,4.9,2.25,7.37.78,2.78,1.54,5.57,2.34,8.35.6,2.12,1.24,4.22,1.88,6.32.31,1,.61,2,.85,3.07a13,13,0,0,1,.26,1.41c0,.19,0,.39.1.59A3.3,3.3,0,0,0,126,239a2.86,2.86,0,0,0,2.73.71,2.81,2.81,0,0,0,2-2,5.13,5.13,0,0,0,.11-1,3.79,3.79,0,0,0-.12-.76,8.41,8.41,0,0,0-.39-1" />
    <path d="M110.48,53.74c-.12-.25-.24-.51-.35-.77-2-5-3.63-10.13-5.17-15.29S101.6,27.27,100,22c-1.14-3.69-2.19-7.41-3.22-11.14A2.16,2.16,0,0,0,92.6,12q2.34,8.57,5,17c.76,2.45,1.56,4.89,2.25,7.37.78,2.78,1.54,5.57,2.34,8.35.6,2.11,1.24,4.22,1.88,6.32.31,1,.61,2,.86,3.07.11.46.18.93.26,1.4,0,.2,0,.4.09.6a3.27,3.27,0,0,0,.92,1.57,2.84,2.84,0,0,0,2.73.71,2.74,2.74,0,0,0,1.28-.75,2.8,2.8,0,0,0,.71-1.25,5.13,5.13,0,0,0,.11-1,3.78,3.78,0,0,0-.12-.77,10,10,0,0,0-.39-1" />
    <path d="M102.77,740.67l-.34-.78c-2-5-3.64-10.12-5.17-15.28s-3.36-10.42-5-15.64c-1.15-3.69-2.2-7.41-3.22-11.14A2.16,2.16,0,0,0,84.9,699c1.56,5.71,3.2,11.39,5,17,.76,2.45,1.56,4.89,2.25,7.36.78,2.79,1.54,5.57,2.33,8.35.61,2.12,1.25,4.22,1.89,6.33.31,1,.6,2,.85,3.06.11.46.19.94.26,1.41a5.58,5.58,0,0,0,.1.59,3.31,3.31,0,0,0,.91,1.58,2.88,2.88,0,0,0,2.74.71,2.82,2.82,0,0,0,2-2,5.21,5.21,0,0,0,.1-1,3.19,3.19,0,0,0-.12-.77,6,6,0,0,0-.39-1" />
    <path d="M162.73,622.86c.11-.27.21-.53.31-.8,2.09-5,4.59-9.73,7.15-14.46s5-9.74,7.54-14.58c1.8-3.42,3.69-6.79,5.6-10.15a2.16,2.16,0,0,0-3.75-2.14q-4.4,7.71-8.54,15.55c-1.19,2.27-2.35,4.57-3.61,6.81-1.42,2.52-2.85,5-4.26,7.55-1.07,1.92-2.1,3.86-3.14,5.81-.5.93-1,1.86-1.56,2.77-.25.4-.53.79-.81,1.17-.12.17-.25.32-.36.49a3.32,3.32,0,0,0-.46,1.77,2.84,2.84,0,0,0,1.43,2.43,2.84,2.84,0,0,0,2.82,0,4.89,4.89,0,0,0,.76-.6,4.31,4.31,0,0,0,.46-.63,6.24,6.24,0,0,0,.42-1" />
    <path d="M267.83,669.08c.1-.27.21-.53.31-.8,2.08-5,4.59-9.73,7.15-14.46s5-9.74,7.54-14.58c1.8-3.42,3.69-6.79,5.6-10.15a2.16,2.16,0,0,0-3.75-2.14q-4.4,7.71-8.54,15.55c-1.2,2.28-2.35,4.57-3.61,6.81-1.42,2.52-2.86,5-4.26,7.55-1.07,1.93-2.1,3.87-3.14,5.81-.5.93-1,1.86-1.56,2.77-.25.4-.53.79-.81,1.18-.12.16-.25.31-.36.48a3.32,3.32,0,0,0-.46,1.77,2.84,2.84,0,0,0,1.43,2.43,2.75,2.75,0,0,0,1.43.37,2.71,2.71,0,0,0,1.39-.38,4.39,4.39,0,0,0,.75-.6,3.21,3.21,0,0,0,.46-.63,6.19,6.19,0,0,0,.43-1" />
    <path d="M213.36,464.93l.3-.79c2.09-5,4.6-9.73,7.16-14.46s5-9.74,7.53-14.59c1.8-3.41,3.69-6.79,5.6-10.14a2.15,2.15,0,0,0-3.74-2.14q-4.4,7.71-8.54,15.55c-1.2,2.27-2.36,4.57-3.62,6.8-1.42,2.52-2.85,5-4.26,7.56-1.06,1.92-2.1,3.86-3.13,5.8-.5.94-1,1.87-1.57,2.77-.25.41-.53.8-.81,1.18a5.48,5.48,0,0,0-.35.49,3.23,3.23,0,0,0-.47,1.76,2.83,2.83,0,0,0,2.87,2.81,2.82,2.82,0,0,0,1.39-.38,4.35,4.35,0,0,0,.75-.61,3.64,3.64,0,0,0,.46-.62,8.08,8.08,0,0,0,.43-1" />
    <path d="M410.9,267.94l.3-.79c2.09-5,4.6-9.73,7.16-14.46s5-9.74,7.53-14.59c1.8-3.41,3.7-6.79,5.6-10.14a2.15,2.15,0,1,0-3.74-2.14q-4.39,7.71-8.54,15.55c-1.2,2.27-2.36,4.57-3.62,6.8-1.42,2.52-2.85,5-4.25,7.56-1.07,1.92-2.11,3.86-3.14,5.8-.5.94-1,1.87-1.57,2.77a13.68,13.68,0,0,1-.81,1.18,5.48,5.48,0,0,0-.35.49,3.3,3.3,0,0,0-.47,1.76,2.83,2.83,0,0,0,2.87,2.81,2.82,2.82,0,0,0,1.39-.38,4.88,4.88,0,0,0,.75-.61,3.17,3.17,0,0,0,.46-.62,8.08,8.08,0,0,0,.43-1" />
    <path d="M5.9,373.59l.3-.79c2.09-5,4.59-9.73,7.15-14.46s5-9.74,7.54-14.59c1.8-3.41,3.69-6.79,5.6-10.15a2.15,2.15,0,1,0-3.74-2.13Q18.34,339.18,14.2,347c-1.19,2.27-2.35,4.56-3.61,6.8-1.42,2.52-2.85,5-4.26,7.56-1.06,1.92-2.1,3.86-3.13,5.8-.5.94-1,1.87-1.57,2.77-.25.41-.53.79-.81,1.18a4.34,4.34,0,0,0-.35.49A3.21,3.21,0,0,0,0,373.38a2.87,2.87,0,0,0,1.43,2.44,2.91,2.91,0,0,0,1.44.37,2.93,2.93,0,0,0,1.39-.38A6.24,6.24,0,0,0,5,375.2a3.68,3.68,0,0,0,.46-.63,7.27,7.27,0,0,0,.43-1" />
    <path d="M313,93.51c.11-.26.21-.53.31-.79,2.09-5,4.59-9.73,7.15-14.46s5-9.74,7.54-14.59c1.8-3.41,3.69-6.79,5.6-10.15a2.16,2.16,0,1,0-3.75-2.13q-4.4,7.71-8.54,15.55c-1.2,2.27-2.35,4.57-3.61,6.8-1.42,2.52-2.85,5-4.26,7.56-1.07,1.92-2.1,3.86-3.14,5.8-.5.94-1,1.87-1.56,2.77-.25.41-.53.8-.81,1.18-.12.16-.25.32-.36.49a3.29,3.29,0,0,0-.46,1.76,2.83,2.83,0,0,0,2.86,2.81,2.82,2.82,0,0,0,1.39-.38,5,5,0,0,0,.76-.61,4.27,4.27,0,0,0,.46-.62,8.19,8.19,0,0,0,.42-1" />
    <path d="M1133.59,124.73l-.61.59c-4,3.59-8.31,6.83-12.65,10s-8.68,6.67-13,10c-3.09,2.32-6.24,4.56-9.4,6.78a2.15,2.15,0,0,0,2.47,3.53q7.28-5.09,14.37-10.4c2-1.55,4.08-3.13,6.18-4.61,2.36-1.67,4.72-3.33,7.07-5,1.79-1.28,3.56-2.59,5.32-3.91.86-.63,1.71-1.25,2.6-1.83.4-.26.82-.49,1.24-.72.18-.1.36-.18.53-.29a3.29,3.29,0,0,0,1.17-1.39,2.87,2.87,0,0,0-.25-2.82,2.91,2.91,0,0,0-1.14-.95,2.87,2.87,0,0,0-1.42-.25,5.16,5.16,0,0,0-.94.23,3.85,3.85,0,0,0-.68.37,6.54,6.54,0,0,0-.81.7" />
    <path d="M892.59,69.73l-.61.59c-4,3.59-8.31,6.83-12.65,10s-8.68,6.67-13.05,10c-3.09,2.32-6.24,4.56-9.4,6.78a2.15,2.15,0,0,0,2.47,3.53q7.27-5.08,14.37-10.4c2-1.55,4.08-3.13,6.18-4.61,2.36-1.67,4.72-3.33,7.07-5,1.79-1.28,3.56-2.59,5.32-3.91.86-.63,1.71-1.25,2.6-1.83.4-.26.82-.49,1.24-.72.18-.1.36-.18.53-.29a3.29,3.29,0,0,0,1.17-1.39,2.87,2.87,0,0,0-.25-2.82,2.91,2.91,0,0,0-1.14-.95,2.87,2.87,0,0,0-1.42-.25,5.16,5.16,0,0,0-.94.23,3.85,3.85,0,0,0-.68.37,6.54,6.54,0,0,0-.81.7" />
    <path d="M538.59,102.73l-.61.59c-4,3.59-8.31,6.83-12.65,10s-8.68,6.67-13.05,10c-3.09,2.32-6.24,4.56-9.4,6.78a2.15,2.15,0,1,0,2.47,3.53q7.27-5.09,14.37-10.4c2-1.55,4.08-3.13,6.18-4.61,2.36-1.67,4.72-3.33,7.07-5,1.79-1.28,3.56-2.59,5.32-3.91.86-.63,1.71-1.25,2.6-1.83.4-.26.82-.49,1.24-.72.18-.1.36-.18.53-.29a3.29,3.29,0,0,0,1.17-1.39,2.87,2.87,0,0,0-.25-2.82,2.91,2.91,0,0,0-1.14-.95,2.87,2.87,0,0,0-1.42-.25,5.16,5.16,0,0,0-.94.23,3.85,3.85,0,0,0-.68.37,6.54,6.54,0,0,0-.81.7" />
    <path d="M570.59,621.73l-.61.59c-4,3.59-8.31,6.83-12.65,10s-8.68,6.67-13.05,10c-3.09,2.32-6.24,4.56-9.4,6.78a2.15,2.15,0,0,0,2.47,3.53q7.27-5.08,14.37-10.4c2-1.55,4.08-3.13,6.18-4.61,2.36-1.67,4.72-3.33,7.07-5,1.79-1.28,3.56-2.59,5.32-3.91.86-.63,1.71-1.25,2.6-1.83.4-.26.82-.49,1.24-.72.18-.1.36-.18.53-.29a3.29,3.29,0,0,0,1.17-1.39,2.87,2.87,0,0,0-.25-2.82,2.91,2.91,0,0,0-1.14-1,2.87,2.87,0,0,0-1.42-.25,5.16,5.16,0,0,0-.94.23,3.85,3.85,0,0,0-.68.37,6.54,6.54,0,0,0-.81.7" />
    <path d="M892.59,601.73l-.61.59c-4,3.59-8.31,6.83-12.65,10s-8.68,6.67-13.05,10c-3.09,2.32-6.24,4.56-9.4,6.78a2.15,2.15,0,1,0,2.47,3.53q7.27-5.08,14.37-10.4c2-1.55,4.08-3.13,6.18-4.61,2.36-1.67,4.72-3.33,7.07-5,1.79-1.28,3.56-2.59,5.32-3.91.86-.63,1.71-1.25,2.6-1.83.4-.26.82-.49,1.24-.72.18-.1.36-.18.53-.29a3.29,3.29,0,0,0,1.17-1.39,2.87,2.87,0,0,0-.25-2.82,2.91,2.91,0,0,0-1.14-1,2.87,2.87,0,0,0-1.42-.25,5.16,5.16,0,0,0-.94.23,3.85,3.85,0,0,0-.68.37,6.54,6.54,0,0,0-.81.7" />
    <path d="M1414.5,404.26l-.61.59c-4,3.59-8.31,6.83-12.65,10s-8.68,6.68-13,10c-3.09,2.32-6.24,4.56-9.4,6.78a2.15,2.15,0,0,0,2.47,3.53q7.27-5.08,14.37-10.41c2-1.54,4.08-3.12,6.18-4.6,2.36-1.67,4.73-3.33,7.08-5,1.78-1.28,3.55-2.6,5.31-3.91.86-.63,1.71-1.25,2.6-1.83.4-.26.82-.49,1.24-.72.18-.1.36-.18.53-.29a3.26,3.26,0,0,0,1.17-1.4,2.86,2.86,0,0,0-.25-2.81,2.91,2.91,0,0,0-1.14-1,2.87,2.87,0,0,0-1.42-.25,5.16,5.16,0,0,0-.94.23,3.29,3.29,0,0,0-.68.37,6.54,6.54,0,0,0-.81.7" />
    <path d="M1023.39,521.36l-.85.1c-5.36.41-10.75.36-16.13.25s-10.95,0-16.42,0c-3.86,0-7.73-.18-11.59-.34a2.16,2.16,0,0,0-.18,4.31q8.87.38,17.74.48c2.56,0,5.13,0,7.7.1,2.89.11,5.77.23,8.66.32,2.2.08,4.4.11,6.6.14,1.06,0,2.12,0,3.18.12.47,0,.95.11,1.42.18a5.77,5.77,0,0,0,.6.1,3.35,3.35,0,0,0,1.78-.4,2.82,2.82,0,0,0,1.18-3.83,2.91,2.91,0,0,0-1-1.06,4.71,4.71,0,0,0-.89-.39,3.45,3.45,0,0,0-.76-.13,8.8,8.8,0,0,0-1.07.07" />
    <path d="M1225.88,364.54l-.85.09c-5.36.42-10.75.37-16.13.26s-10.94,0-16.42,0c-3.86,0-7.72-.17-11.58-.33a2.16,2.16,0,0,0-.19,4.31q8.86.38,17.74.48c2.57,0,5.14,0,7.7.1,2.89.1,5.78.23,8.67.32,2.2.07,4.39.1,6.59.14,1.07,0,2.12,0,3.18.12.48,0,1,.11,1.42.18.2,0,.4.08.6.09a3.25,3.25,0,0,0,1.78-.39,2.86,2.86,0,0,0,1.51-2.39,2.78,2.78,0,0,0-.33-1.44,2.68,2.68,0,0,0-1-1.06,5,5,0,0,0-.88-.4,4.16,4.16,0,0,0-.77-.12,8.93,8.93,0,0,0-1.07.07" />
    <path d="M1300.71,140.59l-.84.09c-5.37.41-10.76.37-16.13.26s-11,0-16.42,0c-3.86,0-7.73-.17-11.59-.34a2.16,2.16,0,0,0-.18,4.31q8.87.39,17.73.48c2.57,0,5.14,0,7.71.1,2.89.11,5.77.24,8.66.33,2.2.07,4.4.1,6.6.13,1.06,0,2.12.05,3.18.13a13.78,13.78,0,0,1,1.42.18c.2,0,.39.08.59.09a3.32,3.32,0,0,0,1.78-.39,2.85,2.85,0,0,0,1.51-2.39,2.93,2.93,0,0,0-.32-1.45,2.85,2.85,0,0,0-1-1.06,4.62,4.62,0,0,0-.88-.39,3.46,3.46,0,0,0-.77-.12,6.15,6.15,0,0,0-1.07.07" />
    <path d="M1341.43,636.92l-.84.09c-5.37.41-10.76.37-16.13.26s-11,0-16.42,0c-3.86,0-7.73-.18-11.59-.34a2.16,2.16,0,0,0-.18,4.31q8.87.39,17.73.48c2.57,0,5.14,0,7.71.1,2.88.11,5.77.24,8.66.33,2.2.07,4.4.1,6.6.13,1.06,0,2.12,0,3.18.13a13.78,13.78,0,0,1,1.42.18c.19,0,.39.07.59.09a3.32,3.32,0,0,0,1.78-.39,2.85,2.85,0,0,0,1.51-2.39,2.93,2.93,0,0,0-.32-1.45,2.85,2.85,0,0,0-1-1.06,4.92,4.92,0,0,0-.88-.39,3.46,3.46,0,0,0-.77-.12,6.15,6.15,0,0,0-1.07.07" />
    <path d="M1194,247.34l-.84.09c-5.37.41-10.75.37-16.13.26s-11,0-16.42,0c-3.86,0-7.73-.18-11.59-.34a2.16,2.16,0,0,0-.18,4.31q8.87.39,17.73.48c2.57,0,5.14,0,7.71.1,2.89.11,5.77.24,8.66.33,2.2.07,4.4.1,6.6.13,1.06,0,2.12.05,3.18.13a13.78,13.78,0,0,1,1.42.18c.2,0,.39.07.59.09a3.32,3.32,0,0,0,1.78-.39,2.83,2.83,0,0,0,.21-4.9,4.62,4.62,0,0,0-.88-.39,3.46,3.46,0,0,0-.77-.12,6.15,6.15,0,0,0-1.07.07" />
    <path d="M1300.71,140.59l-.84.09c-5.37.41-10.76.37-16.13.26s-11,0-16.42,0c-3.86,0-7.73-.17-11.59-.34a2.16,2.16,0,0,0-.18,4.31q8.87.39,17.73.48c2.57,0,5.14,0,7.71.1,2.89.11,5.77.24,8.66.33,2.2.07,4.4.1,6.6.13,1.06,0,2.12.05,3.18.13a13.78,13.78,0,0,1,1.42.18c.2,0,.39.08.59.09a3.32,3.32,0,0,0,1.78-.39,2.85,2.85,0,0,0,1.51-2.39,2.93,2.93,0,0,0-.32-1.45,2.85,2.85,0,0,0-1-1.06,4.62,4.62,0,0,0-.88-.39,3.46,3.46,0,0,0-.77-.12,6.15,6.15,0,0,0-1.07.07" />
    <path d="M1294.89,548.47l-.74-.41c-4.63-2.75-9-5.89-13.34-9.08s-9-6.28-13.41-9.48c-3.13-2.25-6.21-4.59-9.28-6.94a2.15,2.15,0,1,0-2.63,3.41q7,5.43,14.23,10.61c2.08,1.5,4.19,3,6.24,4.52,2.29,1.75,4.58,3.51,6.89,5.25,1.76,1.33,3.54,2.62,5.32,3.91.86.63,1.71,1.26,2.53,1.93.36.31.71.64,1,1,.15.14.28.29.44.42a3.23,3.23,0,0,0,1.68.7,2.86,2.86,0,0,0,2.61-1.08,2.76,2.76,0,0,0,.56-1.37,2.91,2.91,0,0,0-.18-1.43,5.38,5.38,0,0,0-.5-.83,3.48,3.48,0,0,0-.56-.54,7.4,7.4,0,0,0-.91-.56" />
    <path d="M1294.16,795.17l-.35-.78c-2-5-3.63-10.12-5.17-15.28s-3.36-10.41-5-15.64c-1.14-3.69-2.19-7.41-3.21-11.14a2.16,2.16,0,0,0-4.16,1.14q2.34,8.56,5,17c.76,2.45,1.57,4.89,2.26,7.36.77,2.79,1.54,5.58,2.33,8.36.6,2.11,1.24,4.21,1.88,6.32.31,1,.61,2,.86,3.06.11.47.18.94.26,1.41,0,.2,0,.4.09.6a3.27,3.27,0,0,0,.92,1.57,2.84,2.84,0,0,0,4,0,2.82,2.82,0,0,0,.72-1.25,5.21,5.21,0,0,0,.1-1,3.78,3.78,0,0,0-.12-.77,9.13,9.13,0,0,0-.39-1" />
    <path d="M1027.29,226c-.12-.26-.24-.52-.35-.78-2-5-3.63-10.13-5.17-15.28s-3.36-10.42-5-15.65c-1.14-3.69-2.19-7.41-3.22-11.13a2.16,2.16,0,1,0-4.16,1.14c1.56,5.7,3.2,11.38,5,17,.76,2.45,1.56,4.9,2.25,7.37.78,2.78,1.54,5.57,2.34,8.35.6,2.12,1.24,4.22,1.88,6.32.31,1,.61,2,.85,3.07a13,13,0,0,1,.26,1.41c0,.19,0,.39.1.59A3.3,3.3,0,0,0,1023,230a2.86,2.86,0,0,0,2.73.71,2.81,2.81,0,0,0,2-2,5.13,5.13,0,0,0,.11-1,3.79,3.79,0,0,0-.12-.76,8.41,8.41,0,0,0-.39-1" />
    <path d="M1007.48,44.42c-.12-.25-.24-.51-.35-.77-2-5-3.63-10.13-5.17-15.29S998.6,18,997,12.72c-1.14-3.69-2.19-7.41-3.22-11.14a2.16,2.16,0,0,0-4.16,1.14q2.34,8.56,5,17c.76,2.45,1.56,4.89,2.25,7.37.78,2.78,1.54,5.57,2.34,8.35.6,2.11,1.24,4.22,1.88,6.32.31,1,.61,2,.86,3.07.11.46.18.93.26,1.4,0,.2,0,.4.09.6a3.27,3.27,0,0,0,.92,1.57,2.84,2.84,0,0,0,2.73.71,2.74,2.74,0,0,0,1.28-.75,2.8,2.8,0,0,0,.71-1.25,5.13,5.13,0,0,0,.11-1,3.78,3.78,0,0,0-.12-.77,10,10,0,0,0-.39-1" />
    <path d="M999.77,731.67l-.34-.78c-2-5-3.64-10.12-5.17-15.28s-3.36-10.42-5-15.64c-1.15-3.69-2.2-7.41-3.22-11.14A2.16,2.16,0,0,0,981.9,690c1.56,5.71,3.2,11.39,5,17,.76,2.45,1.56,4.89,2.25,7.36.78,2.79,1.54,5.57,2.33,8.35.61,2.12,1.25,4.22,1.89,6.33.31,1,.6,2,.85,3.06.11.46.19.94.26,1.41a5.58,5.58,0,0,0,.1.59,3.31,3.31,0,0,0,.91,1.58,2.88,2.88,0,0,0,2.74.71,2.82,2.82,0,0,0,2-2,5.21,5.21,0,0,0,.1-1,3.19,3.19,0,0,0-.12-.77,6,6,0,0,0-.39-1" />
    <path d="M1059.73,613.86c.11-.27.21-.53.31-.8,2.09-5,4.59-9.73,7.15-14.46s5-9.74,7.54-14.58c1.8-3.42,3.69-6.79,5.6-10.15a2.16,2.16,0,0,0-3.75-2.14q-4.39,7.71-8.54,15.55c-1.19,2.27-2.35,4.57-3.61,6.81-1.42,2.52-2.85,5-4.26,7.55-1.07,1.92-2.1,3.86-3.14,5.81-.5.93-1,1.86-1.56,2.77-.25.4-.53.79-.81,1.17-.12.17-.25.32-.36.49a3.32,3.32,0,0,0-.46,1.77,2.84,2.84,0,0,0,1.43,2.43,2.84,2.84,0,0,0,2.82,0,4.89,4.89,0,0,0,.76-.6,4.31,4.31,0,0,0,.46-.63,6.24,6.24,0,0,0,.42-1" />
    <path d="M1164.83,660.08c.1-.27.21-.53.31-.8,2.08-5,4.59-9.73,7.15-14.46s5-9.74,7.54-14.58c1.8-3.42,3.69-6.79,5.6-10.15a2.16,2.16,0,0,0-3.75-2.14q-4.4,7.71-8.54,15.55c-1.2,2.28-2.35,4.57-3.61,6.81-1.42,2.52-2.86,5-4.26,7.55-1.07,1.93-2.1,3.87-3.14,5.81-.5.93-1,1.86-1.56,2.77-.25.4-.53.79-.81,1.18-.12.16-.25.31-.36.48a3.32,3.32,0,0,0-.46,1.77,2.84,2.84,0,0,0,1.43,2.43,2.75,2.75,0,0,0,1.43.37,2.71,2.71,0,0,0,1.39-.38,4.39,4.39,0,0,0,.75-.6,3.21,3.21,0,0,0,.46-.63,6.19,6.19,0,0,0,.43-1" />
    <path d="M1110.36,455.93l.3-.79c2.09-5,4.6-9.73,7.16-14.46s5-9.74,7.53-14.59c1.8-3.41,3.69-6.79,5.6-10.14a2.15,2.15,0,0,0-3.74-2.14q-4.39,7.71-8.54,15.55c-1.2,2.27-2.36,4.57-3.62,6.8-1.42,2.52-2.85,5-4.26,7.56-1.06,1.92-2.1,3.86-3.13,5.8-.5.94-1,1.87-1.57,2.77-.25.41-.53.8-.81,1.18a5.48,5.48,0,0,0-.35.49,3.23,3.23,0,0,0-.47,1.76,2.83,2.83,0,0,0,2.87,2.81,2.82,2.82,0,0,0,1.39-.38,4.35,4.35,0,0,0,.75-.61,3.64,3.64,0,0,0,.46-.62,8.08,8.08,0,0,0,.43-1" />
    <path d="M1307.9,258.94l.3-.79c2.09-5,4.6-9.73,7.16-14.46s5-9.74,7.53-14.59c1.8-3.41,3.7-6.79,5.6-10.14a2.15,2.15,0,1,0-3.74-2.14q-4.39,7.71-8.54,15.55c-1.2,2.27-2.36,4.57-3.62,6.8-1.42,2.52-2.85,5-4.25,7.56-1.07,1.92-2.11,3.86-3.14,5.8-.5.94-1,1.87-1.57,2.77a13.68,13.68,0,0,1-.81,1.18,5.48,5.48,0,0,0-.35.49,3.3,3.3,0,0,0-.47,1.76,2.83,2.83,0,0,0,2.87,2.81,2.82,2.82,0,0,0,1.39-.38,4.88,4.88,0,0,0,.75-.61,3.17,3.17,0,0,0,.46-.62,8.08,8.08,0,0,0,.43-1" />
    <path d="M944.77,364.59l.3-.79c2.09-5,4.59-9.73,7.15-14.46s5-9.74,7.54-14.59c1.8-3.41,3.69-6.79,5.6-10.15a2.15,2.15,0,1,0-3.74-2.13q-4.41,7.71-8.55,15.55c-1.19,2.27-2.35,4.56-3.61,6.8-1.42,2.52-2.85,5-4.26,7.56-1.07,1.92-2.1,3.86-3.14,5.8-.49.94-1,1.87-1.56,2.77-.25.41-.53.79-.81,1.18a4.34,4.34,0,0,0-.35.49,3.21,3.21,0,0,0-.47,1.76,2.87,2.87,0,0,0,1.43,2.44,2.91,2.91,0,0,0,1.44.37,3,3,0,0,0,1.39-.38,6.24,6.24,0,0,0,.75-.61,4.31,4.31,0,0,0,.46-.63,7.27,7.27,0,0,0,.43-1" />
    <path d="M796.59,159.73l-.61.59c-4,3.59-8.31,6.83-12.65,10s-8.68,6.67-13.05,10c-3.09,2.32-6.24,4.56-9.4,6.78a2.15,2.15,0,0,0,2.47,3.53q7.27-5.09,14.37-10.4c2-1.55,4.08-3.13,6.18-4.61,2.36-1.67,4.72-3.33,7.07-5,1.79-1.28,3.56-2.59,5.32-3.91.86-.63,1.71-1.25,2.6-1.83.4-.26.82-.49,1.24-.72.18-.1.36-.18.53-.29a3.29,3.29,0,0,0,1.17-1.39,2.87,2.87,0,0,0-.25-2.82,2.91,2.91,0,0,0-1.14-.95,2.87,2.87,0,0,0-1.42-.25,5.16,5.16,0,0,0-.94.23,3.85,3.85,0,0,0-.68.37,6.54,6.54,0,0,0-.81.7" />
    <path d="M686.39,556.36l-.85.1c-5.36.41-10.75.36-16.13.25s-10.95,0-16.42,0c-3.86,0-7.73-.18-11.59-.34a2.16,2.16,0,0,0-.18,4.31q8.87.38,17.74.48c2.56,0,5.13,0,7.7.1,2.89.11,5.77.23,8.66.32,2.2.08,4.4.11,6.6.14,1.06,0,2.12,0,3.18.12.47,0,.95.11,1.42.18a5.77,5.77,0,0,0,.6.1,3.35,3.35,0,0,0,1.78-.4,2.82,2.82,0,0,0,1.18-3.83,2.91,2.91,0,0,0-1-1.06,4.71,4.71,0,0,0-.89-.39,3.45,3.45,0,0,0-.76-.13,8.8,8.8,0,0,0-1.07.07" />
    <path d="M857,282.34l-.84.09c-5.37.41-10.75.37-16.13.26s-11,0-16.42,0c-3.86,0-7.73-.18-11.59-.34a2.16,2.16,0,0,0-.18,4.31q8.87.39,17.73.48c2.57,0,5.14,0,7.71.1,2.89.11,5.77.24,8.66.33,2.2.07,4.4.1,6.6.13,1.06,0,2.12.05,3.18.13a13.78,13.78,0,0,1,1.42.18c.2,0,.39.07.59.09a3.32,3.32,0,0,0,1.78-.39,2.83,2.83,0,0,0,.21-4.9,4.62,4.62,0,0,0-.88-.39,3.46,3.46,0,0,0-.77-.12,6.15,6.15,0,0,0-1.07.07" />
    <path d="M690.29,261c-.12-.26-.24-.52-.35-.78-2-5-3.63-10.13-5.17-15.28s-3.36-10.42-5-15.65c-1.14-3.69-2.19-7.41-3.22-11.13a2.16,2.16,0,1,0-4.16,1.14c1.56,5.7,3.2,11.38,5,17,.76,2.45,1.56,4.9,2.25,7.37.78,2.78,1.54,5.57,2.34,8.35.6,2.12,1.24,4.22,1.88,6.32.31,1,.61,2,.85,3.07a13,13,0,0,1,.26,1.41c0,.19,0,.39.1.59A3.3,3.3,0,0,0,686,265a2.86,2.86,0,0,0,2.73.71,2.81,2.81,0,0,0,2-2,5.13,5.13,0,0,0,.11-1,3.79,3.79,0,0,0-.12-.76,8.41,8.41,0,0,0-.39-1" />
    <path d="M670.48,79.74c-.12-.25-.24-.51-.35-.77-2-5-3.63-10.13-5.17-15.29S661.6,53.27,660,48c-1.14-3.69-2.19-7.41-3.22-11.14A2.16,2.16,0,0,0,652.6,38q2.34,8.57,5,17c.76,2.45,1.56,4.89,2.25,7.37.78,2.78,1.54,5.57,2.34,8.35.6,2.11,1.24,4.22,1.88,6.32.31,1,.61,2,.86,3.07.11.46.18.93.26,1.4,0,.2,0,.4.09.6a3.27,3.27,0,0,0,.92,1.57,2.84,2.84,0,0,0,2.73.71,2.74,2.74,0,0,0,1.28-.75,2.8,2.8,0,0,0,.71-1.25,5.13,5.13,0,0,0,.11-1,3.78,3.78,0,0,0-.12-.77,10,10,0,0,0-.39-1" />
    <path d="M662.77,766.67l-.34-.78c-2-5-3.64-10.12-5.17-15.28s-3.36-10.42-5-15.64c-1.15-3.69-2.2-7.41-3.22-11.14A2.16,2.16,0,0,0,644.9,725c1.56,5.71,3.2,11.39,5,17,.76,2.45,1.56,4.89,2.25,7.36.78,2.79,1.54,5.57,2.33,8.35.61,2.12,1.25,4.22,1.89,6.33.31,1,.6,2,.85,3.06.11.46.19.94.26,1.41a5.58,5.58,0,0,0,.1.59,3.31,3.31,0,0,0,.91,1.58,2.88,2.88,0,0,0,2.74.71,2.82,2.82,0,0,0,2-2,5.21,5.21,0,0,0,.1-1,3.19,3.19,0,0,0-.12-.77,6,6,0,0,0-.39-1" />
    <path d="M722.73,648.86c.11-.27.21-.53.31-.8,2.09-5,4.59-9.73,7.15-14.46s5-9.74,7.54-14.58c1.8-3.42,3.69-6.79,5.6-10.15a2.16,2.16,0,0,0-3.75-2.14q-4.4,7.71-8.54,15.55c-1.19,2.27-2.35,4.57-3.61,6.81-1.42,2.52-2.85,5-4.26,7.55-1.07,1.92-2.1,3.86-3.14,5.81-.5.93-1,1.86-1.56,2.77-.25.4-.53.79-.81,1.17-.12.17-.25.32-.36.49a3.32,3.32,0,0,0-.46,1.77,2.84,2.84,0,0,0,1.43,2.43,2.84,2.84,0,0,0,2.82,0,4.89,4.89,0,0,0,.76-.6,4.31,4.31,0,0,0,.46-.63,6.24,6.24,0,0,0,.42-1" />
    <path d="M773.36,490.93l.3-.79c2.09-5,4.6-9.73,7.16-14.46s5-9.74,7.53-14.59c1.8-3.41,3.69-6.79,5.6-10.14a2.15,2.15,0,1,0-3.74-2.14q-4.4,7.71-8.54,15.55c-1.2,2.27-2.36,4.57-3.62,6.8-1.42,2.52-2.85,5-4.26,7.56-1.06,1.92-2.1,3.86-3.13,5.8-.5.94-1,1.87-1.57,2.77-.25.41-.53.8-.81,1.18a5.48,5.48,0,0,0-.35.49,3.23,3.23,0,0,0-.47,1.76,2.83,2.83,0,0,0,2.87,2.81,2.82,2.82,0,0,0,1.39-.38,4.35,4.35,0,0,0,.75-.61,3.64,3.64,0,0,0,.46-.62,8.08,8.08,0,0,0,.43-1" />
    <path d="M607.77,399.59l.3-.79c2.09-5,4.59-9.73,7.15-14.46s5-9.74,7.54-14.59c1.8-3.41,3.69-6.79,5.6-10.15a2.15,2.15,0,1,0-3.74-2.13q-4.41,7.71-8.55,15.55c-1.19,2.27-2.35,4.56-3.61,6.8-1.42,2.52-2.85,5-4.26,7.56-1.07,1.92-2.1,3.86-3.14,5.8-.49.94-1,1.87-1.56,2.77-.25.41-.53.79-.81,1.18a4.34,4.34,0,0,0-.35.49,3.21,3.21,0,0,0-.47,1.76,2.87,2.87,0,0,0,1.43,2.44,2.91,2.91,0,0,0,1.44.37,3,3,0,0,0,1.39-.38,6.24,6.24,0,0,0,.75-.61,4.31,4.31,0,0,0,.46-.63,7.27,7.27,0,0,0,.43-1" />
    <path d="M1210,84.51c.11-.26.21-.53.31-.79,2.09-5,4.59-9.73,7.15-14.46s5-9.74,7.54-14.59c1.8-3.41,3.69-6.79,5.6-10.15a2.16,2.16,0,1,0-3.75-2.13q-4.4,7.71-8.54,15.55c-1.2,2.27-2.35,4.57-3.61,6.8-1.42,2.52-2.85,5-4.26,7.56-1.07,1.92-2.1,3.86-3.14,5.8-.5.94-1,1.87-1.56,2.77-.25.41-.53.8-.81,1.18-.12.16-.25.32-.36.49a3.29,3.29,0,0,0-.46,1.76,2.83,2.83,0,0,0,2.86,2.81,2.82,2.82,0,0,0,1.39-.38,5,5,0,0,0,.76-.61,4.27,4.27,0,0,0,.46-.62,8.19,8.19,0,0,0,.42-1" />
  </g>
</svg>
